<?xml version="1.0" encoding="utf-8"?>
<!-- Generator: Adobe Illustrator 25.4.1, SVG Export Plug-In . SVG Version: 6.00 Build 0)  -->
<svg version="1.1" id="Calque_1" xmlns="http://www.w3.org/2000/svg" xmlns:xlink="http://www.w3.org/1999/xlink" x="0px" y="0px"
	 viewBox="0 0 512 512" style="enable-background:new 0 0 512 512;" xml:space="preserve">
<path d="M256,112c-30.9,0-56-25.1-56-56s25.1-56,56-56c30.9,0,56,25.1,56,56S286.9,112,256,112z M256,32c-13.2,0-24,10.8-24,24
	s10.8,24,24,24c13.2,0,24-10.8,24-24S269.2,32,256,32z"/>
<path d="M327.7,512c-17.6,0-33-11.9-38.8-30.9L256,379.7L223.2,481c-6.7,21.4-25.4,33.9-45.6,30.4c-10.9-1.9-20.6-8.4-26.8-17.8
	c-5.8-8.9-7.8-19.6-5.5-29.3l37.3-163.5l5.8-29.1c1.2-7.3,4.5-28.3,0.3-39c-1.3-3.3-3.9-7.1-13.6-10.9L83.1,192c0,0-0.1,0-0.1,0
	c-27.5-9.2-34.2-25.8-34.9-38.2c-0.8-13,4.4-25.1,14.1-33c9.7-7.9,22.7-10.6,35-7.4c0.4,0.1,0.8,0.2,1.2,0.4
	C99.2,114,184.7,144,256,144c71.3,0,155.8-29.8,156.6-30.1c0.4-0.1,0.7-0.2,1.1-0.3c12.5-3.5,24.7-1.3,34.3,6c10,7.6,16,20,16,33.2
	c0,26.4-23.3,34.9-34.5,39l-87.9,31.9c-11.5,4.3-16.4,8.8-17.5,10.8c0,0-0.1,0.1-0.1,0.1c-1.1,2-4.5,10.7-0.3,37l5.8,29.1
	l37.4,163.7c0,0.1,0,0.2,0.1,0.2c2.2,10.4,0.2,20.9-5.8,29.7c-6.1,9-15.7,15.2-26.5,17.1C332.3,511.8,329.9,512,327.7,512z M256,304
	c7.4,0,13.8,5,15.5,12.2l5.8,23.5c1.3,5.3,2.8,10.6,4.5,15.7l37.6,115.9c0,0.1,0.1,0.2,0.1,0.3c0.3,1,3.1,9.4,9.6,8.3
	c2.3-0.4,4.3-1.7,5.5-3.5c0.7-1.1,1.5-2.8,1-5.1l-37.4-163.8c0-0.1-0.1-0.3-0.1-0.4l-5.9-29.6c0-0.2-0.1-0.4-0.1-0.6
	c-4.3-26.9-3.1-45.3,3.9-57.9c5.7-10.5,17.3-19,34.4-25.4c0.1,0,0.1,0,0.2-0.1l88-31.9c13.5-4.9,13.5-6.7,13.5-8.9
	c0-3.2-1.3-6.2-3.3-7.7c-1-0.7-2.6-1.6-5.9-0.7c-8.9,3.1-92.4,31.7-166.7,31.7c-74,0-158-28.5-167.6-31.8c-2.2-0.5-4.4,0-6,1.3
	c-1.2,1-2.6,2.9-2.4,6.4c0.1,1.3,0.3,5.4,13,9.7l92.5,29.9c0.2,0.1,0.5,0.2,0.7,0.3c16.7,6.3,27.3,15.9,32.5,29.4
	c6.5,16.7,4.1,38.6,1.4,55.9c0,0.2-0.1,0.4-0.1,0.6l-5.9,29.6c0,0.1-0.1,0.3-0.1,0.4l-37.4,163.8c0,0.1,0,0.1,0,0.2
	c-0.3,1.2,0.1,2.9,1.1,4.4c1.3,2,3.4,3.4,5.6,3.8c6.1,1.1,8.9-6.2,9.6-8.5c0-0.1,0-0.1,0.1-0.2l36.9-114c2.1-6.3,3.9-12.8,5.5-19.3
	l5.3-21.7C242.2,309,248.6,304,256,304C256,304,256,304,256,304z"/>
</svg>
