<?xml version="1.0" encoding="utf-8"?>
<!-- Generator: Adobe Illustrator 25.4.1, SVG Export Plug-In . SVG Version: 6.00 Build 0)  -->
<svg version="1.1" id="Calque_1" xmlns="http://www.w3.org/2000/svg" xmlns:xlink="http://www.w3.org/1999/xlink" x="0px" y="0px"
	 viewBox="0 0 512 512" style="enable-background:new 0 0 512 512;" xml:space="preserve">
<path d="M186.6,464H160c-5.4,0-10.5-2.8-13.4-7.3c-2.9-4.6-3.4-10.3-1.1-15.3l64.5-142.2l-96.8-2.2l-35.3,42.8
	C71.2,348.1,65.7,352,52,352H34.1c-8.2,0-12.7-4.4-14.7-7c-2.4-3.2-4.7-8.6-2.4-16.4l19.8-71.1c0.1-0.5,0.3-1,0.5-1.5
	c0-0.1,0-0.1,0-0.2c-0.2-0.5-0.4-1-0.5-1.6l-19.8-71.4c-2.2-7.6,0.2-12.9,2.6-16.1c3.2-4.3,8.2-6.7,13.6-6.7h18.9
	c10.2,0,20.2,4.6,26,12l34.6,42.1l97.3-1.4L145.4,70.6c-2.2-5-1.8-10.7,1.1-15.3s8-7.3,13.4-7.3h26.9c0.3,0,0.6,0,0.9,0
	c7.2,0.4,13.8,3.9,18.2,9.6l125.2,152.2l57.8-1.5c4.2-0.2,16-0.3,18.7-0.3c55.3,0,88.3,17.9,88.3,48c0,9.5-3.8,27-29.1,38.2
	c-14.7,6.5-35.2,9.9-59.2,9.9c-2.7,0-14.4-0.1-18.7-0.3l-57.8-1.5L205.8,454.4c-4.4,5.6-11,9.1-18.2,9.5
	C187.3,464,187,464,186.6,464z M109.5,264.9c0.2,0,0.4,0,0.5,0l120.7,2.7c5,0.1,9.7,2.2,13.1,5.8c3.5,3.6,5.3,8.4,5.2,13.3
	c-0.1,2.3-0.5,4.6-1.4,6.8c-0.1,0.1-0.1,0.3-0.2,0.4l-60.1,132.7l123.3-149.5c5-6.5,12.9-7,15.3-7c0.1,0,0.3,0,0.4,0l63.9,1.7
	c0.2,0,0.4,0,0.5,0c2.5,0.2,12.8,0.3,17,0.3c39.8,0,56.3-10.5,56.3-16.1c0-5.6-16.5-16-56.3-16c-4.2,0-14.6,0.1-17,0.3
	c-0.2,0-0.4,0-0.6,0l-64.8,1.7c-6,0.2-11.5-2.5-15-7.2L187,84.8l60.6,133.6c2,4.4,2.2,9.3,0.6,13.9c-1.7,4.6-5,8.3-9.4,10.4
	c-2.5,1.2-5.3,1.8-8,1.8l-121.3,1.8c-7.5,0.2-14.7-3.2-19.4-9.1l-36.8-44.8c-0.1-0.1-0.3-0.1-0.4-0.2L67.4,245
	c2.5,7.1,2.5,14.7,0,21.8L52.5,320c0,0,0.1,0,0.1,0c0.1-0.1,0.1-0.2,0.2-0.2c0.1-0.1,0.1-0.2,0.2-0.2l37.6-45.6
	C95.3,268.2,102.3,264.9,109.5,264.9z M336.5,295.7C336.5,295.7,336.5,295.7,336.5,295.7C336.5,295.7,336.5,295.7,336.5,295.7z
	 M218.5,231.8C218.5,231.8,218.5,231.8,218.5,231.8C218.5,231.8,218.5,231.8,218.5,231.8z M218.5,231.8
	C218.5,231.8,218.5,231.8,218.5,231.8C218.5,231.8,218.5,231.8,218.5,231.8z M389.7,224.3L389.7,224.3L389.7,224.3z M108.6,214.2
	C108.6,214.2,108.6,214.2,108.6,214.2C108.6,214.2,108.6,214.2,108.6,214.2z M323.9,210C323.9,210,323.9,210,323.9,210
	C323.9,210,323.9,210,323.9,210z M323.9,210C323.9,210,323.9,210,323.9,210C323.9,210,323.9,210,323.9,210z M53.4,192.4
	C53.4,192.4,53.4,192.4,53.4,192.4C53.4,192.4,53.4,192.4,53.4,192.4z M52.8,191.8C52.8,191.8,52.8,191.8,52.8,191.8
	C52.8,191.8,52.8,191.8,52.8,191.8z M47.7,174.1C47.7,174.1,47.7,174.1,47.7,174.1C47.7,174.1,47.7,174.1,47.7,174.1z"/>
</svg>
