<?xml version="1.0" encoding="utf-8"?>
<!-- Generator: Adobe Illustrator 25.4.1, SVG Export Plug-In . SVG Version: 6.00 Build 0)  -->
<svg version="1.1" id="Calque_1" xmlns="http://www.w3.org/2000/svg" xmlns:xlink="http://www.w3.org/1999/xlink" x="0px" y="0px"
	 viewBox="0 0 512 512" style="enable-background:new 0 0 512 512;" xml:space="preserve">
<path d="M256.1,448c-97,0-176-79-176-176s79-176,176-176c97,0,176,79,176,176S353.1,448,256.1,448z M256.1,128
	c-79.4,0-144,64.6-144,144c0,79.4,64.6,144,144,144s144-64.6,144-144C400.1,192.6,335.5,128,256.1,128z"/>
<path d="M79.2,176h-1.7l-0.7-0.1c-5.7-0.5-11-3.3-14.5-7.9C56,160,48.1,150,48.1,131C48,95.5,74.4,66.1,108.2,64.1l0.5,0l3.1-0.1
	l0.3,0c14.8,0.1,29.2,5.4,40.4,15.1l0.1,0.1c4.4,3.9,7.1,9.4,7.3,15.3c0.2,5.8-2,11.6-6.2,15.8l-0.2,0.2l-60.3,59.2
	c-3.5,3.9-8.6,6.3-14,6.4L79.2,176z M109.9,96.1C93.1,97.2,80,112.5,80.1,131c0,2.5,0.2,4.4,0.7,6.2l40.4-39.7
	c-2.9-0.9-5.9-1.4-9-1.5L109.9,96.1z"/>
<path d="M434.5,176l-1.8,0c-5.3-0.1-10.4-2.5-14-6.4l-60.4-59.4c-4.2-4.2-6.4-10-6.2-15.9c0.2-5.8,2.9-11.4,7.3-15.2l0.1-0.1
	c11.3-9.6,25.6-15,40.4-15.1l0.3,0l3.6,0.1c33.8,2,60.3,31.4,60.2,66.9c0,19-7.9,29-14.3,37.1c-3.5,4.5-8.8,7.4-14.5,7.8L434.5,176z
	 M390.9,97.5l40.4,39.7c0.4-1.7,0.7-3.7,0.7-6.1c0-18.5-13.1-33.8-29.9-34.9l-2.2-0.1C396.8,96,393.8,96.5,390.9,97.5z"/>
<path d="M256.1,288h-80c-8.8,0-16-7.2-16-16s7.2-16,16-16h64v-96c0-8.8,7.2-16,16-16s16,7.2,16,16v112
	C272.1,280.8,264.9,288,256.1,288z"/>
<path d="M416.1,448c-4.1,0-8.2-1.6-11.3-4.7l-40-40c-6.2-6.2-6.2-16.4,0-22.6c6.2-6.2,16.4-6.2,22.6,0l40,40
	c6.2,6.2,6.2,16.4,0,22.6C424.3,446.4,420.2,448,416.1,448z"/>
<path d="M96.1,448c-4.1,0-8.2-1.6-11.3-4.7c-6.2-6.2-6.2-16.4,0-22.6l40-40c6.2-6.2,16.4-6.2,22.6,0c6.2,6.2,6.2,16.4,0,22.6l-40,40
	C104.3,446.4,100.2,448,96.1,448z"/>
</svg>
