<?xml version="1.0" encoding="utf-8"?>
<!-- Generator: Adobe Illustrator 25.4.1, SVG Export Plug-In . SVG Version: 6.00 Build 0)  -->
<svg version="1.1" id="Calque_1" xmlns="http://www.w3.org/2000/svg" xmlns:xlink="http://www.w3.org/1999/xlink" x="0px" y="0px"
	 viewBox="0 0 512 512" style="enable-background:new 0 0 512 512;" xml:space="preserve">
<path d="M419.1,448H92.9C68.1,448,48,427.9,48,403.1V204.9c0-24.7,20.1-44.9,44.9-44.9h326.3c24.7,0,44.9,20.1,44.9,44.9v198.3
	C464,427.9,443.9,448,419.1,448z M92.9,192c-7.1,0-12.9,5.8-12.9,12.9v198.3c0,7.1,5.8,12.9,12.9,12.9h326.3
	c7.1,0,12.9-5.8,12.9-12.9V204.9c0-7.1-5.8-12.9-12.9-12.9H92.9z"/>
<path d="M368,96H144c-8.8,0-16-7.2-16-16s7.2-16,16-16h224c8.8,0,16,7.2,16,16S376.8,96,368,96z"/>
<path d="M400,144H112c-8.8,0-16-7.2-16-16s7.2-16,16-16h288c8.8,0,16,7.2,16,16S408.8,144,400,144z"/>
</svg>
