<?xml version="1.0" encoding="utf-8"?>
<!-- Generator: Adobe Illustrator 25.4.1, SVG Export Plug-In . SVG Version: 6.00 Build 0)  -->
<svg version="1.1" id="Calque_1" xmlns="http://www.w3.org/2000/svg" xmlns:xlink="http://www.w3.org/1999/xlink" x="0px" y="0px"
	 viewBox="0 0 512 512" style="enable-background:new 0 0 512 512;" xml:space="preserve">
<path d="M163.4,497.6c-43.5,0-80.9-14-107.9-41c-36.7-36.7-49.4-92.4-35.6-156.8C33.1,237.8,69.3,174.7,122,122
	c52.7-52.7,115.8-89,177.7-102.2c64.4-13.7,120.1-1.1,156.8,35.6c36.7,36.7,49.4,92.4,35.6,156.8c-13.2,61.9-49.5,125-102.2,177.7
	c-52.7,52.7-115.8,89-177.7,102.2C195.3,495.8,179,497.6,163.4,497.6z M348.4,46.5c-13.3,0-27.3,1.5-42,4.7
	c-55.9,11.9-113.4,45.2-161.7,93.5c-48.4,48.4-81.6,105.8-93.5,161.7c-11.4,53.4-1.8,98.7,27,127.5c28.8,28.8,74.1,38.4,127.5,27
	c55.9-11.9,113.4-45.2,161.7-93.5c48.4-48.4,81.6-105.8,93.5-161.7c11.4-53.4,1.8-98.7-27-127.5C413,57.2,383.5,46.5,348.4,46.5z"/>
<path d="M178,350c-4.1,0-8.2-1.6-11.3-4.7c-6.2-6.2-6.2-16.4,0-22.6l156.1-156.1c6.2-6.2,16.4-6.2,22.6,0c6.2,6.2,6.2,16.4,0,22.6
	L189.3,345.4C186.1,348.5,182.1,350,178,350z"/>
<path d="M278.3,294.3c-4.1,0-8.2-1.6-11.3-4.7L222.4,245c-6.2-6.2-6.2-16.4,0-22.6c6.2-6.2,16.4-6.2,22.6,0l44.6,44.6
	c6.2,6.2,6.2,16.4,0,22.6C286.5,292.7,282.4,294.3,278.3,294.3z"/>
<path d="M322.9,249.7c-4.1,0-8.2-1.6-11.3-4.7L267,200.4c-6.2-6.2-6.2-16.4,0-22.6c6.2-6.2,16.4-6.2,22.6,0l44.6,44.6
	c6.2,6.2,6.2,16.4,0,22.6C331.1,248.1,327,249.7,322.9,249.7z"/>
<path d="M456.7,227.4c-4.1,0-8.2-1.6-11.3-4.7L289.3,66.6c-6.2-6.2-6.2-16.4,0-22.6c6.2-6.2,16.4-6.2,22.6,0L468,200.1
	c6.2,6.2,6.2,16.4,0,22.6C464.9,225.8,460.8,227.4,456.7,227.4z"/>
<path d="M211.4,472.7c-4.1,0-8.2-1.6-11.3-4.7L44,311.9c-6.2-6.2-6.2-16.4,0-22.6c6.2-6.2,16.4-6.2,22.6,0l156.1,156.1
	c6.2,6.2,6.2,16.4,0,22.6C219.6,471.1,215.5,472.7,211.4,472.7z"/>
<path d="M233.7,338.9c-4.1,0-8.2-1.6-11.3-4.7l-44.6-44.6c-6.2-6.2-6.2-16.4,0-22.6c6.2-6.2,16.4-6.2,22.6,0l44.6,44.6
	c6.2,6.2,6.2,16.4,0,22.6C241.9,337.3,237.8,338.9,233.7,338.9z"/>
</svg>
