<?xml version="1.0" encoding="utf-8"?>
<!-- Generator: Adobe Illustrator 25.4.1, SVG Export Plug-In . SVG Version: 6.00 Build 0)  -->
<svg version="1.1" id="Calque_1" xmlns="http://www.w3.org/2000/svg" xmlns:xlink="http://www.w3.org/1999/xlink" x="0px" y="0px"
	 viewBox="0 0 512 512" style="enable-background:new 0 0 512 512;" xml:space="preserve">
<path d="M344,296c-4.1,0-8.2-1.6-11.3-4.7c-6.2-6.2-6.2-16.4,0-22.6l88-88c6.2-6.2,16.4-6.2,22.6,0c6.2,6.2,6.2,16.4,0,22.6l-88,88
	C352.2,294.4,348.1,296,344,296z"/>
<path d="M296,296c-4.1,0-8.2-1.6-11.3-4.7l-64-64c-6.2-6.2-6.2-16.4,0-22.6c6.2-6.2,16.4-6.2,22.6,0l64,64c6.2,6.2,6.2,16.4,0,22.6
	C304.2,294.4,300.1,296,296,296z"/>
<path d="M80,336c-4.1,0-8.2-1.6-11.3-4.7c-6.2-6.2-6.2-16.4,0-22.6l104-104c6.2-6.2,16.4-6.2,22.6,0c6.2,6.2,6.2,16.4,0,22.6
	l-104,104C88.2,334.4,84.1,336,80,336z"/>
<path d="M456,208c-22.1,0-40-17.9-40-40s17.9-40,40-40s40,17.9,40,40S478.1,208,456,208z M456,160c-4.4,0-8,3.6-8,8s3.6,8,8,8
	s8-3.6,8-8S460.4,160,456,160z"/>
<path d="M320,344c-22.1,0-40-17.9-40-40s17.9-40,40-40s40,17.9,40,40S342.1,344,320,344z M320,296c-4.4,0-8,3.6-8,8s3.6,8,8,8
	s8-3.6,8-8S324.4,296,320,296z"/>
<path d="M208,232c-22.1,0-40-17.9-40-40s17.9-40,40-40s40,17.9,40,40S230.1,232,208,232z M208,184c-4.4,0-8,3.6-8,8s3.6,8,8,8
	s8-3.6,8-8S212.4,184,208,184z"/>
<path d="M56,384c-22.1,0-40-17.9-40-40s17.9-40,40-40s40,17.9,40,40S78.1,384,56,384z M56,336c-4.4,0-8,3.6-8,8s3.6,8,8,8s8-3.6,8-8
	S60.4,336,56,336z"/>
</svg>
