<?xml version="1.0" encoding="utf-8"?>
<!-- Generator: Adobe Illustrator 25.4.1, SVG Export Plug-In . SVG Version: 6.00 Build 0)  -->
<svg version="1.1" id="Calque_1" xmlns="http://www.w3.org/2000/svg" xmlns:xlink="http://www.w3.org/1999/xlink" x="0px" y="0px"
	 viewBox="0 0 512 512" style="enable-background:new 0 0 512 512;" xml:space="preserve">
<path d="M256,464c-114.7,0-208-93.3-208-208S141.3,48,256,48s208,93.3,208,208S370.7,464,256,464z M256,80c-97,0-176,79-176,176
	s79,176,176,176s176-79,176-176S353,80,256,80z"/>
<path d="M360,312c-8.8,0-16-7.2-16-16V94.6c0-8.8,7.2-16,16-16s16,7.2,16,16V296C376,304.8,368.8,312,360,312z"/>
<path d="M296,376c-4.1,0-8.2-1.6-11.3-4.7c-6.2-6.2-6.2-16.4,0-22.6l147.1-147.1c6.2-6.2,16.4-6.2,22.6,0c6.2,6.2,6.2,16.4,0,22.6
	L307.3,371.3C304.2,374.4,300.1,376,296,376z"/>
<path d="M417.4,376H216c-8.8,0-16-7.2-16-16s7.2-16,16-16h201.4c8.8,0,16,7.2,16,16S426.2,376,417.4,376z"/>
<path d="M299.1,459.1c-4.1,0-8.2-1.6-11.3-4.7l-144-144c-6.2-6.2-6.2-16.4,0-22.6c6.2-6.2,16.4-6.2,22.6,0l144,144
	c6.2,6.2,6.2,16.4,0,22.6C307.3,457.6,303.2,459.1,299.1,459.1z"/>
<path d="M152,432c-8.8,0-16-7.2-16-16V216c0-8.8,7.2-16,16-16s16,7.2,16,16v200C168,424.8,160.8,432,152,432z"/>
<path d="M68.9,315.1c-4.1,0-8.2-1.6-11.3-4.7c-6.2-6.2-6.2-16.4,0-22.6l144-144c6.2-6.2,16.4-6.2,22.6,0c6.2,6.2,6.2,16.4,0,22.6
	l-144,144C77.1,313.6,73,315.1,68.9,315.1z"/>
<path d="M288,168H94.6c-8.8,0-16-7.2-16-16s7.2-16,16-16H288c8.8,0,16,7.2,16,16S296.8,168,288,168z"/>
<path d="M360,232c-4.1,0-8.2-1.6-11.3-4.7L201.6,80.2c-6.2-6.2-6.2-16.4,0-22.6c6.2-6.2,16.4-6.2,22.6,0l147.1,147.1
	c6.2,6.2,6.2,16.4,0,22.6C368.2,230.4,364.1,232,360,232z"/>
</svg>
