<?xml version="1.0" encoding="utf-8"?>
<!-- Generator: Adobe Illustrator 25.4.1, SVG Export Plug-In . SVG Version: 6.00 Build 0)  -->
<svg version="1.1" id="Calque_1" xmlns="http://www.w3.org/2000/svg" xmlns:xlink="http://www.w3.org/1999/xlink" x="0px" y="0px"
	 viewBox="0 0 512 512" style="enable-background:new 0 0 512 512;" xml:space="preserve">
<path d="M104,160c-30.9,0-56-25.1-56-56s25.1-56,56-56s56,25.1,56,56S134.9,160,104,160z M104,80c-13.2,0-24,10.8-24,24
	s10.8,24,24,24s24-10.8,24-24S117.2,80,104,80z"/>
<path d="M256,160c-30.9,0-56-25.1-56-56s25.1-56,56-56c30.9,0,56,25.1,56,56S286.9,160,256,160z M256,80c-13.2,0-24,10.8-24,24
	s10.8,24,24,24c13.2,0,24-10.8,24-24S269.2,80,256,80z"/>
<path d="M408,160c-30.9,0-56-25.1-56-56s25.1-56,56-56s56,25.1,56,56S438.9,160,408,160z M408,80c-13.2,0-24,10.8-24,24
	s10.8,24,24,24s24-10.8,24-24S421.2,80,408,80z"/>
<path d="M104,312c-30.9,0-56-25.1-56-56c0-30.9,25.1-56,56-56s56,25.1,56,56C160,286.9,134.9,312,104,312z M104,232
	c-13.2,0-24,10.8-24,24c0,13.2,10.8,24,24,24s24-10.8,24-24C128,242.8,117.2,232,104,232z"/>
<path d="M256,312c-30.9,0-56-25.1-56-56c0-30.9,25.1-56,56-56c30.9,0,56,25.1,56,56C312,286.9,286.9,312,256,312z M256,232
	c-13.2,0-24,10.8-24,24c0,13.2,10.8,24,24,24c13.2,0,24-10.8,24-24C280,242.8,269.2,232,256,232z"/>
<path d="M408,312c-30.9,0-56-25.1-56-56c0-30.9,25.1-56,56-56s56,25.1,56,56C464,286.9,438.9,312,408,312z M408,232
	c-13.2,0-24,10.8-24,24c0,13.2,10.8,24,24,24s24-10.8,24-24C432,242.8,421.2,232,408,232z"/>
<path d="M104,464c-30.9,0-56-25.1-56-56s25.1-56,56-56s56,25.1,56,56S134.9,464,104,464z M104,384c-13.2,0-24,10.8-24,24
	s10.8,24,24,24s24-10.8,24-24S117.2,384,104,384z"/>
<path d="M256,464c-30.9,0-56-25.1-56-56s25.1-56,56-56c30.9,0,56,25.1,56,56S286.9,464,256,464z M256,384c-13.2,0-24,10.8-24,24
	s10.8,24,24,24c13.2,0,24-10.8,24-24S269.2,384,256,384z"/>
<path d="M408,464c-30.9,0-56-25.1-56-56s25.1-56,56-56s56,25.1,56,56S438.9,464,408,464z M408,384c-13.2,0-24,10.8-24,24
	s10.8,24,24,24s24-10.8,24-24S421.2,384,408,384z"/>
</svg>
