<?xml version="1.0" encoding="utf-8"?>
<!-- Generator: Adobe Illustrator 25.4.1, SVG Export Plug-In . SVG Version: 6.00 Build 0)  -->
<svg version="1.1" id="Calque_1" xmlns="http://www.w3.org/2000/svg" xmlns:xlink="http://www.w3.org/1999/xlink" x="0px" y="0px"
	 viewBox="0 0 512 512" style="enable-background:new 0 0 512 512;" xml:space="preserve">
<path d="M120,464c-30.8-0.1-55.9-25.2-56-56V152c0-8.8,7.2-16,16-16s16,7.2,16,16v256c0,13.2,10.8,24,24,24h272
	c13.2,0,24-10.8,24-24V152c0-8.8,7.2-16,16-16s16,7.2,16,16v256c-0.1,30.8-25.2,55.9-56,56H120z"/>
<path d="M436,160H76c-24.3,0-44-19.7-44-44V92c0-24.3,19.7-44,44-44h360c24.3,0,44,19.7,44,44v24C480,140.3,460.3,160,436,160z
	 M76,80c-6.6,0-12,5.4-12,12v24c0,6.6,5.4,12,12,12h360c6.6,0,12-5.4,12-12V92c0-6.6-5.4-12-12-12H76z"/>
<path d="M256,384c-4.1,0-8.2-1.6-11.3-4.7l-64-64c-6.2-6.2-6.2-16.4,0-22.6c6.2-6.2,16.4-6.2,22.6,0l52.7,52.7l52.7-52.7
	c6.2-6.2,16.4-6.2,22.6,0c6.2,6.2,6.2,16.4,0,22.6l-64,64C264.2,382.4,260.1,384,256,384z"/>
<path d="M256,361.9c-8.8,0-16-7.2-16-16V224c0-8.8,7.2-16,16-16c8.8,0,16,7.2,16,16v121.9C272,354.7,264.8,361.9,256,361.9z"/>
</svg>
