<?xml version="1.0" encoding="utf-8"?>
<!-- Generator: Adobe Illustrator 25.4.1, SVG Export Plug-In . SVG Version: 6.00 Build 0)  -->
<svg version="1.1" id="Calque_1" xmlns="http://www.w3.org/2000/svg" xmlns:xlink="http://www.w3.org/1999/xlink" x="0px" y="0px"
	 viewBox="0 0 512 512" style="enable-background:new 0 0 512 512;" xml:space="preserve">
<path d="M249.4,352c-4.1,0-8.2-1.6-11.4-4.7l-79.4-80c-6.2-6.2-6.2-16.3,0-22.5l79.4-80c6.2-6.3,16.4-6.3,22.6-0.1
	c6.3,6.2,6.3,16.4,0.1,22.6L192.5,256l68.2,68.7c6.2,6.3,6.2,16.4-0.1,22.6C257.5,350.5,253.5,352,249.4,352z"/>
<path d="M342,272H181c-8.8,0-16-7.2-16-16c0-8.8,7.2-16,16-16h161c8.8,0,16,7.2,16,16C358,264.8,350.8,272,342,272z"/>
<path d="M256,464c-114.7,0-208-93.3-208-208S141.3,48,256,48s208,93.3,208,208S370.7,464,256,464z M256,80c-97,0-176,79-176,176
	s79,176,176,176s176-79,176-176S353,80,256,80z"/>
</svg>
