<?xml version="1.0" encoding="utf-8"?>
<!-- Generator: Adobe Illustrator 25.4.1, SVG Export Plug-In . SVG Version: 6.00 Build 0)  -->
<svg version="1.1" id="Calque_1" xmlns="http://www.w3.org/2000/svg" xmlns:xlink="http://www.w3.org/1999/xlink" x="0px" y="0px"
	 viewBox="0 0 512 512" style="enable-background:new 0 0 512 512;" xml:space="preserve">
<path d="M245.1,327.7v-37.3c57.1,0,84.5,13.5,108.6,38.7c5.4,5.6,15,1.3,14.3-6.4c-5.5-61.5-34.1-117.1-122.9-117.1v-37.3
	c0-4.6-3.8-8.3-8.4-8.3c-2.1,0-4.2,0.8-5.7,2.3L146.6,242c-3.3,3.1-3.5,8.3-0.3,11.6c0.1,0.1,0.2,0.2,0.3,0.3l84.4,79.8
	c3.3,3.2,8.6,3.1,11.8-0.2C244.3,331.9,245.1,329.9,245.1,327.7z"/>
<path d="M256,464c-114.7,0-208-93.3-208-208S141.3,48,256,48s208,93.3,208,208S370.7,464,256,464z M256,80c-97,0-176,79-176,176
	s79,176,176,176s176-79,176-176S353,80,256,80z"/>
</svg>
