<?xml version="1.0" encoding="utf-8"?>
<!-- Generator: Adobe Illustrator 25.4.1, SVG Export Plug-In . SVG Version: 6.00 Build 0)  -->
<svg version="1.1" id="Calque_1" xmlns="http://www.w3.org/2000/svg" xmlns:xlink="http://www.w3.org/1999/xlink" x="0px" y="0px"
	 viewBox="0 0 512 512" style="enable-background:new 0 0 512 512;" xml:space="preserve">
<path d="M64,440c-1.7,0-3.5-0.3-5.2-0.9C52.3,436.9,48,430.8,48,424c0-73.1,14.7-131.6,43.6-173.8c35-51,90.2-78.5,164.4-81.9V88
	c0-6.4,3.8-12.2,9.7-14.7c5.9-2.5,12.7-1.3,17.3,3.1l176,168c3.2,3,5,7.2,5,11.6c0,4.4-1.8,8.6-5,11.6l-176,168
	c-4.6,4.4-11.5,5.7-17.3,3.1c-5.9-2.5-9.7-8.3-9.7-14.7v-79.8c-95.3,2.7-133.4,30.7-179.4,89.6C73.5,437.8,68.8,440,64,440z
	 M272,312c8.8,0,16,7.2,16,16v58.6L424.8,256L288,125.4V184c0,8.8-7.2,16-16,16c-71,0-122.8,23-154,68.3
	c-19.2,27.9-31.1,64.8-35.8,110c15-15.2,32.2-29.2,53-39.9C170.1,320.4,213.6,312,272,312z"/>
</svg>
