<?xml version="1.0" encoding="utf-8"?>
<!-- Generator: Adobe Illustrator 25.4.1, SVG Export Plug-In . SVG Version: 6.00 Build 0)  -->
<svg version="1.1" id="Calque_1" xmlns="http://www.w3.org/2000/svg" xmlns:xlink="http://www.w3.org/1999/xlink" x="0px" y="0px"
	 viewBox="0 0 512 512" style="enable-background:new 0 0 512 512;" xml:space="preserve">
<path d="M262.6,352c-4.1,0-8.1-1.5-11.3-4.6c-6.3-6.2-6.3-16.4-0.1-22.6l68.2-68.7l-68.2-68.7c-6.2-6.3-6.2-16.4,0.1-22.6
	c6.3-6.2,16.4-6.2,22.6,0.1l79.4,80c6.2,6.2,6.2,16.3,0,22.5l-79.4,80C270.9,350.4,266.7,352,262.6,352z"/>
<path d="M331,272H170c-8.8,0-16-7.2-16-16c0-8.8,7.2-16,16-16h161c8.8,0,16,7.2,16,16C347,264.8,339.8,272,331,272z"/>
<path d="M256,464c-114.7,0-208-93.3-208-208S141.3,48,256,48s208,93.3,208,208S370.7,464,256,464z M256,80c-97,0-176,79-176,176
	s79,176,176,176s176-79,176-176S353,80,256,80z"/>
</svg>
