<?xml version="1.0" encoding="utf-8"?>
<!-- Generator: Adobe Illustrator 25.4.1, SVG Export Plug-In . SVG Version: 6.00 Build 0)  -->
<svg version="1.1" id="Calque_1" xmlns="http://www.w3.org/2000/svg" xmlns:xlink="http://www.w3.org/1999/xlink" x="0px" y="0px"
	 viewBox="0 0 512 512" style="enable-background:new 0 0 512 512;" xml:space="preserve">
<path d="M336,265.4c-4.1,0-8.1-1.5-11.3-4.6L256,192.5l-68.7,68.2c-6.3,6.2-16.4,6.2-22.6-0.1c-6.2-6.3-6.2-16.4,0.1-22.6l80-79.4
	c6.2-6.2,16.3-6.2,22.5,0l80,79.4c6.3,6.2,6.3,16.4,0.1,22.6C344.2,263.8,340.1,265.4,336,265.4z"/>
<path d="M256,358c-8.8,0-16-7.2-16-16V181c0-8.8,7.2-16,16-16c8.8,0,16,7.2,16,16v161C272,350.8,264.8,358,256,358z"/>
<path d="M256,464c-114.7,0-208-93.3-208-208S141.3,48,256,48s208,93.3,208,208S370.7,464,256,464z M256,80c-97,0-176,79-176,176
	s79,176,176,176s176-79,176-176S353,80,256,80z"/>
</svg>
