<?xml version="1.0" encoding="utf-8"?>
<!-- Generator: Adobe Illustrator 25.4.1, SVG Export Plug-In . SVG Version: 6.00 Build 0)  -->
<svg version="1.1" id="Calque_1" xmlns="http://www.w3.org/2000/svg" xmlns:xlink="http://www.w3.org/1999/xlink" x="0px" y="0px"
	 viewBox="0 0 512 512" style="enable-background:new 0 0 512 512;" xml:space="preserve">
<path d="M448,440c-4.8,0-9.5-2.2-12.6-6.2c-46-58.9-84.1-86.9-179.4-89.6V424c0,6.4-3.8,12.2-9.7,14.7c-5.9,2.5-12.7,1.3-17.3-3.1
	l-176-168c-3.2-3-5-7.2-5-11.6c0-4.4,1.8-8.6,5-11.6l176-168c4.6-4.4,11.5-5.7,17.3-3.1c5.9,2.5,9.7,8.3,9.7,14.7v80.4
	c74.1,3.4,129.4,30.9,164.4,81.9c29,42.2,43.6,100.7,43.6,173.8c0,6.8-4.3,12.9-10.8,15.1C451.5,439.7,449.7,440,448,440z M87.2,256
	L224,386.6V328c0-8.8,7.2-16,16-16c58.4,0,101.9,8.4,136.8,26.4c20.8,10.7,38,24.7,53,39.9c-4.7-45.2-16.7-82.1-35.8-110
	C362.8,223,311,200,240,200c-8.8,0-16-7.2-16-16v-58.6L87.2,256z"/>
</svg>
