<?xml version="1.0" encoding="utf-8"?>
<!-- Generator: Adobe Illustrator 25.4.1, SVG Export Plug-In . SVG Version: 6.00 Build 0)  -->
<svg version="1.1" id="Calque_1" xmlns="http://www.w3.org/2000/svg" xmlns:xlink="http://www.w3.org/1999/xlink" x="0px" y="0px"
	 viewBox="0 0 512 512" style="enable-background:new 0 0 512 512;" xml:space="preserve">
<path d="M268,424c-6.1,0-12.3-2.3-17-7c-9.4-9.4-9.4-24.6,0-33.9l127-127L251,129c-9.4-9.4-9.4-24.6,0-33.9c9.4-9.4,24.6-9.4,33.9,0
	l144,144c9.4,9.4,9.4,24.6,0,33.9L285,417C280.3,421.7,274.1,424,268,424z"/>
<path d="M392,280H100c-13.3,0-24-10.7-24-24s10.7-24,24-24h292c13.3,0,24,10.7,24,24S405.3,280,392,280z"/>
</svg>
