<?xml version="1.0" encoding="utf-8"?>
<!-- Generator: Adobe Illustrator 25.4.1, SVG Export Plug-In . SVG Version: 6.00 Build 0)  -->
<svg version="1.1" id="Calque_1" xmlns="http://www.w3.org/2000/svg" xmlns:xlink="http://www.w3.org/1999/xlink" x="0px" y="0px"
	 viewBox="0 0 512 512" style="enable-background:new 0 0 512 512;" xml:space="preserve">
<path d="M256.1,464.1c-114.7,0-208-93.3-208-208s93.3-208,208-208s208,93.3,208,208S370.8,464.1,256.1,464.1z M256.1,80.1
	c-97,0-176,79-176,176s79,176,176,176s176-79,176-176S353.1,80.1,256.1,80.1z"/>
<path d="M246.6,381.9c-33.3,0-63.6-13.1-85.3-36.8c-22.1-24.1-32.6-56.2-29.7-90.3c2.9-33.3,18.5-64.6,43.8-88.1
	c25.4-23.5,57.6-36.5,90.7-36.5c37.2,0,67.9,12.1,88.9,34.9c20.1,21.9,29.5,52.8,26.5,86.8c-2.9,32.6-16.8,49.7-28,58.3
	c-11.1,8.5-24.7,12.4-36.3,10.3c-9.7-1.7-19.9-7.2-26.9-17.2c-11.4,11.1-26.6,17.5-43.9,17.5c-14.9,0-28.6-6-38.5-16.8
	c-11.4-12.4-17-30.4-15.4-49.2c3-35,30.9-57.4,56.9-61.4c27.1-4.3,52.2,6.5,62.9,19.5l3.9,4.7l-6.3,50.4
	c-1.2,14.3,3.3,23.5,12.3,25.1c2.4,0.4,8.1-0.2,14.4-5c6.7-5.2,15.1-16,17.1-38.5c2.3-26.5-4.4-49.2-19.3-65.5
	c-15.5-16.9-39.1-25.8-68.2-25.8c-54,0-101.8,44.4-106.6,99c-2.3,26.2,5.7,50.7,22.4,68.9c16.4,17.8,39.3,27.7,64.7,27.7
	c19,0,30.6-2.1,49.5-8.8c7.3-2.6,15.3,1.2,17.9,8.5s-1.2,15.3-8.5,17.9C283.7,379.3,268.8,381.9,246.6,381.9z M261.5,220.4
	c-2.5,0-5.1,0.2-7.7,0.6c-14.9,2.3-31.6,15.8-33.3,36.2c-1,11.1,2,21.2,8.1,27.9c4.6,5.1,10.8,7.7,17.9,7.7
	c20.3,0,34.7-14.9,36.7-38.1c0.1-0.7,0.2-1.5,0.4-2.2l3.2-25.3C281.5,223.9,272.3,220.4,261.5,220.4z"/>
</svg>
