<?xml version="1.0" encoding="utf-8"?>
<!-- Generator: Adobe Illustrator 25.4.1, SVG Export Plug-In . SVG Version: 6.00 Build 0)  -->
<svg version="1.1" id="Calque_1" xmlns="http://www.w3.org/2000/svg" xmlns:xlink="http://www.w3.org/1999/xlink" x="0px" y="0px"
	 viewBox="0 0 512 512" style="enable-background:new 0 0 512 512;" xml:space="preserve">
<path d="M156.9,416c-12.9,0-25.2-5.6-33.7-15.3c-0.6-0.7-1.2-1.5-1.7-2.3L33,264.8c-3.5-5.4-3.5-12.3,0-17.7L121.9,113
	c0.4-0.6,0.8-1.2,1.3-1.7c8.5-9.7,20.8-15.3,33.7-15.3h246.3c24.7,0.1,44.8,20.2,44.9,44.8v230.3c-0.1,24.7-20.2,44.8-44.8,44.9
	H156.9z M147.9,380.3c2.4,2.4,5.6,3.7,9,3.7h246.3c7,0,12.8-5.8,12.9-12.9V140.9c0-7-5.8-12.8-12.9-12.9H156.9c-3.4,0-6.6,1.4-9,3.8
	L65.5,256L147.9,380.3z"/>
<path d="M206.7,338.3c-4.1,0-8.2-1.6-11.3-4.7c-6.2-6.2-6.2-16.4,0-22.6l130-130c6.2-6.2,16.4-6.2,22.6,0c6.2,6.2,6.2,16.4,0,22.6
	l-130,130C214.8,336.8,210.8,338.3,206.7,338.3z"/>
<path d="M336.7,338.3c-4.1,0-8.2-1.6-11.3-4.7l-130-130c-6.2-6.2-6.2-16.4,0-22.6c6.2-6.2,16.4-6.2,22.6,0l130,130
	c6.2,6.2,6.2,16.4,0,22.6C344.9,336.8,340.8,338.3,336.7,338.3z"/>
<path d="M206.7,338.3c-4.1,0-8.2-1.6-11.3-4.7c-6.2-6.2-6.2-16.4,0-22.6l130-130c6.2-6.2,16.4-6.2,22.6,0c6.2,6.2,6.2,16.4,0,22.6
	l-130,130C214.8,336.8,210.8,338.3,206.7,338.3z"/>
<path d="M336.7,338.3c-4.1,0-8.2-1.6-11.3-4.7l-130-130c-6.2-6.2-6.2-16.4,0-22.6c6.2-6.2,16.4-6.2,22.6,0l130,130
	c6.2,6.2,6.2,16.4,0,22.6C344.9,336.8,340.8,338.3,336.7,338.3z"/>
</svg>
