<?xml version="1.0" encoding="utf-8"?>
<!-- Generator: Adobe Illustrator 25.4.1, SVG Export Plug-In . SVG Version: 6.00 Build 0)  -->
<svg version="1.1" id="Calque_1" xmlns="http://www.w3.org/2000/svg" xmlns:xlink="http://www.w3.org/1999/xlink" x="0px" y="0px"
	 viewBox="0 0 512 512" style="enable-background:new 0 0 512 512;" xml:space="preserve">
<path d="M230.4,392c-4.7,0-9.1-2-12.2-5.6l-38.4-44.9c-5.7-6.7-5-16.8,1.8-22.6c6.7-5.7,16.8-5,22.6,1.8l25.8,30.2l77.5-96.9
	c5.5-6.9,15.6-8,22.5-2.5c6.9,5.5,8,15.6,2.5,22.5l-89.6,112c-3,3.7-7.5,5.9-12.2,6C230.6,392,230.5,392,230.4,392z"/>
<path d="M392,480H120c-39,0-72-33-72-72V192c0-17.6,14.4-32,32-32h352c17.6,0,32,14.4,32,32v217.2c0,18.9-7.6,36.7-21.5,50.2
	C428.8,472.7,410.9,480,392,480z M80,192C80,192,80,192,80,192v216c0,21.3,18.7,40,40,40h272c21.7,0,40-17.7,40-38.8V192H80z"/>
<path d="M352,192c-8.8,0-16-7.2-16-16v-32c0-44.1-35.9-80-80-80s-80,35.9-80,80v32c0,8.8-7.2,16-16,16s-16-7.2-16-16v-32
	c0-61.8,50.2-112,112-112s112,50.2,112,112v32C368,184.8,360.8,192,352,192z"/>
</svg>
