<?xml version="1.0" encoding="utf-8"?>
<!-- Generator: Adobe Illustrator 25.4.1, SVG Export Plug-In . SVG Version: 6.00 Build 0)  -->
<svg version="1.1" id="icons" xmlns="http://www.w3.org/2000/svg" xmlns:xlink="http://www.w3.org/1999/xlink" x="0px" y="0px"
	 viewBox="0 0 512 512" style="enable-background:new 0 0 512 512;" xml:space="preserve">
<path d="M270.9,382.8c-34.1,0-74.5-15.9-108.8-43.5c-44.3-35.6-72.8-84.8-80.4-138.7c-6.5-46.5,5.4-92.8,33.7-130.3
	C143.6,32.8,184.8,8.5,231.3,2c90.1-12.7,174,45.6,195.2,132.2l0.9-0.2l2.5,17.7c7.6,54-6.2,109.3-39,155.7
	c-28.9,40.8-69.5,69.4-106.2,74.6C280.3,382.5,275.7,382.8,270.9,382.8z M255.9,32.2c-6.6,0-13.4,0.5-20.1,1.4
	c-38,5.3-71.7,25.2-94.8,55.9c-23.1,30.7-32.9,68.5-27.6,106.6c6.5,45.8,30.9,87.8,68.8,118.3c31.9,25.7,70.4,39.7,98.2,35.8
	c27.8-3.9,61-28,84.5-61.4c27.3-38.6,39.2-84.2,33.9-129l-0.5-3.8C388.1,84.3,326.4,32.2,255.9,32.2z"/>
<path d="M236.1,324.1c-2,0-4-0.4-5.9-1.1c-41.3-16.3-76.3-52.7-91.4-94.9c-3-8.3,1.3-17.5,9.7-20.5c8.3-3,17.5,1.3,20.5,9.7
	c14.5,40.4,47.3,65.8,73.1,76c8.2,3.3,12.2,12.6,9,20.8C248.4,320.2,242.4,324.1,236.1,324.1z"/>
<path d="M367.7,511.8c-2,0-4-0.4-5.9-1.1c-41.1-16.3-72.3-48.9-87.7-91.9c-3-8.3,1.3-17.5,9.7-20.5c8.3-3,17.5,1.3,20.5,9.7
	c12.3,34.2,36.9,60.1,69.3,72.9c8.2,3.3,12.2,12.6,9,20.8C380.1,508,374.1,511.8,367.7,511.8z"/>
<path d="M257.5,433.8c-4.3,0-8.5-1.8-11.6-4.9c-3.6-3.7-5.1-8.9-4.2-14l9.2-49.6c1.3-6.8,6.7-12,13.5-12.9l31.7-4.5
	c6.8-1,13.5,2.5,16.5,8.7l22.5,45.2c2.3,4.6,2.2,10-0.2,14.6s-6.8,7.7-11.9,8.4l-63.3,8.9C259,433.8,258.3,433.8,257.5,433.8z
	 M280.3,382.4l-3,16.4l19.3-2.7l-7.4-15L280.3,382.4z"/>
</svg>
