<?xml version="1.0" encoding="utf-8"?>
<!-- Generator: Adobe Illustrator 25.4.1, SVG Export Plug-In . SVG Version: 6.00 Build 0)  -->
<svg version="1.1" id="Calque_1" xmlns="http://www.w3.org/2000/svg" xmlns:xlink="http://www.w3.org/1999/xlink" x="0px" y="0px"
	 viewBox="0 0 512 512" style="enable-background:new 0 0 512 512;" xml:space="preserve">
<path d="M256,480c-59.8,0-116.1-23.3-158.4-65.6C55.3,372.1,32,315.8,32,256c0-59.8,23.3-116.1,65.6-158.4S196.2,32,256,32
	c59.8,0,116.1,23.3,158.4,65.6C456.7,139.9,480,196.2,480,256c0,59.8-23.3,116.1-65.6,158.4C372.1,456.7,315.8,480,256,480z M256,80
	c-97,0-176,79-176,176s79,176,176,176s176-79,176-176S353,80,256,80z"/>
<rect x="232" y="56" transform="matrix(0.7071 -0.7071 0.7071 0.7071 -106.0387 256)" width="48" height="400"/>
</svg>
