<?xml version="1.0" encoding="utf-8"?>
<!-- Generator: Adobe Illustrator 25.4.1, SVG Export Plug-In . SVG Version: 6.00 Build 0)  -->
<svg version="1.1" id="Calque_1" xmlns="http://www.w3.org/2000/svg" xmlns:xlink="http://www.w3.org/1999/xlink" x="0px" y="0px"
	 viewBox="0 0 512 512" style="enable-background:new 0 0 512 512;" xml:space="preserve">
<path d="M120,496.1c-26.6,0-53.3-10.1-73.5-30.4c0,0-0.1-0.1-0.1-0.1C5.8,425,5.8,359,46.4,318.4l11.3,11.3l-11.3-11.3l272-272
	C359,5.8,425,5.8,465.6,46.4c40.6,40.6,40.6,106.7,0,147.3l-272,272C173.3,485.9,146.7,496.1,120,496.1z M69,442.9
	C69,442.9,69,443,69,442.9c28.2,28.2,73.9,28.2,102.1,0.1l272-272c28.1-28.1,28.1-73.9,0-102c-28.1-28.1-73.9-28.1-102,0L69,341
	C40.9,369.1,40.9,414.8,69,442.9z"/>
<path d="M250.3,388.8c-12.3,0-24.6-4.7-33.9-14l-79.2-79.2c-9.1-9.1-14.1-21.1-14.1-33.9c0-12.8,5-24.9,14.1-33.9l93.3-93.3
	c9.1-9.1,21.1-14.1,33.9-14.1s24.9,5,33.9,14.1l79.2,79.2c18.7,18.7,18.7,49.2,0,67.9l-93.3,93.3
	C274.9,384.2,262.6,388.8,250.3,388.8z M264.5,152.3c-4.3,0-8.3,1.7-11.3,4.7l-93.3,93.3c-3,3-4.7,7-4.7,11.3
	c0,4.3,1.7,8.3,4.7,11.3l79.2,79.2c6.2,6.2,16.4,6.2,22.6,0l93.3-93.3c6.2-6.2,6.2-16.4,0-22.6L275.8,157l0,0
	C272.8,154,268.7,152.3,264.5,152.3z"/>
<circle cx="256" cy="208" r="16"/>
<circle cx="304" cy="256" r="16"/>
<circle cx="208" cy="256" r="16"/>
<circle cx="256" cy="304" r="16"/>
</svg>
