<?xml version="1.0" encoding="utf-8"?>
<!-- Generator: Adobe Illustrator 25.4.1, SVG Export Plug-In . SVG Version: 6.00 Build 0)  -->
<svg version="1.1" id="Calque_1" xmlns="http://www.w3.org/2000/svg" xmlns:xlink="http://www.w3.org/1999/xlink" x="0px" y="0px"
	 viewBox="0 0 512 512" style="enable-background:new 0 0 512 512;" xml:space="preserve">
<path d="M480,496H48c-17.6,0-32-14.4-32-32V32c0-8.8,7.2-16,16-16s16,7.2,16,16v432h432c8.8,0,16,7.2,16,16S488.8,496,480,496z"/>
<path d="M156,432h-40c-19.9,0-36-16.1-36-36V244c0-19.9,16.1-36,36-36h40c19.9,0,36,16.1,36,36v152C192,415.9,175.9,432,156,432z
	 M116,240c-2.2,0-4,1.8-4,4v152c0,2.2,1.8,4,4,4h40c2.2,0,4-1.8,4-4V244c0-2.2-1.8-4-4-4H116z"/>
<path d="M300,432h-40c-19.9,0-36-16.1-36-36V196c0-19.9,16.1-36,36-36h40c19.9,0,36,16.1,36,36v200C336,415.9,319.9,432,300,432z
	 M260,192c-2.2,0-4,1.8-4,4v200c0,2.2,1.8,4,4,4h40c2.2,0,4-1.8,4-4V196c0-2.2-1.8-4-4-4H260z"/>
<path d="M443.6,432h-40c-19.9,0-36-16.1-36-36V132c0-19.9,16.1-36,36-36h40c19.9,0,36,16.1,36,36v264
	C479.6,415.9,463.5,432,443.6,432z M403.6,128c-2.2,0-4,1.8-4,4v264c0,2.2,1.8,4,4,4h40c2.2,0,4-1.8,4-4V132c0-2.2-1.8-4-4-4H403.6z
	"/>
</svg>
