<?xml version="1.0" encoding="utf-8"?>
<!-- Generator: Adobe Illustrator 25.4.1, SVG Export Plug-In . SVG Version: 6.00 Build 0)  -->
<svg version="1.1" id="Calque_1" xmlns="http://www.w3.org/2000/svg" xmlns:xlink="http://www.w3.org/1999/xlink" x="0px" y="0px"
	 viewBox="0 0 512 512" style="enable-background:new 0 0 512 512;" xml:space="preserve">
<path d="M464,272H48c-8.8,0-16-7.2-16-16c0-8.8,7.2-16,16-16h416c8.8,0,16,7.2,16,16C480,264.8,472.8,272,464,272z"/>
<path d="M400,400c-17.6,0-32-14.4-32-32V144c0-17.6,14.4-32,32-32s32,14.4,32,32v224C432,385.6,417.6,400,400,400z M400,144
	C400,144,400,144,400,144v224V144z"/>
<path d="M112,400c-17.6,0-32-14.4-32-32V144c0-17.6,14.4-32,32-32s32,14.4,32,32v224C144,385.6,129.6,400,112,400z M112,144
	C112,144,112,144,112,144v224V144z"/>
<path d="M40,336c-13.2,0-24-10.8-24-24V200c0-13.2,10.8-24,24-24s24,10.8,24,24v112C64,325.2,53.2,336,40,336z"/>
<path d="M472,336c-13.2,0-24-10.8-24-24V200c0-13.2,10.8-24,24-24s24,10.8,24,24v112C496,325.2,485.2,336,472,336z"/>
</svg>
