<?xml version="1.0" encoding="utf-8"?>
<!-- Generator: Adobe Illustrator 25.4.1, SVG Export Plug-In . SVG Version: 6.00 Build 0)  -->
<svg version="1.1" id="Calque_1" xmlns="http://www.w3.org/2000/svg" xmlns:xlink="http://www.w3.org/1999/xlink" x="0px" y="0px"
	 viewBox="0 0 512 512" style="enable-background:new 0 0 512 512;" xml:space="preserve">
<path d="M384,416.3c-8.8,0-15.9-7.1-16-15.8c-0.1-8.8,7-16.1,15.8-16.1L419,384c7.2,0,13-5.8,13-12.9V140.9c0-7-5.8-12.8-12.9-12.9
	l-35,0.3c-8.9,0-16.1-7-16.1-15.8s7-16.1,15.8-16.1L419,96c0.1,0,0.1,0,0.2,0c24.6,0.1,44.7,20.2,44.8,44.8v230.3
	c-0.1,24.7-20.2,44.8-44.8,44.9l-35.1,0.3C384.1,416.3,384,416.3,384,416.3z"/>
<path d="M91.2,416.3C67,416.3,48,396.6,48,371.5V141.2c0-25.1,18.9-44.8,43.1-44.9l36.7-0.3c8.8-0.1,16.1,7,16.1,15.9
	c0.1,8.8-7,16.1-15.9,16.1l-36.8,0.3c0,0-0.1,0-0.1,0c-7.4,0-11.2,6.5-11.2,12.9v230.3c0,6.4,3.8,12.8,11.1,12.9l36.7-0.3
	c0,0,0.1,0,0.1,0c8.8,0,15.9,7.1,16,15.9c0.1,8.8-7,16.1-15.9,16.1l-36.8,0.3C91.3,416.3,91.2,416.3,91.2,416.3z"/>
<path d="M384,336c-8.8,0-16-7.2-16-16V192c0-8.8,7.2-16,16-16s16,7.2,16,16v128C400,328.8,392.8,336,384,336z"/>
<path d="M320,368c-8.8,0-16-7.2-16-16V160c0-8.8,7.2-16,16-16s16,7.2,16,16v192C336,360.8,328.8,368,320,368z"/>
<path d="M256,352c-8.8,0-16-7.2-16-16V176c0-8.8,7.2-16,16-16c8.8,0,16,7.2,16,16v160C272,344.8,264.8,352,256,352z"/>
<path d="M192,368c-8.8,0-16-7.2-16-16V160c0-8.8,7.2-16,16-16s16,7.2,16,16v192C208,360.8,200.8,368,192,368z"/>
<path d="M128,336c-8.8,0-16-7.2-16-16V192c0-8.8,7.2-16,16-16s16,7.2,16,16v128C144,328.8,136.8,336,128,336z"/>
</svg>
