<?xml version="1.0" encoding="utf-8"?>
<!-- Generator: Adobe Illustrator 25.4.1, SVG Export Plug-In . SVG Version: 6.00 Build 0)  -->
<svg version="1.1" id="Calque_1" xmlns="http://www.w3.org/2000/svg" xmlns:xlink="http://www.w3.org/1999/xlink" x="0px" y="0px"
	 viewBox="0 0 512 512" style="enable-background:new 0 0 512 512;" xml:space="preserve">
<path d="M384.1,416.4l-0.2-32l48.1-0.3v-256l-47.9,0.3l-0.2-32l64-0.4c0,0,0.1,0,0.1,0c4.2,0,8.3,1.7,11.3,4.6c3,3,4.7,7.1,4.7,11.4
	v288c0,8.8-7.1,15.9-15.9,16L384.1,416.4z"/>
<path d="M64,416.3c-4.2,0-8.3-1.7-11.3-4.6c-3-3-4.7-7.1-4.7-11.4v-288c0-8.8,7.1-15.9,15.9-16l64-0.4l0.2,32L80,128.2v256l47.9-0.3
	l0.2,32l-64,0.4C64.1,416.3,64,416.3,64,416.3z"/>
<rect x="368" y="176" width="32" height="160"/>
<rect x="304" y="144" width="32" height="224"/>
<rect x="240" y="160" width="32" height="192"/>
<rect x="176" y="144" width="32" height="224"/>
<rect x="112" y="176" width="32" height="160"/>
</svg>
