<?xml version="1.0" encoding="utf-8"?>
<!-- Generator: Adobe Illustrator 25.4.1, SVG Export Plug-In . SVG Version: 6.00 Build 0)  -->
<svg version="1.1" id="Calque_1" xmlns="http://www.w3.org/2000/svg" xmlns:xlink="http://www.w3.org/1999/xlink" x="0px" y="0px"
	 viewBox="0 0 512 512" style="enable-background:new 0 0 512 512;" xml:space="preserve">
<path d="M233.7,142.2c-6.9,0-13.3-4.5-15.4-11.5c-2.5-8.5,2.4-17.4,10.9-19.8l60.6-17.6c8.5-2.5,17.4,2.4,19.8,10.9
	c2.5,8.5-2.4,17.4-10.9,19.8l-60.6,17.6C236.7,142,235.1,142.2,233.7,142.2z"/>
<path d="M265.6,208.5c-5,0-10-2.4-13.1-6.8c-5.1-7.2-3.4-17.2,3.8-22.3l51.5-36.4c7.2-5.1,17.2-3.4,22.3,3.8
	c5.1,7.2,3.4,17.2-3.8,22.3l-51.5,36.4C272.1,207.6,268.8,208.5,265.6,208.5z"/>
<path d="M319.5,262.4c-3.2,0-6.4-1-9.2-2.9c-7.2-5.1-8.9-15.1-3.8-22.3l36.4-51.5c5.1-7.2,15.1-8.9,22.3-3.8
	c7.2,5.1,8.9,15.1,3.8,22.3l-36.4,51.5C329.4,260,324.5,262.4,319.5,262.4z"/>
<path d="M385.8,294.3c-1.5,0-3-0.2-4.5-0.6c-8.5-2.5-13.4-11.3-10.9-19.8l17.6-60.6c2.5-8.5,11.3-13.4,19.8-10.9
	c8.5,2.5,13.4,11.3,10.9,19.8l-17.6,60.6C399.1,289.8,392.8,294.3,385.8,294.3z"/>
<path d="M256,464c-114.7,0-208-93.3-208-208S141.3,48,256,48s208,93.3,208,208S370.7,464,256,464z M256,80c-97,0-176,79-176,176
	s79,176,176,176s176-79,176-176S353,80,256,80z"/>
<path d="M433,271.1c-0.4,0-0.9,0-1.3-0.1c-50.1-4-97.1-26.1-132.2-62.1c-35.1-36-56-83.5-58.8-133.7c-0.5-8.8,6.3-16.4,15.1-16.9
	c8.8-0.5,16.4,6.3,16.9,15.1c4.9,87.4,74.4,158.6,161.6,165.6c8.8,0.7,15.4,8.4,14.7,17.2C448.2,264.7,441.2,271.1,433,271.1z"/>
<path d="M108.5,310.3c-1.5,0-3-0.2-4.5-0.6c-8.5-2.5-13.4-11.3-10.9-19.8l17.6-60.6c2.5-8.5,11.3-13.4,19.8-10.9
	c8.5,2.5,13.4,11.3,10.9,19.8l-17.6,60.6C121.9,305.8,115.5,310.3,108.5,310.3z"/>
<path d="M156,333.2c-3.2,0-6.4-1-9.2-2.9c-7.2-5.1-8.9-15.1-3.8-22.3l36.4-51.5c5.1-7.2,15.1-8.9,22.3-3.8
	c7.2,5.1,8.9,15.1,3.8,22.3l-36.4,51.5C166,330.8,161.1,333.2,156,333.2z"/>
<path d="M194.8,372c-5,0-10-2.4-13.1-6.8c-5.1-7.2-3.4-17.2,3.8-22.3l51.5-36.4c7.2-5.1,17.2-3.4,22.3,3.8
	c5.1,7.2,3.4,17.2-3.8,22.3L204,369C201.2,371,198,372,194.8,372z"/>
<path d="M217.7,419.5c-6.9,0-13.3-4.5-15.4-11.5c-2.5-8.5,2.4-17.4,10.9-19.8l60.6-17.6c8.5-2.5,17.4,2.4,19.8,10.9
	c2.5,8.5-2.4,17.4-10.9,19.8l-60.6,17.6C220.7,419.3,219.2,419.5,217.7,419.5z"/>
<path d="M255,449.6c-8.3,0-15.3-6.4-15.9-14.8c-6.8-87.6-78-157.3-165.7-162.2c-8.8-0.5-15.6-8-15.1-16.9s8-15.6,16.9-15.1
	c50.3,2.8,97.9,23.8,133.9,59s58,82.4,61.9,132.6c0.7,8.8-5.9,16.5-14.7,17.2C255.8,449.6,255.4,449.6,255,449.6z"/>
</svg>
