<?xml version="1.0" encoding="utf-8"?>
<!-- Generator: Adobe Illustrator 25.4.1, SVG Export Plug-In . SVG Version: 6.00 Build 0)  -->
<svg version="1.1" id="Calque_1" xmlns="http://www.w3.org/2000/svg" xmlns:xlink="http://www.w3.org/1999/xlink" x="0px" y="0px"
	 viewBox="0 0 512 512" style="enable-background:new 0 0 512 512;" xml:space="preserve">
<path d="M256,464c-114.7,0-208-93.3-208-208S141.3,48,256,48s208,93.3,208,208S370.7,464,256,464z M256,80c-97,0-176,79-176,176
	s79,176,176,176s176-79,176-176S353,80,256,80z"/>
<path d="M433,271.1c-0.4,0-0.9,0-1.3-0.1c-50.1-4-97.1-26.1-132.2-62.1c-35.1-36-56-83.5-58.8-133.7c-0.5-8.8,6.3-16.4,15.1-16.9
	c8.8-0.5,16.4,6.3,16.9,15.1c4.9,87.4,74.4,158.6,161.6,165.6c8.8,0.7,15.4,8.4,14.7,17.2C448.2,264.7,441.2,271.1,433,271.1z"/>
<path d="M255,449.6c-8.3,0-15.3-6.4-15.9-14.8c-6.8-87.6-78-157.3-165.7-162.2c-8.8-0.5-15.6-8-15.1-16.9s8-15.6,16.9-15.1
	c50.3,2.8,97.9,23.8,133.9,59s58,82.4,61.9,132.6c0.7,8.8-5.9,16.5-14.7,17.2C255.8,449.6,255.4,449.6,255,449.6z"/>
<path d="M391.8,407.8c-4.1,0-8.2-1.6-11.3-4.7L108.9,131.6c-6.2-6.2-6.2-16.4,0-22.6c6.2-6.2,16.4-6.2,22.6,0l271.5,271.5
	c6.2,6.2,6.2,16.4,0,22.6C399.9,406.2,395.9,407.8,391.8,407.8z"/>
<path d="M120.2,407.8c-4.1,0-8.2-1.6-11.3-4.7c-6.2-6.2-6.2-16.4,0-22.6l271.5-271.5c6.2-6.2,16.4-6.2,22.6,0
	c6.2,6.2,6.2,16.4,0,22.6L131.6,403.1C128.4,406.2,124.3,407.8,120.2,407.8z"/>
</svg>
