<?xml version="1.0" encoding="utf-8"?>
<!-- Generator: Adobe Illustrator 25.4.1, SVG Export Plug-In . SVG Version: 6.00 Build 0)  -->
<svg version="1.1" id="Calque_1" xmlns="http://www.w3.org/2000/svg" xmlns:xlink="http://www.w3.org/1999/xlink" x="0px" y="0px"
	 viewBox="0 0 512 512" style="enable-background:new 0 0 512 512;" xml:space="preserve">
<path d="M386.3,384H77.7c-34,0-61.7-27.7-61.7-61.7V189.7c0-34,27.7-61.7,61.7-61.7h308.6c34,0,61.7,27.7,61.7,61.7v132.6
	C448,356.3,420.3,384,386.3,384z M77.7,160C61.3,160,48,173.3,48,189.7v132.6c0,16.4,13.3,29.7,29.7,29.7h308.6
	c16.4,0,29.7-13.3,29.7-29.7V189.7c0-16.4-13.3-29.7-29.7-29.7H77.7z"/>
<g>
	<path d="M89.7,198.9H236c2.2,0,4,1.8,4,4v106.1c0,2.2-1.8,4-4,4H89.7c-2.2,0-4-1.8-4-4V202.9C85.7,200.7,87.5,198.9,89.7,198.9z"/>
	<path d="M236,329.1H89.7c-11,0-20-9-20-20V202.9c0-11,9-20,20-20H236c11,0,20,9,20,20v106.1C256,320.1,247,329.1,236,329.1z
		 M101.7,297.1H224v-82.1H101.7V297.1z M236,214.9L236,214.9L236,214.9z"/>
</g>
<path d="M480,309.3c-8.8,0-16-7.2-16-16v-74.7c0-8.8,7.2-16,16-16s16,7.2,16,16v74.7C496,302.2,488.8,309.3,480,309.3z"/>
</svg>
