<?xml version="1.0" encoding="utf-8"?>
<!-- Generator: Adobe Illustrator 25.4.1, SVG Export Plug-In . SVG Version: 6.00 Build 0)  -->
<svg version="1.1" id="Calque_1" xmlns="http://www.w3.org/2000/svg" xmlns:xlink="http://www.w3.org/1999/xlink" x="0px" y="0px"
	 viewBox="0 0 512 512" style="enable-background:new 0 0 512 512;" xml:space="preserve">
<g>
	<path d="M386.3,128H77.7c-34,0-61.7,27.7-61.7,61.7v132.6c0,34,27.7,61.7,61.7,61.7h308.6c34,0,61.7-27.7,61.7-61.7V189.7
		C448,155.7,420.3,128,386.3,128z M416,322.3c0,16.4-13.3,29.7-29.7,29.7H77.7C61.3,352,48,338.7,48,322.3V189.7
		c0-16.4,13.3-29.7,29.7-29.7h308.6c16.4,0,29.7,13.3,29.7,29.7V322.3z"/>
	<path d="M236,182.9H89.7c-11,0-20,9-20,20v106.1c0,11,9,20,20,20H236c11,0,20-9,20-20V202.9C256,191.9,247,182.9,236,182.9z"/>
	<path d="M480,202.7c-8.8,0-16,7.2-16,16v74.7c0,8.8,7.2,16,16,16s16-7.2,16-16v-74.7C496,209.8,488.8,202.7,480,202.7z"/>
</g>
</svg>
