<?xml version="1.0" encoding="utf-8"?>
<!-- Generator: Adobe Illustrator 25.4.1, SVG Export Plug-In . SVG Version: 6.00 Build 0)  -->
<svg version="1.1" id="Calque_1" xmlns="http://www.w3.org/2000/svg" xmlns:xlink="http://www.w3.org/1999/xlink" x="0px" y="0px"
	 viewBox="0 0 512 512" style="enable-background:new 0 0 512 512;" xml:space="preserve">
<path d="M368,480H176c-44.1,0-80-35.9-80-80V136c0-13.4-3.7-15.9-5.5-17.1c-5.4-3.6-16.2-5.3-28.7-7C53.9,110.8,48,104,48,96
	c0-25.7,21.3-64,80-64h270l47.2,0c10.7,0,18.8,7.9,18.8,18.5c0,5.9-3.1,10.2-5.1,13c-0.3,0.4-0.6,0.8-0.8,1.1c0,0.1-0.1,0.2-0.1,0.2
	c-2.1,3.4-10,18.4-10,31.2v304C448,444.1,412.1,480,368,480z M84,83.1c22.6,4.8,44,15.6,44,52.9v264c0,26.5,21.5,48,48,48h192
	c26.5,0,48-21.5,48-48V96c0-11.8,3.3-23.2,6.8-32L398,64H128c-18.6,0-32.2,4.7-40.4,14C86.2,79.6,85,81.3,84,83.1z M445.2,64
	L445.2,64L445.2,64z"/>
<path d="M432,192H112c-8.8,0-16-7.2-16-16s7.2-16,16-16h320c8.8,0,16,7.2,16,16S440.8,192,432,192z"/>
</svg>
