<?xml version="1.0" encoding="utf-8"?>
<!-- Generator: Adobe Illustrator 25.4.1, SVG Export Plug-In . SVG Version: 6.00 Build 0)  -->
<svg version="1.1" id="Calque_1" xmlns="http://www.w3.org/2000/svg" xmlns:xlink="http://www.w3.org/1999/xlink" x="0px" y="0px"
	 viewBox="0 0 512 512" style="enable-background:new 0 0 512 512;" xml:space="preserve">
<path d="M416,256H96c-8.8,0-16-7.2-16-16V136c0.1-30.8,25.2-55.9,56-56h240c30.8,0.1,55.9,25.2,56,56v104
	C432,248.8,424.8,256,416,256z M112,224h288v-88c0-13.2-10.8-24-24-24H136c-13.2,0-24,10.8-24,24V224z"/>
<path d="M464,432c-8.8,0-16-7.2-16-16V304c-0.1-26.4-21.6-47.9-48-48H112c-26.4,0.1-47.9,21.6-48,48v112c0,8.8-7.2,16-16,16
	s-16-7.2-16-16V304c0.1-44,36-79.9,80-80h288c44,0.1,79.9,36,80,80v112C480,424.8,472.8,432,464,432z"/>
<path d="M464,432c-8.8,0-16-7.2-16-16v-8c0-4.4-3.6-8-8-8H72c-4.4,0-8,3.6-8,8v8c0,8.8-7.2,16-16,16s-16-7.2-16-16v-8
	c0.1-22,18-39.9,40-40h368c22,0.1,39.9,18,40,40v8C480,424.8,472.8,432,464,432z"/>
<path d="M256,256c-8.8,0-16-7.2-16-16v-16c0-8.8-7.2-16-16-16h-80c-8.8,0-16,7.2-16,16v16c0,8.8-7.2,16-16,16s-16-7.2-16-16v-16
	c0.1-26.4,21.6-47.9,48-48h80c26.4,0.1,47.9,21.6,48,48v16C272,248.8,264.8,256,256,256z"/>
<path d="M400,256c-8.8,0-16-7.2-16-16v-16c0-8.8-7.2-16-16-16h-80c-8.8,0-16,7.2-16,16v16c0,8.8-7.2,16-16,16c-8.8,0-16-7.2-16-16
	v-16c0.1-26.4,21.6-47.9,48-48h80c26.4,0.1,47.9,21.6,48,48v16C416,248.8,408.8,256,400,256z"/>
</svg>
