<?xml version="1.0" encoding="utf-8"?>
<!-- Generator: Adobe Illustrator 25.4.1, SVG Export Plug-In . SVG Version: 6.00 Build 0)  -->
<svg version="1.1" id="Calque_1" xmlns="http://www.w3.org/2000/svg" xmlns:xlink="http://www.w3.org/1999/xlink" x="0px" y="0px"
	 viewBox="0 0 512 512" style="enable-background:new 0 0 512 512;" xml:space="preserve">
<path d="M409.4,416c-0.6,0-1.1,0-1.7-0.1c-31.3-2-56-17.3-72.5-31.6C311.5,404.8,283.6,416,256,416c-27.7,0-55.6-11.2-79.3-31.6
	c-16.6,14.3-41.3,29.6-72.5,31.6c-10.2,0.7-19.6-5.1-23.4-14.6l-0.1-0.2L34.1,281.7l-0.1-0.3c-3.9-11.4-1.1-20.5,1.4-26.4
	c3.5-8.5,11.2-15.2,21.2-18.4L243.6,162l0.6-0.2c7.8-2.4,16-2.4,23.7,0l1.1,0.4l186.8,74.3c10,3.5,17.4,9.9,20.9,18.3l0,0.1
	c4,9.5,4.3,19.2,1.1,27.3L431,401.4C427.4,410.3,418.8,416,409.4,416z M176.7,349.4c5.8,0,11.7,2.1,16.2,6.4l0.1,0.1
	c18.9,18.1,41.3,28.1,63,28.1c27.7,0,49.5-15.3,62.8-28.1l0.1-0.1c9.1-8.5,23.3-8.5,32.4,0l0.1,0.1c11.5,11,29.6,24.2,52.3,27.5
	l44.3-113c0-0.4-0.1-1.3-0.6-2.7c-0.3-0.2-1.1-0.7-2.2-1l-0.8-0.3l-186.5-74.2c-1.2-0.3-2.5-0.3-3.8,0L67.3,266.7l-0.6,0.2
	c-1,0.3-1.7,0.7-2,1c-0.7,1.8-0.7,2.3-0.5,3l44,112.6c22.7-3.3,40.8-16.5,52.3-27.5l0.1-0.1C165.1,351.6,170.9,349.4,176.7,349.4z
	 M448,270.6L448,270.6L448,270.6z M64.4,268L64.4,268L64.4,268z"/>
<path d="M416,473.1c0-2.5-1.4-4.8-3.6-6c-27.1-14.5-51.8-36.8-62.6-48c-3.3-3.5-8.7-4.1-12.7-1.5c-50.3,32.4-111.6,32.4-161.9,0
	c-4.1-2.6-9.5-2-12.8,1.6c-10.8,11.3-35.2,33.3-62.4,47.8c-2.2,1.1-3.7,3.3-3.9,5.7c-0.3,3.7,2.5,6.9,6.2,7.2c0.6,0,1.2,0,1.7-0.1
	c20.8-4.2,41-13.7,60.2-23.8c2.5-1.3,5.5-1.3,8-0.1c52.7,26.8,115.1,26.8,167.9,0c2.5-1.3,5.6-1.3,8.1,0.1
	c19.1,10,39.2,19.6,60,23.8c3.6,0.7,7.2-1.7,7.8-5.4C416,474,416,473.6,416,473.1L416,473.1z"/>
<path d="M320,112c-8.8,0-16-7.2-16-16V72c0-4.4-3.6-8-8-8h-80c-4.4,0-8,3.6-8,8v24c0,8.8-7.2,16-16,16s-16-7.2-16-16V72
	c0.1-22,18-39.9,40-40h80c22,0.1,39.9,18,40,40v24C336,104.8,328.8,112,320,112z"/>
<path d="M96,252c-8.8,0-16-7.2-16-16v-92c0.1-35.2,28.8-63.9,64-64h224c35.2,0.1,63.9,28.8,64,64v89c0,8.8-7.2,16-16,16
	s-16-7.2-16-16v-89c-0.1-17.6-14.4-31.9-32-32H144c-17.6,0.1-31.9,14.4-32,32v92C112,244.8,104.8,252,96,252z"/>
<path d="M256,412.5c-8.8,0-16-7.2-16-16V183.6c0-8.8,7.2-16,16-16c8.8,0,16,7.2,16,16v212.9C272,405.3,264.8,412.5,256,412.5z"/>
</svg>
