<?xml version="1.0" encoding="utf-8"?>
<!-- Generator: Adobe Illustrator 25.4.1, SVG Export Plug-In . SVG Version: 6.00 Build 0)  -->
<svg version="1.1" id="Calque_1" xmlns="http://www.w3.org/2000/svg" xmlns:xlink="http://www.w3.org/1999/xlink" x="0px" y="0px"
	 viewBox="0 0 512 512" style="enable-background:new 0 0 512 512;" xml:space="preserve">
<path d="M273.4,368.3c-0.8-9.2-8.9-16.4-18.6-16.4c-8.6-0.1-16.1,5.8-18.2,14.1l0,0l-18.2,88.4c-0.6,2.6-0.9,5.2-0.9,7.9
	c0,19.9,16.7,33.8,37.3,33.8s37.3-13.9,37.3-33.8c0-3.2-0.4-6.4-1.3-9.5L273.4,368.3z"/>
<path d="M411,407.9c-1.9-1.6-3.8-3.1-6-4.4l-69.5-48.6c-6.8-4.2-14-4.1-19.2,1c-4.7,4.5-5.6,11.7-2,17.2l52.5,69
	c1.2,1.7,2.5,3.2,4,4.7c9.1,10.2,29.3,10.7,40.4,0C422.1,435.9,422,416.5,411,407.9z"/>
<path d="M463.3,335.9h-70.4c-4.5,0-8.9,3.4-8.9,8.2s3,7.9,6.9,9.2l66.4,20.5c9.6,2.2,22.6-6.4,22.6-17.1
	C480,343,472.4,335.9,463.3,335.9z"/>
<path d="M128.2,344c0-5-4.6-8.2-9.4-8.2H48.3c-8.9,0-16.4,9.6-16.4,20.3s12.6,19.8,22.3,17.6l67.4-20.5
	C126.1,351.9,128.2,349,128.2,344z"/>
<path d="M176.6,355L107,403.4c-2.2,1.2-4.2,2.7-6,4.4c-10.6,9.9-11.3,26.6-1.3,37.2c0.4,0.5,0.9,0.9,1.3,1.3
	c11.3,10.7,29,10.7,40.4,0c1.5-1.4,2.8-3,4-4.7l52.5-68.6c3.5-5.6,2.9-12.5-2-17.1C190.5,350.9,182.4,350.5,176.6,355z"/>
<path d="M189.2,323.4c-6.7,0-13.5-2.1-19.3-6.5c-18.7-14.2-48.9-46.2-40.4-101c5.8-37.5,34.7-64.7,62.7-91
	c28.6-26.9,55.6-52.2,57-85.8c0-0.4,0-0.8,0.1-1.3c1.1-13.2,12.8-23,26-21.8c52.7,4.6,108.8,44.3,108.8,109
	c0,42-19.8,74.1-62.2,101.1c-8.9,5.6-18.3,10.7-28.3,16.2c-29.8,16.2-60.7,32.9-75.6,63.3c-0.9,1.9-2,3.6-3.2,5.2
	C208.4,319.1,198.8,323.4,189.2,323.4z M203.5,298.6L203.5,298.6L203.5,298.6z M280.4,49c-5.5,42.1-37.7,72.4-66.3,99.3
	c-25.1,23.6-48.9,45.9-53,72.6c-5.6,36.4,12.2,58.4,28.1,70.6c19.4-39.5,56.4-59.5,89-77.2c9.5-5.2,18.5-10,26.4-15.1
	c41.7-26.5,47.4-52.3,47.4-74C352,82.6,316.4,55.3,280.4,49z"/>
<path d="M161.2,196c-3.7,0-7.5-1.3-10.5-3.9c-16.3-14.2-22.6-28.6-22.6-51.3c0-19.1,9.8-31.8,18.4-42.9c7.8-10.1,14-18.1,14.3-30.7
	l0.1-1c0.9-10.6,9.9-18.5,20.5-18.1c35.8,0.8,57.5,12.7,72.6,39.8c4.3,7.7,1.5,17.5-6.2,21.8c-7.7,4.3-17.5,1.5-21.8-6.2
	c-8-14.3-17.4-20.7-34.8-22.7c-3.5,15.9-12.2,27.2-19.5,36.6c-7.5,9.7-11.8,15.6-11.8,23.4c0,14.5,3.1,19.7,11.7,27.2
	c6.7,5.8,7.3,15.9,1.5,22.6C170,194.2,165.6,196,161.2,196z"/>
<path d="M273.1,335.9c-28.4,0-55.5-10.8-76.1-30.4c-6.4-6.1-6.7-16.2-0.6-22.6c6.1-6.4,16.2-6.7,22.6-0.6
	c14.6,13.9,33.8,21.6,54,21.6c0,0,0,0,0.1,0c44.2,0,78.9-33.9,78.9-77.1c0-12.2-4.1-24.5-13.3-39.8c-4.6-7.6-2.1-17.4,5.5-22
	c7.6-4.6,17.4-2.1,22,5.5c7.7,12.7,17.8,32.4,17.8,56.2c0,29.6-11.6,57.2-32.6,77.7C330.6,324.7,302.8,335.9,273.1,335.9
	C273.1,335.9,273.1,335.9,273.1,335.9z"/>
</svg>
