<?xml version="1.0" encoding="utf-8"?>
<!-- Generator: Adobe Illustrator 25.4.1, SVG Export Plug-In . SVG Version: 6.00 Build 0)  -->
<svg version="1.1" id="Calque_1" xmlns="http://www.w3.org/2000/svg" xmlns:xlink="http://www.w3.org/1999/xlink" x="0px" y="0px"
	 viewBox="0 0 512 512" style="enable-background:new 0 0 512 512;" xml:space="preserve">
<path d="M256,464C256,464,256,464,256,464c-4.9,0-9.5-2.2-12.5-6c-24.1-30.1-64.4-58-195.5-58c-18.2,0-32-14.6-32-33.9V80
	c0-8.5,3.3-16.5,9.3-22.6c6-6.1,14-9.4,22.5-9.4H48c67.7,0.3,118.1,8.8,154.2,26.1c23.7,11.3,41.5,26.4,53.8,45.5
	c12.2-19.1,30.1-34.1,53.8-45.5c36.1-17.3,86.6-25.8,154.2-26.1c0,0,0.1,0,0.1,0c17.6,0,31.9,14.2,31.9,31.8V368
	c0,17.6-14.4,32-32,32c-131,0-171.4,27.9-195.5,58C265.5,461.8,260.9,464,256,464z M48.3,368c105.2,0,167.4,16.5,207.7,56.1
	c40.4-39.7,102.7-56.1,208-56.1V80c-151.9,0.7-182.7,45.2-192.5,83.9c-1.8,7.1-8.2,12.1-15.5,12.1s-13.7-5-15.5-12.1
	C230.7,125.2,199.9,80.7,48,80l0,286.1C48,367,48.2,367.6,48.3,368z"/>
<path d="M256,464c-8.8,0-16-7.2-16-16V160c0-8.8,7.2-16,16-16c8.8,0,16,7.2,16,16v288C272,456.8,264.8,464,256,464z"/>
</svg>
