<?xml version="1.0" encoding="utf-8"?>
<!-- Generator: Adobe Illustrator 25.4.1, SVG Export Plug-In . SVG Version: 6.00 Build 0)  -->
<svg version="1.1" id="Calque_1" xmlns="http://www.w3.org/2000/svg" xmlns:xlink="http://www.w3.org/1999/xlink" x="0px" y="0px"
	 viewBox="0 0 512 512" style="enable-background:new 0 0 512 512;" xml:space="preserve">
<path d="M432,464H80c-35.3,0-64-28.7-64-64V176c0-35.3,28.7-64,64-64h352c35.3,0,64,28.7,64,64v224C496,435.3,467.3,464,432,464z
	 M80,144c-17.6,0-32,14.4-32,32v224c0,17.6,14.4,32,32,32h352c17.6,0,32-14.4,32-32V176c0-17.6-14.4-32-32-32H80z"/>
<path d="M368,144c-8.8,0-16-7.2-16-16V96c0-8.8-7.2-16-16-16H176c-8.8,0-16,7.2-16,16v32c0,8.8-7.2,16-16,16s-16-7.2-16-16V96
	c0-26.5,21.5-48,48-48h160c26.5,0,48,21.5,48,48v32C384,136.8,376.8,144,368,144z"/>
<path d="M480,256H32c-8.8,0-16-7.2-16-16s7.2-16,16-16h448c8.8,0,16,7.2,16,16S488.8,256,480,256z"/>
<path d="M312,288H200c-13.2,0-24-10.8-24-24v-24c0-8.8,7.2-16,16-16s16,7.2,16,16v16h96v-16c0-8.8,7.2-16,16-16s16,7.2,16,16v24
	C336,277.2,325.2,288,312,288z"/>
</svg>
