<?xml version="1.0" encoding="utf-8"?>
<!-- Generator: Adobe Illustrator 25.4.1, SVG Export Plug-In . SVG Version: 6.00 Build 0)  -->
<svg version="1.1" id="Calque_1" xmlns="http://www.w3.org/2000/svg" xmlns:xlink="http://www.w3.org/1999/xlink" x="0px" y="0px"
	 viewBox="0 0 512 512" style="enable-background:new 0 0 512 512;" xml:space="preserve">
<path d="M416,464H96c-35.3,0-64-28.7-64-64V112c0-35.3,28.7-64,64-64h320c35.3,0,64,28.7,64,64v288C480,435.3,451.3,464,416,464z
	 M96,80c-17.6,0-32,14.4-32,32v288c0,17.6,14.4,32,32,32h320c17.6,0,32-14.4,32-32V112c0-17.6-14.4-32-32-32H96z"/>
<path d="M397.8,64H114.2C77.7,64,48,94.2,48,131.2V176h16c0-16,16-32,32-32h320c16,0,32,16,32,32h16v-44.8
	C464,94.2,434.3,64,397.8,64z"/>
</svg>
