<?xml version="1.0" encoding="utf-8"?>
<!-- Generator: Adobe Illustrator 25.4.1, SVG Export Plug-In . SVG Version: 6.00 Build 0)  -->
<svg version="1.1" id="Calque_1" xmlns="http://www.w3.org/2000/svg" xmlns:xlink="http://www.w3.org/1999/xlink" x="0px" y="0px"
	 viewBox="0 0 512 512" style="enable-background:new 0 0 512 512;" xml:space="preserve">
<path d="M416,480c-8.8,0-16-7.2-16-16c0-34.4-14.1-52.4-40.1-73.6c-6.9-5.6-7.9-15.7-2.3-22.5c5.6-6.9,15.7-7.9,22.5-2.3
	C411.3,391,432,417.4,432,464C432,472.8,424.8,480,416,480z"/>
<path d="M96,480c-8.8,0-16-7.2-16-16c0-46.6,20.7-73,51.9-98.4c6.9-5.6,16.9-4.5,22.5,2.3c5.6,6.9,4.5,16.9-2.3,22.5
	c-26,21.2-40.1,39.2-40.1,73.6C112,472.8,104.8,480,96,480z"/>
<path d="M384,224c-4.6,0-9.3-2-12.4-5.9c-5.6-6.9-4.5-16.9,2.3-22.5c22.1-18,26.1-42.2,26.1-83.6c0-8.8,7.2-16,16-16s16,7.2,16,16
	c0,40.9-2.9,79.9-37.9,108.4C391.1,222.8,387.6,224,384,224z"/>
<path d="M128,222c-3.6,0-7.1-1.2-10.1-3.6C82.9,189.9,80,151.8,80,112c0-8.8,7.2-16,16-16s16,7.2,16,16c0,40.9,3.9,63.5,26.1,81.6
	c6.9,5.6,7.9,15.7,2.3,22.5C137.2,220,132.6,222,128,222z"/>
<path d="M464,304.1h-80c-8.8,0-16-7.2-16-16s7.2-16,16-16h80c8.8,0,16,7.2,16,16S472.8,304.1,464,304.1z"/>
<path d="M128,304.1H48c-8.8,0-16-7.2-16-16s7.2-16,16-16h80c8.8,0,16,7.2,16,16S136.8,304.1,128,304.1z"/>
<path d="M256,464c-8.8,0-16-7.2-16-16V192c0-8.8,7.2-16,16-16c8.8,0,16,7.2,16,16v256C272,456.8,264.8,464,256,464z"/>
<path d="M256,464c-79.4,0-144-64.6-144-144v-96.1c0-36.1,15.4-65.7,44.6-85.6c25.2-17.3,59.6-26.4,99.4-26.4
	c91.5,0,144,40.8,144,112V320C400,399.4,335.4,464,256,464z M256,143.9c-32.9,0-61.7,7.4-81.4,20.8c-20.3,13.9-30.6,33.8-30.6,59.2
	V320c0,61.8,50.2,112,112,112s112-50.2,112-112v-96.1C368,157.8,307.1,143.9,256,143.9z"/>
<path d="M179.4,159.5c-6.4,0-12.4-3.8-14.9-10.1c-2.7-6.7-4.2-13.7-4.5-20.9c0-0.3,0-0.6,0-0.8c0.1-52.7,43.1-95.6,95.7-95.7h0.5
	c52.7,0.1,95.7,43.1,95.8,95.7c0,0.2,0,0.4,0,0.7c-0.3,6.8-1.7,13.5-4.3,19.8c-3.4,8.2-12.7,12.1-20.9,8.7
	c-8.2-3.4-12.1-12.7-8.7-20.9c1.1-2.7,1.8-5.6,1.9-8.5c-0.3-34.9-28.8-63.4-63.8-63.5h-0.4c-34.9,0.1-63.5,28.5-63.8,63.4
	c0.2,3.5,1,6.9,2.3,10.2c3.3,8.2-0.7,17.5-8.9,20.8C183.4,159.2,181.4,159.5,179.4,159.5z"/>
</svg>
