<?xml version="1.0" encoding="utf-8"?>
<!-- Generator: Adobe Illustrator 25.4.1, SVG Export Plug-In . SVG Version: 6.00 Build 0)  -->
<svg version="1.1" id="Calque_1" xmlns="http://www.w3.org/2000/svg" xmlns:xlink="http://www.w3.org/1999/xlink" x="0px" y="0px"
	 viewBox="0 0 512 512" style="enable-background:new 0 0 512 512;" xml:space="preserve">
<path d="M176,496c-8.8,0-16-7.2-16-16v-64c0-8.8,7.2-16,16-16s16,7.2,16,16v64C192,488.8,184.8,496,176,496z"/>
<path d="M300,496H48c-8.8,0-16-7.2-16-16V64c0-26.5,21.5-48,48-48h192c26.5,0,48,21.5,48,48v412C320,487,311,496,300,496z M64,464
	h224V64c0-8.8-7.2-16-16-16H80c-8.8,0-16,7.2-16,16V464z"/>
<path d="M464,496H304c-8.8,0-16-7.2-16-16V208c0-17.6,14.4-32,32-32h112c26.5,0,48,21.5,48,48v256C480,488.8,472.8,496,464,496z
	 M320,464h128V224c0-8.8-7.2-16-16-16H320c0,0,0,0,0,0L320,464z"/>
<path d="M98.1,431.9c-8.8,1.1-16.8-5-17.9-13.8c-1.1-8.8,5-16.8,13.8-17.9c8.8-1.1,16.8,5,17.9,13.8c0.2,1.4,0.2,2.8,0,4.1
	C110.9,425.3,105.3,430.9,98.1,431.9z"/>
<path d="M98.1,351.9c-8.8,1.1-16.8-5-17.9-13.8c-1.1-8.8,5-16.8,13.8-17.9c8.8-1.1,16.8,5,17.9,13.8c0.2,1.4,0.2,2.8,0,4.1
	C110.9,345.3,105.3,350.9,98.1,351.9z"/>
<path d="M98.1,271.9c-8.8,1.1-16.8-5-17.9-13.8c-1.1-8.8,5-16.8,13.8-17.9s16.8,5,17.9,13.8c0.2,1.4,0.2,2.8,0,4.1
	C110.9,265.3,105.3,270.9,98.1,271.9z"/>
<path d="M98.1,191.9c-8.8,1.1-16.8-5-17.9-13.8c-1.1-8.8,5-16.8,13.8-17.9c8.8-1.1,16.8,5,17.9,13.8c0.2,1.4,0.2,2.8,0,4.1
	C110.9,185.3,105.3,190.9,98.1,191.9z"/>
<path d="M98.1,111.9c-8.8,1.1-16.8-5-17.9-13.8c-1.1-8.8,5-16.8,13.8-17.9c8.8-1.1,16.8,5,17.9,13.8c0.2,1.4,0.2,2.8,0,4.1
	C110.9,105.3,105.3,110.9,98.1,111.9z"/>
<path d="M178.1,351.9c-8.8,1.1-16.8-5-17.9-13.8c-1.1-8.8,5-16.8,13.8-17.9c8.8-1.1,16.8,5,17.9,13.8c0.2,1.4,0.2,2.8,0,4.1
	C190.9,345.3,185.3,350.9,178.1,351.9z"/>
<path d="M178.1,271.9c-8.8,1.1-16.8-5-17.9-13.8c-1.1-8.8,5-16.8,13.8-17.9c8.8-1.1,16.8,5,17.9,13.8c0.2,1.4,0.2,2.8,0,4.1
	C190.9,265.3,185.3,270.9,178.1,271.9z"/>
<path d="M178.1,191.9c-8.8,1.1-16.8-5-17.9-13.8s5-16.8,13.8-17.9s16.8,5,17.9,13.8c0.2,1.4,0.2,2.8,0,4.1
	C190.9,185.3,185.3,190.9,178.1,191.9z"/>
<path d="M178.1,111.9c-8.8,1.1-16.8-5-17.9-13.8s5-16.8,13.8-17.9c8.8-1.1,16.8,5,17.9,13.8c0.2,1.4,0.2,2.8,0,4.1
	C190.9,105.3,185.3,110.9,178.1,111.9z"/>
<path d="M258.1,431.9c-8.8,1.1-16.8-5-17.9-13.8c-1.1-8.8,5-16.8,13.8-17.9c8.8-1.1,16.8,5,17.9,13.8c0.2,1.4,0.2,2.8,0,4.1
	C270.9,425.3,265.3,430.9,258.1,431.9z"/>
<path d="M258.1,351.9c-8.8,1.1-16.8-5-17.9-13.8c-1.1-8.8,5-16.8,13.8-17.9c8.8-1.1,16.8,5,17.9,13.8c0.2,1.4,0.2,2.8,0,4.1
	C270.9,345.3,265.3,350.9,258.1,351.9z"/>
<path d="M258.1,271.9c-8.8,1.1-16.8-5-17.9-13.8c-1.1-8.8,5-16.8,13.8-17.9c8.8-1.1,16.8,5,17.9,13.8c0.2,1.4,0.2,2.8,0,4.1
	C270.9,265.3,265.3,270.9,258.1,271.9z"/>
<ellipse transform="matrix(0.7071 -0.7071 0.7071 0.7071 -49.4627 232.5734)" cx="256" cy="176" rx="16" ry="16"/>
<path d="M258.1,111.9c-8.8,1.1-16.8-5-17.9-13.8c-1.1-8.8,5-16.8,13.8-17.9s16.8,5,17.9,13.8c0.2,1.4,0.2,2.8,0,4.1
	C270.9,105.3,265.3,110.9,258.1,111.9z"/>
<path d="M400,400c-8.8,0-16,7.2-16,16s7.2,16,16,16s16-7.2,16-16S408.8,400,400,400z"/>
<path d="M400,320c-8.8,0-16,7.2-16,16s7.2,16,16,16s16-7.2,16-16S408.8,320,400,320z"/>
<path d="M400,240c-8.8,0-16,7.2-16,16c0,8.8,7.2,16,16,16s16-7.2,16-16C416,247.2,408.8,240,400,240z"/>
<path d="M336,400c-8.8,0-16,7.2-16,16s7.2,16,16,16s16-7.2,16-16S344.8,400,336,400z"/>
<path d="M336,320c-8.8,0-16,7.2-16,16s7.2,16,16,16s16-7.2,16-16S344.8,320,336,320z"/>
<path d="M336,240c-8.8,0-16,7.2-16,16c0,8.8,7.2,16,16,16s16-7.2,16-16C352,247.2,344.8,240,336,240z"/>
</svg>
