<?xml version="1.0" encoding="utf-8"?>
<!-- Generator: Adobe Illustrator 25.4.1, SVG Export Plug-In . SVG Version: 6.00 Build 0)  -->
<svg version="1.1" id="icons" xmlns="http://www.w3.org/2000/svg" xmlns:xlink="http://www.w3.org/1999/xlink" x="0px" y="0px"
	 viewBox="0 0 512 512" style="enable-background:new 0 0 512 512;" xml:space="preserve">
<path d="M416,480H96c-35.3,0-64-28.7-64-64V128c0-35.3,28.7-64,64-64h320c35.3,0,64,28.7,64,64v288C480,451.3,451.3,480,416,480z
	 M96,96c-17.6,0-32,14.4-32,32v288c0,17.6,14.4,32,32,32h320c17.6,0,32-14.4,32-32V128c0-17.6-14.4-32-32-32H96z"/>
<path d="M128,96c-8.8,0-16-7.2-16-16V48c0-8.8,7.2-16,16-16s16,7.2,16,16v32C144,88.8,136.8,96,128,96z"/>
<path d="M384,96c-8.8,0-16-7.2-16-16V48c0-8.8,7.2-16,16-16s16,7.2,16,16v32C400,88.8,392.8,96,384,96z"/>
<path d="M464,176H48c-8.8,0-16-7.2-16-16s7.2-16,16-16h416c8.8,0,16,7.2,16,16S472.8,176,464,176z"/>
<path d="M352,412c-8.8,0-16-7.2-16-16V256.3l-22.5,16.6c-7.1,5.2-17.1,3.7-22.4-3.4c-5.2-7.1-3.7-17.1,3.4-22.4l43.4-32
	c2.8-2,6.1-3.1,9.5-3.1h4.6c8.8,0,16,7.2,16,16v168C368,404.8,360.8,412,352,412z"/>
<path d="M191.9,322.6c-8.8,0-16-7.2-16-16s7.2-16,16-16c6,0,18.2-3.4,25.3-10.6c0,0,0.1-0.1,0.1-0.1c4.2-4.1,6.5-9.9,6.4-15.8
	c0-0.1,0-0.1,0-0.2c0-23.2-28.6-23.9-31.9-23.9c-17.3,0-23.8,10.6-24.1,11.1c-4.5,7.6-14.3,10.1-21.9,5.6
	c-7.6-4.5-10.1-14.3-5.6-21.9c7.7-12.9,25.2-26.8,51.6-26.8c16.4,0,31.8,4.8,43.1,13.4c13.4,10.2,20.7,25.2,20.8,42.4
	c0.1,14.4-5.6,28.4-15.8,38.6C226.3,316.4,206,322.6,191.9,322.6z"/>
<path d="M192.9,416c-27.9,0-48.5-18.2-57.7-33.7c-4.5-7.6-2-17.4,5.6-21.9c7.6-4.5,17.4-2,21.9,5.6c1.1,1.8,11.2,18,30.1,18
	c16.7,0,36.1-7.3,36.1-27.8c0-6.3-1.2-15-7-20.9c-8.6-8.8-22.8-12.7-30.1-12.7c-8.8,0-16-7.2-16-16s7.2-16,16-16
	c15.5,0,37.9,6.9,53,22.3c10.6,10.8,16.1,25.7,16.1,43.3c0,18.1-7.6,34-21.4,44.9C227.4,410.7,210.8,416,192.9,416z"/>
</svg>
