<?xml version="1.0" encoding="utf-8"?>
<!-- Generator: Adobe Illustrator 25.4.1, SVG Export Plug-In . SVG Version: 6.00 Build 0)  -->
<svg version="1.1" id="Calque_1" xmlns="http://www.w3.org/2000/svg" xmlns:xlink="http://www.w3.org/1999/xlink" x="0px" y="0px"
	 viewBox="0 0 512 512" style="enable-background:new 0 0 512 512;" xml:space="preserve">
<path d="M416,480H96c-35.3,0-64-28.7-64-64V128c0-35.3,28.7-64,64-64h320c35.3,0,64,28.7,64,64v288C480,451.3,451.3,480,416,480z
	 M96,96c-17.6,0-32,14.4-32,32v288c0,17.6,14.4,32,32,32h320c17.6,0,32-14.4,32-32V128c0-17.6-14.4-32-32-32H96z"/>
<circle cx="296" cy="232" r="24"/>
<circle cx="376" cy="232" r="24"/>
<circle cx="296" cy="312" r="24"/>
<circle cx="376" cy="312" r="24"/>
<circle cx="136" cy="312" r="24"/>
<circle cx="216" cy="312" r="24"/>
<circle cx="136" cy="392" r="24"/>
<circle cx="216" cy="392" r="24"/>
<circle cx="296" cy="392" r="24"/>
<path d="M128,96c-8.8,0-16-7.2-16-16V48c0-8.8,7.2-16,16-16s16,7.2,16,16v32C144,88.8,136.8,96,128,96z"/>
<path d="M384,96c-8.8,0-16-7.2-16-16V48c0-8.8,7.2-16,16-16s16,7.2,16,16v32C400,88.8,392.8,96,384,96z"/>
<rect x="48" y="144" width="416" height="32"/>
</svg>
