<?xml version="1.0" encoding="utf-8"?>
<!-- Generator: Adobe Illustrator 25.4.1, SVG Export Plug-In . SVG Version: 6.00 Build 0)  -->
<svg version="1.1" id="Calque_1" xmlns="http://www.w3.org/2000/svg" xmlns:xlink="http://www.w3.org/1999/xlink" x="0px" y="0px"
	 viewBox="0 0 512 512" style="enable-background:new 0 0 512 512;" xml:space="preserve">
<path d="M432,432H80c-26.5,0-48-21.5-48-48V192c0-26.5,21.5-48,48-48h60c3.3,0,6.4-2.5,8.6-5l25.9-41c0.4-0.7,0.9-1.3,1.4-1.9
	C184.9,85.8,197,80,210,80h92c13,0,25.1,5.8,34.1,16.2c0.5,0.6,1,1.2,1.4,1.9l25.9,40.9c2.9,3.1,6.6,5,9.6,5h59
	c26.5,0,48,21.5,48,48v192C480,410.5,458.5,432,432,432z M80,176c-8.8,0-16,7.2-16,16v192c0,8.8,7.2,16,16,16h352
	c8.8,0,16-7.2,16-16V192c0-8.8-7.2-16-16-16h-59c-12.8,0-25.4-6.2-34.6-16.9c-0.5-0.6-1-1.2-1.4-1.9l-25.9-40.9
	c-2-2.1-5.1-4.3-9.1-4.3h-92c-4,0-7.1,2.2-9.1,4.3L175,157.2c-0.4,0.6-0.9,1.3-1.4,1.9c-9.5,11.1-21.1,16.9-33.6,16.9H80z"/>
<path d="M124,174c-4.8,0-9.1-2.1-12-5.4c-2.9,3.3-7.2,5.4-12,5.4c-8.8,0-16-7.2-16-16v-22c0-8.8,7.2-16,16-16h24c8.8,0,16,7.2,16,16
	v22C140,166.8,132.8,174,124,174z"/>
<path d="M256,368c-52.9,0-96-43-96-95.9v-13.3c0-8.8,7.2-16,16-16s16,7.2,16,16v13.3c0,35.3,28.7,63.9,64,63.9c0,0,0,0,0,0
	c14.7,0,29.1-5.2,40.5-14.5c6.8-5.6,16.9-4.6,22.5,2.2c5.6,6.8,4.6,16.9-2.2,22.5C299.8,360.3,278.2,368,256,368
	C256,368,256,368,256,368z M335.8,301.2c-8.8,0-16-7.2-16-16v-13.3c0-17.1-6.7-33.2-18.8-45.2c-12.1-12.1-28.2-18.7-45.2-18.7
	c0,0,0,0,0,0c-14.9,0-29.3,5.2-40.8,14.7c-6.8,5.6-16.9,4.7-22.5-2.1c-5.6-6.8-4.7-16.9,2.1-22.5c17.2-14.2,38.9-22,61.2-22
	c0,0,0,0,0,0c25.6,0,49.7,10,67.9,28.1c18.1,18.1,28.1,42.2,28.1,67.9v13.3C351.8,294.1,344.6,301.2,335.8,301.2z"/>
<path d="M196,288c-4.1,0-8.2-1.6-11.3-4.7l-8.7-8.7l-8.7,8.7c-6.2,6.2-16.4,6.2-22.6,0c-6.2-6.2-6.2-16.4,0-22.6l20-20
	c6.2-6.2,16.4-6.2,22.6,0l20,20c6.2,6.2,6.2,16.4,0,22.6C204.2,286.4,200.1,288,196,288z"/>
<path d="M336,308c-4.1,0-8.2-1.6-11.3-4.7l-20-20c-6.2-6.2-6.2-16.4,0-22.6c6.2-6.2,16.4-6.2,22.6,0l8.7,8.7l8.7-8.7
	c6.2-6.2,16.4-6.2,22.6,0c6.2,6.2,6.2,16.4,0,22.6l-20,20C344.2,306.4,340.1,308,336,308z"/>
</svg>
