<?xml version="1.0" encoding="utf-8"?>
<!-- Generator: Adobe Illustrator 25.4.1, SVG Export Plug-In . SVG Version: 6.00 Build 0)  -->
<svg version="1.1" id="Calque_1" xmlns="http://www.w3.org/2000/svg" xmlns:xlink="http://www.w3.org/1999/xlink" x="0px" y="0px"
	 viewBox="0 0 512 512" style="enable-background:new 0 0 512 512;" xml:space="preserve">
<path d="M432,432H80c-26.5,0-48-21.5-48-48V192c0-26.5,21.5-48,48-48h60c3.3,0,6.4-2.5,8.6-5l25.9-41c0.4-0.7,0.9-1.3,1.4-1.9
	C184.9,85.8,197,80,210,80h92c13,0,25.1,5.8,34.1,16.2c0.5,0.6,1,1.2,1.4,1.9l25.9,40.9c2.9,3.1,6.6,5,9.6,5h59
	c26.5,0,48,21.5,48,48v192C480,410.5,458.5,432,432,432z M80,176c-8.8,0-16,7.2-16,16v192c0,8.8,7.2,16,16,16h352
	c8.8,0,16-7.2,16-16V192c0-8.8-7.2-16-16-16h-59c-12.8,0-25.4-6.2-34.6-16.9c-0.5-0.6-1-1.2-1.4-1.9l-25.9-40.9
	c-2-2.1-5.1-4.3-9.1-4.3h-92c-4,0-7.1,2.2-9.1,4.3L175,157.2c-0.4,0.6-0.9,1.3-1.4,1.9c-9.5,11.1-21.1,16.9-33.6,16.9H80z"/>
<path d="M256,368c-52.9,0-96-43.1-96-96s43.1-96,96-96s96,43.1,96,96S308.9,368,256,368z M256,208c-35.3,0-64,28.7-64,64
	c0,35.3,28.7,64,64,64c35.3,0,64-28.7,64-64C320,236.7,291.3,208,256,208z"/>
<path d="M124,174c-4.8,0-9.1-2.1-12-5.4c-2.9,3.3-7.2,5.4-12,5.4c-8.8,0-16-7.2-16-16v-22c0-8.8,7.2-16,16-16h24c8.8,0,16,7.2,16,16
	v22C140,166.8,132.8,174,124,174z"/>
</svg>
