<?xml version="1.0" encoding="utf-8"?>
<!-- Generator: Adobe Illustrator 25.4.1, SVG Export Plug-In . SVG Version: 6.00 Build 0)  -->
<svg version="1.1" id="Calque_1" xmlns="http://www.w3.org/2000/svg" xmlns:xlink="http://www.w3.org/1999/xlink" x="0px" y="0px"
	 viewBox="0 0 512 512" style="enable-background:new 0 0 512 512;" xml:space="preserve">
<path d="M432,240c-6.2,0-12.1-3.6-14.7-9.7l-37.8-88.1c-3.6-8.5-13.5-14.2-24.6-14.2H157.1c-11.1,0-21,5.7-24.6,14.2l-37.8,88.1
	c-3.5,8.1-12.9,11.9-21,8.4c-8.1-3.5-11.9-12.9-8.4-21l37.8-88.1c8.7-20.4,29.9-33.5,54-33.5h197.8c24.1,0,45.3,13.2,54,33.5
	l37.8,88.1c3.5,8.1-0.3,17.5-8.4,21C436.2,239.6,434.1,240,432,240z"/>
<path d="M432,384H80c-8.8,0-16-7.2-16-16V224c0-8.8,7.2-16,16-16h352c8.8,0,16,7.2,16,16v144C448,376.8,440.8,384,432,384z M96,352
	h320V240H96V352z"/>
<path d="M112,416H80c-8.8,0-16-7.2-16-16v-32c0-8.8,7.2-16,16-16s16,7.2,16,16v16v-16c0-8.8,7.2-16,16-16s16,7.2,16,16v32
	C128,408.8,120.8,416,112,416z"/>
<path d="M432,416h-32c-8.8,0-16-7.2-16-16v-32c0-8.8,7.2-16,16-16s16,7.2,16,16v16v-16c0-8.8,7.2-16,16-16s16,7.2,16,16v32
	C448,408.8,440.8,416,432,416z"/>
<path d="M144,320c-17.6,0-32-14.4-32-32s14.4-32,32-32s32,14.4,32,32S161.6,320,144,320z M144,288C144,288,144,288,144,288L144,288z
	"/>
<path d="M368,320c-17.6,0-32-14.4-32-32s14.4-32,32-32s32,14.4,32,32S385.6,320,368,320z M368,288C368,288,368,288,368,288L368,288z
	"/>
</svg>
