<?xml version="1.0" encoding="utf-8"?>
<!-- Generator: Adobe Illustrator 25.4.1, SVG Export Plug-In . SVG Version: 6.00 Build 0)  -->
<svg version="1.1" id="Calque_1" xmlns="http://www.w3.org/2000/svg" xmlns:xlink="http://www.w3.org/1999/xlink" x="0px" y="0px"
	 viewBox="0 0 512 512" style="enable-background:new 0 0 512 512;" xml:space="preserve">
<path d="M470,400h-85c-8.5,0-14.5-1.5-20.9-3.2c-6.6-1.7-14-3.6-28.1-4.9c-30.5-2.9-62.2-3.9-80.1-3.9c-18.2,0-48.6,1-79.1,3.9
	c-14.1,1.3-21.5,3.2-28,4.9c-6.3,1.6-12.3,3.2-20.9,3.2h-86c-6.9,0-13-4.4-15.2-11c-0.3-0.8-6.4-19.8-9.7-51.3
	c-1.6-15.2-1.3-38.7,0.7-61.4c3.6-40.4,9.5-48.3,11.8-51.2c5.1-6.8,13.4-11.3,22.1-16.1c8.8-4.8,18.9-10.3,23.4-17.1
	c2.6-3.9,5.4-9.9,8.4-16.2c9.2-19.5,21.9-46.2,48.1-59.3C170.3,97,242,96,256,96c14,0,85.5,1,124.5,20.3
	c26.2,13,38.9,39.8,48.1,59.3c3,6.4,5.8,12.4,8.4,16.2c4.5,6.9,14.5,12.3,23.4,17.1c8.7,4.7,17,9.2,22.1,16c0,0,0,0,0,0
	c2.2,3,8.1,10.8,11.7,51.2c2,22.8,2.3,46.3,0.7,61.4c-3.3,31.5-9.5,50.5-9.7,51.3C483.1,395.6,477,400,470,400z M256,356
	c19.4,0,51.5,1.1,83.1,4.1c16.6,1.6,26.1,4,33,5.8c5.4,1.4,8.4,2.2,12.9,2.2h72.7c1.7-7.7,3.9-19.2,5.4-33.7
	c2.9-28.2-2.1-79.9-6.5-90.4c-2-1.7-7.7-4.8-11.5-6.9c-11.6-6.3-25.9-14.1-34.9-27.6c-3.8-5.8-7.1-12.7-10.6-20.1
	c-8-17-17.2-36.2-33.4-44.3c-23.6-11.7-72.4-17-110.2-17c-37.9,0-86.7,5.2-110.2,17c-16.3,8.1-25.4,27.4-33.4,44.3
	c-3.5,7.4-6.8,14.4-10.6,20.2C92.8,223,78.4,230.8,66.9,237c-3.9,2.1-9.6,5.2-11.6,6.9c-4.4,10.4-9.4,62.1-6.5,90.4
	c1.5,14.5,3.7,26,5.4,33.7h73.7c4.6,0,7.6-0.8,13-2.2c6.9-1.8,16.4-4.2,33-5.8C205.5,357.1,237,356,256,356z M457,244.4L457,244.4
	L457,244.4z M55.6,243.4L55.6,243.4z"/>
<path d="M456,416h-56c-8.8,0-16-7.2-16-16v-16c0-8.8,7.2-16,16-16h56c8.8,0,16,7.2,16,16v16C472,408.8,464.8,416,456,416z"/>
<path d="M112,416H56c-8.8,0-16-7.2-16-16v-16c0-8.8,7.2-16,16-16h56c8.8,0,16,7.2,16,16v16C128,408.8,120.8,416,112,416z"/>
<path d="M364.5,309.2c-5.9-6.8-25.2-12.5-50.7-16.4S279,288,256.2,288s-33.2,1.6-57.6,4.8s-42.8,8.8-50.7,16.4
	c-11.8,11.4,5.5,24.3,19.1,25.8c13.2,1.5,39.5,1,89.3,1s76.1,0.5,89.3-1C359.2,333.4,375.2,321.4,364.5,309.2z"/>
<path d="M431.6,243.1c-0.1-1.6-1.5-2.9-3.1-3c-11.8-0.4-23.8,0.4-45.1,6.7c-10.9,3.2-21,8.3-30.1,15.1c-2.3,1.8-1.5,6.6,1.4,7.1
	c17.5,2.1,35.2,3.1,52.8,3.1c10.6,0,21.5-3,23.5-12.4C432.1,254.1,432.3,248.5,431.6,243.1z"/>
<path d="M80.4,243.1c0.1-1.6,1.5-2.9,3.1-3c11.8-0.4,23.8,0.4,45.1,6.7c10.9,3.2,21,8.3,30.1,15.1c2.3,1.8,1.5,6.6-1.4,7.1
	c-17.5,2.1-35.2,3.1-52.8,3.1c-10.6,0-21.5-3-23.6-12.4C79.9,254.1,79.7,248.5,80.4,243.1z"/>
<path d="M448,208h-16c-8.8,0-16-7.2-16-16s7.2-16,16-16h16c8.8,0,16,7.2,16,16S456.8,208,448,208z"/>
<path d="M80,208H64c-8.8,0-16-7.2-16-16s7.2-16,16-16h16c8.8,0,16,7.2,16,16S88.8,208,80,208z"/>
<path d="M77.9,227c-7.1,0-13.6-4.8-15.5-12c-2.2-8.6,3-17.3,11.5-19.5c2-0.5,49.8-12.5,182-12.5s180,12,182,12.5
	c8.6,2.2,13.7,10.9,11.5,19.5c-2.2,8.6-10.9,13.7-19.5,11.5c-0.4-0.1-47.1-11.5-174-11.5c-126.9,0-173.6,11.4-174,11.5
	C80.6,226.9,79.3,227,77.9,227z"/>
</svg>
