<?xml version="1.0" encoding="utf-8"?>
<!-- Generator: Adobe Illustrator 25.4.1, SVG Export Plug-In . SVG Version: 6.00 Build 0)  -->
<svg version="1.1" id="Calque_1" xmlns="http://www.w3.org/2000/svg" xmlns:xlink="http://www.w3.org/1999/xlink" x="0px" y="0px"
	 viewBox="0 0 512 512" style="enable-background:new 0 0 512 512;" xml:space="preserve">
<path d="M408,432H104c-39.7,0-72-32.3-72-72V152c0-39.7,32.3-72,72-72h304c39.7,0,72,32.3,72,72v208C480,399.7,447.7,432,408,432z
	 M104,112c-22.1,0-40,17.9-40,40v208c0,22.1,17.9,40,40,40h304c22.1,0,40-17.9,40-40V152c0-22.1-17.9-40-40-40H104z"/>
<rect x="48" y="162" width="416" height="60"/>
<path d="M176,350h-48c-16.6,0-30-13.4-30-30v-20c0-16.6,13.4-30,30-30h48c16.6,0,30,13.4,30,30v20C206,336.6,192.6,350,176,350z"/>
</svg>
