<?xml version="1.0" encoding="utf-8"?>
<!-- Generator: Adobe Illustrator 25.4.1, SVG Export Plug-In . SVG Version: 6.00 Build 0)  -->
<svg version="1.1" id="Calque_1" xmlns="http://www.w3.org/2000/svg" xmlns:xlink="http://www.w3.org/1999/xlink" x="0px" y="0px"
	 viewBox="0 0 512 512" style="enable-background:new 0 0 512 512;" xml:space="preserve">
<path d="M464,352H48c-17.6,0-32-14.4-32-32V96c0-17.6,14.4-32,32-32h416c17.6,0,32,14.4,32,32v224C496,337.6,481.6,352,464,352z
	 M48,96v224h416c0,0,0,0,0,0l0-224H48z"/>
<path d="M448,400H64c-8.8,0-16-7.2-16-16s7.2-16,16-16h384c8.8,0,16,7.2,16,16S456.8,400,448,400z"/>
<path d="M416,448H96c-8.8,0-16-7.2-16-16s7.2-16,16-16h320c8.8,0,16,7.2,16,16S424.8,448,416,448z"/>
<path d="M256,304c-52.9,0-96-43.1-96-96s43.1-96,96-96s96,43.1,96,96S308.9,304,256,304z M256,144c-35.3,0-64,28.7-64,64
	s28.7,64,64,64c35.3,0,64-28.7,64-64S291.3,144,256,144z"/>
<path d="M480,176c-52.9,0-96-43.1-96-96c0-8.8,7.2-16,16-16s16,7.2,16,16c0,35.3,28.7,64,64,64c8.8,0,16,7.2,16,16
	S488.8,176,480,176z"/>
<path d="M32,176c-8.8,0-16-7.2-16-16s7.2-16,16-16c35.3,0,64-28.7,64-64c0-8.8,7.2-16,16-16s16,7.2,16,16C128,132.9,84.9,176,32,176
	z"/>
<path d="M400,352c-8.8,0-16-7.2-16-16c0-52.9,43.1-96,96-96c8.8,0,16,7.2,16,16c0,8.8-7.2,16-16,16c-35.3,0-64,28.7-64,64
	C416,344.8,408.8,352,400,352z"/>
<path d="M112,352c-8.8,0-16-7.2-16-16c0-35.3-28.7-64-64-64c-8.8,0-16-7.2-16-16c0-8.8,7.2-16,16-16c52.9,0,96,43.1,96,96
	C128,344.8,120.8,352,112,352z"/>
</svg>
