<?xml version="1.0" encoding="utf-8"?>
<!-- Generator: Adobe Illustrator 25.4.1, SVG Export Plug-In . SVG Version: 6.00 Build 0)  -->
<svg version="1.1" id="Calque_1" xmlns="http://www.w3.org/2000/svg" xmlns:xlink="http://www.w3.org/1999/xlink" x="0px" y="0px"
	 viewBox="0 0 512 512" style="enable-background:new 0 0 512 512;" xml:space="preserve">
<path d="M396,432H136c-36.4,0-70.4-12.6-95.5-35.4C14.4,372.9,0,340,0,304c0-36.6,13.4-68.1,38.7-91.2
	c19.9-18.2,47.1-30.6,77.4-35.4c9.4-24.6,25.2-46.9,45.2-63.6C187.8,91.7,220.5,80,256,80c40.4,0,78.4,15.2,107.1,42.9
	c27.1,26.1,44.6,61.3,51.1,102.5c49.3,7.3,97.8,40.8,97.8,102.6c0,33.4-12.2,60.8-35.4,79.2C456.2,423.4,428.4,432,396,432z
	 M256,112c-64.1,0-100.8,45.6-112.7,84.7c-1.9,6.2-7.3,10.6-13.7,11.3C82.4,212.6,32,240.4,32,304c0,54.7,44.7,96,104,96h260
	c25.3,0,84-7,84-72c0-53.5-50.8-70.5-80.8-72c-7.9-0.4-14.3-6.5-15.1-14.4C376.4,164.1,324.9,112,256,112z"/>
<path d="M209.2,352c-4.5,0-8.8-1.9-11.9-5.3l-46.2-51.2c-5.9-6.6-5.4-16.7,1.2-22.6c6.6-5.9,16.7-5.4,22.6,1.2l33.9,37.6l96-114
	c5.7-6.8,15.8-7.6,22.5-1.9c6.8,5.7,7.6,15.8,1.9,22.5l-107.8,128c-3,3.5-7.3,5.6-12,5.7C209.4,352,209.3,352,209.2,352z"/>
</svg>
