<?xml version="1.0" encoding="utf-8"?>
<!-- Generator: Adobe Illustrator 25.4.1, SVG Export Plug-In . SVG Version: 6.00 Build 0)  -->
<svg version="1.1" id="Calque_1" xmlns="http://www.w3.org/2000/svg" xmlns:xlink="http://www.w3.org/1999/xlink" x="0px" y="0px"
	 viewBox="0 0 512 512" style="enable-background:new 0 0 512 512;" xml:space="preserve">
<path d="M396,383.8h-76c-8.8,0-16-7.2-16-16s7.2-16,16-16h76c38.8,0,84-17.7,84-67.6c0-46.7-48.3-66-80.8-67.6
	c-7.9-0.4-14.3-6.5-15.1-14.3C376.4,129,325,79.8,256,79.8c-64.3,0-100.9,43.1-112.8,80.1c-2,6.1-7.4,10.4-13.7,11
	C81,175.5,32,205.3,32,261.4c0,51.5,44.7,90.4,104,90.4h56c8.8,0,16,7.2,16,16s-7.2,16-16,16h-56c-36.3,0-70.1-11.9-95.2-33.6
	C14.5,327.4,0,295.9,0,261.4c0-34.1,13.5-64.1,38.9-86.5c20.3-17.9,47.5-30,77.4-34.6c9.5-23.4,25.3-44.6,45.3-60.5
	c26.4-21,59-32,94.4-32c40.2,0,78.2,14.5,106.8,40.7c27.1,24.8,44.7,58.3,51.3,97.5c21.8,3.3,43,11.7,59.5,24
	c25.1,18.6,38.3,44.3,38.3,74.2c0,30.9-12.3,56.7-35.5,74.8C455.9,375,427.3,383.8,396,383.8z"/>
<path d="M320,271.8c-4.1,0-8.2-1.6-11.3-4.7L256,214.4l-52.7,52.7c-6.2,6.2-16.4,6.2-22.6,0c-6.2-6.2-6.2-16.4,0-22.6l64-64
	c6.2-6.2,16.4-6.2,22.6,0l64,64c6.2,6.2,6.2,16.4,0,22.6C328.2,270.2,324.1,271.8,320,271.8z"/>
<path d="M256,464.2c-8.8,0-16-7.2-16-16V207.8c0-8.8,7.2-16,16-16c8.8,0,16,7.2,16,16v240.4C272,457,264.8,464.2,256,464.2z"/>
</svg>
