<?xml version="1.0" encoding="utf-8"?>
<!-- Generator: Adobe Illustrator 25.4.1, SVG Export Plug-In . SVG Version: 6.00 Build 0)  -->
<svg version="1.1" id="Calque_1" xmlns="http://www.w3.org/2000/svg" xmlns:xlink="http://www.w3.org/1999/xlink" x="0px" y="0px"
	 viewBox="0 0 512 512" style="enable-background:new 0 0 512 512;" xml:space="preserve">
<path d="M376,432H116c-32.4,0-60.2-8.6-80.6-24.8C12.2,388.8,0,361.4,0,328c0-65,52.7-95.9,97.8-102.6h0c6.8-43.2,25.9-80,55-106.2
	C181,93.9,217.6,80,256,80c33.4,0,64.5,10.4,90.1,30.1c22,16.9,39.7,40.8,49.8,67.2c0,0.1,0.1,0.1,0.1,0.1
	c32.6,5.2,60.6,18.6,81,38.9c22.9,22.7,35,53.1,35,87.7c0,36-14.4,68.9-40.5,92.6C446.4,419.4,412.4,432,376,432z M256,112
	c-64.5,0-115.4,47.6-126.6,118.4c-2.2,13.8-13,24.5-26.8,26.6c0,0,0,0,0,0C68.4,262.1,32,283.4,32,328c0,65,58.7,72,84,72h260
	c59.3,0,104-41.3,104-96c0-75-68.2-91.7-89.1-95c-11.3-1.8-20.9-9.6-25-20.3C351.7,151.6,315.4,112,256,112z"/>
</svg>
