<?xml version="1.0" encoding="utf-8"?>
<!-- Generator: Adobe Illustrator 25.4.1, SVG Export Plug-In . SVG Version: 6.00 Build 0)  -->
<svg version="1.1" id="Calque_1" xmlns="http://www.w3.org/2000/svg" xmlns:xlink="http://www.w3.org/1999/xlink" x="0px" y="0px"
	 viewBox="0 0 512 512" style="enable-background:new 0 0 512 512;" xml:space="preserve">
<g>
	<circle cx="256" cy="256" r="31"/>
	<circle cx="346" cy="256" r="31"/>
	<circle cx="166" cy="256" r="31"/>
	<path d="M173.8,352.2L63.9,256l109.9-96.2c8.7-7.6,9.6-20.9,2-29.6c-7.6-8.7-20.9-9.6-29.6-2l-128,112c-4.6,4-7.2,9.7-7.2,15.8
		s2.6,11.8,7.2,15.8l128,112c4,3.5,8.9,5.2,13.8,5.2c5.8,0,11.7-2.4,15.8-7.2C183.4,373.1,182.6,359.8,173.8,352.2z"/>
	<path d="M493.8,240.2l-128-112c-8.7-7.6-22-6.8-29.6,2c-7.6,8.7-6.8,22,2,29.6L448.1,256l-109.9,96.2c-8.7,7.6-9.6,20.9-2,29.6
		c4.2,4.7,10,7.2,15.8,7.2c4.9,0,9.8-1.7,13.8-5.2l128-112c4.6-4,7.2-9.7,7.2-15.8S498.4,244.2,493.8,240.2z"/>
</g>
</svg>
