<?xml version="1.0" encoding="utf-8"?>
<!-- Generator: Adobe Illustrator 25.4.1, SVG Export Plug-In . SVG Version: 6.00 Build 0)  -->
<svg version="1.1" id="Calque_1" xmlns="http://www.w3.org/2000/svg" xmlns:xlink="http://www.w3.org/1999/xlink" x="0px" y="0px"
	 viewBox="0 0 512 512" style="enable-background:new 0 0 512 512;" xml:space="preserve">
<path d="M423.4,470.9c-12.2,0-24.3-4.6-33.6-13.9L167,234.2c-18.5-18.5-18.5-48.7,0-67.2l0,0c18.5-18.5,48.7-18.5,67.2,0L457,389.8
	c18.5,18.5,18.5,48.7,0,67.2C447.8,466.3,435.6,470.9,423.4,470.9z M189.6,189.6c-6,6-6,15.9,0,21.9l222.9,222.9
	c6.1,6.1,15.9,6.1,21.9,0s6-15.9,0-21.9L211.5,189.6C205.5,183.6,195.7,183.6,189.6,189.6L189.6,189.6z"/>
<path d="M178.4,178.4L178.4,178.4c-12.4,12.4-12.4,32.4,0,44.7c0,0,0,0,0,0l44.9,44.9l44.8-44.8l-44.9-44.9
	C210.8,166,190.7,166,178.4,178.4C178.4,178.4,178.4,178.4,178.4,178.4z"/>
<path d="M96,208H48c-8.8,0-16-7.2-16-16s7.2-16,16-16h48c8.8,0,16,7.2,16,16S104.8,208,96,208z"/>
<path d="M124.1,140.1c-4.1,0-8.2-1.6-11.3-4.7l-33.9-33.9c-6.2-6.2-6.2-16.4,0-22.6c6.2-6.2,16.4-6.2,22.6,0l33.9,33.9
	c6.2,6.2,6.2,16.4,0,22.6C132.3,138.6,128.2,140.1,124.1,140.1z"/>
<path d="M192,112c-8.8,0-16-7.2-16-16V48c0-8.8,7.2-16,16-16s16,7.2,16,16v48C208,104.8,200.8,112,192,112z"/>
<path d="M259.9,140.1c-4.1,0-8.2-1.6-11.3-4.7c-6.2-6.2-6.2-16.4,0-22.6l33.9-33.9c6.2-6.2,16.4-6.2,22.6,0c6.2,6.2,6.2,16.4,0,22.6
	l-33.9,33.9C268.1,138.6,264,140.1,259.9,140.1z"/>
<path d="M90.2,309.8c-4.1,0-8.2-1.6-11.3-4.7c-6.2-6.2-6.2-16.4,0-22.6l33.9-33.9c6.2-6.2,16.4-6.2,22.6,0c6.2,6.2,6.2,16.4,0,22.6
	l-33.9,33.9C98.4,308.3,94.3,309.8,90.2,309.8z"/>
</svg>
