<?xml version="1.0" encoding="utf-8"?>
<!-- Generator: Adobe Illustrator 25.4.1, SVG Export Plug-In . SVG Version: 6.00 Build 0)  -->
<svg version="1.1" id="Calque_1" xmlns="http://www.w3.org/2000/svg" xmlns:xlink="http://www.w3.org/1999/xlink" x="0px" y="0px"
	 viewBox="0 0 512 512" style="enable-background:new 0 0 512 512;" xml:space="preserve">
<path d="M440.1,129.2l-152-88.5c-19.8-11.6-44.5-11.6-64.3,0l-152,88.5C57.2,137.7,48,153.6,48,170.6v170.8c0,17,9.1,32.9,23.8,41.4
	l152,88.5c9.4,5.4,19.8,8.2,30.3,8.6c0.6,0.1,1.3,0.1,1.9,0.1c0.7,0,1.3-0.1,1.9-0.1c10.5-0.3,20.9-3.1,30.2-8.6l152-88.5
	c14.7-8.5,23.8-24.4,23.8-41.4V170.6C463.9,153.6,454.8,137.8,440.1,129.2z M239.9,68.3c5-2.9,10.5-4.3,16.1-4.3
	c5.5,0,11.1,1.5,16.1,4.3l143.2,83.4L256,245.4L96.7,151.7L239.9,68.3z M87.9,355.1C83,352.3,80,347,80,341.3V179l160,94.1v170.5
	c0,0-0.1,0-0.1-0.1L87.9,355.1z M424.1,355.1l-152,88.5c0,0-0.1,0-0.1,0.1V273.2L432,179v162.3C432,347,429,352.3,424.1,355.1z"/>
</svg>
