<?xml version="1.0" encoding="utf-8"?>
<!-- Generator: Adobe Illustrator 25.4.1, SVG Export Plug-In . SVG Version: 6.00 Build 0)  -->
<svg version="1.1" id="Calque_1" xmlns="http://www.w3.org/2000/svg" xmlns:xlink="http://www.w3.org/1999/xlink" x="0px" y="0px"
	 viewBox="0 0 512 512" style="enable-background:new 0 0 512 512;" xml:space="preserve">
<g>
	<path d="M104,224c16.9,0,32.4-5.9,44.7-15.7l41.6,16.9l6.8-12.7c1-1.8,3.1-5.1,4.3-6.3l14.3-14.4l-41.2-25c1-4.8,1.5-9.7,1.5-14.8
		c0-39.7-32.3-72-72-72s-72,32.3-72,72S64.3,224,104,224z M104,112c22.1,0,40,17.9,40,40c0,22.1-17.9,40-40,40s-40-17.9-40-40
		C64,129.9,81.9,112,104,112z"/>
	<path d="M479.8,169.2l-4.8-12.8c-8.8-23.6-56-19.9-82.5-14c-20.1,4.4-122.2,28.2-165,58.6c-20.3,14.4-24.1,33.7-27.1,49.2
		c-2.8,14.2-5,25.3-18,35c-14.9,11.1-27.2,16.3-33.5,18.6C136.6,293.9,121,288,104,288c-39.7,0-72,32.3-72,72s32.3,72,72,72
		s72-32.3,72-72c0-6.3-0.8-12.4-2.3-18.2L479.8,169.2z M256,256c-8.8,0-16-7.2-16-16s7.2-16,16-16s16,7.2,16,16S264.8,256,256,256z
		 M399.5,173.7c3.9-0.9,7.5-1.6,11-2.1L303.3,232c-1.7-10.2-6.7-19.4-13.7-26.3C323,192.8,365.4,181.3,399.5,173.7z M104,400
		c-22.1,0-40-17.9-40-40c0-22.1,17.9-40,40-40s40,17.9,40,40C144,382.1,126.1,400,104,400z"/>
	<path d="M344.3,259.8L260.5,308l27.6,13.1c1,0.4,2.2,1,3.6,1.7c18.7,9,68.5,33.1,119.3,36.1c3.6,0.2,7.4,0.4,11.3,0.4
		c13.2,0,27.4-1.8,38-9.3l20.7-14.7L344.3,259.8z M329.8,305.1l14.8-8.5l51.9,28.6C371.8,321.4,347.8,312.7,329.8,305.1z"/>
</g>
</svg>
