<?xml version="1.0" encoding="utf-8"?>
<!-- Generator: Adobe Illustrator 25.4.1, SVG Export Plug-In . SVG Version: 6.00 Build 0)  -->
<svg version="1.1" id="Calque_1" xmlns="http://www.w3.org/2000/svg" xmlns:xlink="http://www.w3.org/1999/xlink" x="0px" y="0px"
	 viewBox="0 0 512 512" style="enable-background:new 0 0 512 512;" xml:space="preserve">
<path d="M448,400H64c-26.5,0-48-21.5-48-48V96c0-26.5,21.5-48,48-48h384c26.5,0,48,21.5,48,48v256C496,378.5,474.5,400,448,400z
	 M64,80c-8.8,0-16,7.2-16,16v256c0,8.8,7.2,16,16,16h384c8.8,0,16-7.2,16-16V96c0-8.8-7.2-16-16-16H64z"/>
<g>
	<polygon points="304,448 296,384 216,384 208,448 	"/>
	<path d="M304,464h-96c-4.6,0-9-2-12-5.4c-3-3.4-4.5-8-3.9-12.6l8-64c1-8,7.8-14,15.9-14h80c8.1,0,14.9,6,15.9,14l8,64
		c0.6,4.6-0.8,9.1-3.9,12.6S308.6,464,304,464z M226.1,432h59.8l-4-32h-51.8L226.1,432z"/>
</g>
<path d="M368,464H144c-8.8,0-16-7.2-16-16s7.2-16,16-16h224c8.8,0,16,7.2,16,16S376.8,464,368,464z"/>
<path d="M32,304v48c0,17.7,14.3,32,32,32h384c17.7,0,32-14.3,32-32v-48H32z M256,368c-8.8,0-16-7.2-16-16s7.2-16,16-16
	c8.8,0,16,7.2,16,16S264.8,368,256,368z"/>
</svg>
