<?xml version="1.0" encoding="utf-8"?>
<!-- Generator: Adobe Illustrator 25.4.1, SVG Export Plug-In . SVG Version: 6.00 Build 0)  -->
<svg version="1.1" id="icons" xmlns="http://www.w3.org/2000/svg" xmlns:xlink="http://www.w3.org/1999/xlink" x="0px" y="0px"
	 viewBox="0 0 512 512" style="enable-background:new 0 0 512 512;" xml:space="preserve">
<path d="M256,480c-9.7,0-19.2-4.3-25.6-12.6L22.7,198c0,0,0,0,0,0c-8.2-10.7-8.9-25.5-1.9-36.9L91.3,47.3
	c5.9-9.5,16.1-15.3,27.4-15.3h274.6c11.3,0,21.5,5.7,27.4,15.3L491.1,161c7.1,11.4,6.3,26.3-1.9,36.9L281.5,467.4
	c-1.7,2.2-3.7,4.2-5.9,5.9C269.8,477.8,262.9,480,256,480z M48.1,178.5l207.7,269.4c0.1,0.1,0.2,0.1,0.3,0.1l207.8-269.5
	c0.1-0.1,0.1-0.4,0-0.6L393.5,64.1c-0.1-0.1-0.1-0.1-0.2-0.1H118.7c-0.1,0-0.1,0-0.2,0.1L48.1,177.9C48,178.1,48,178.3,48.1,178.5z"
	/>
<path d="M464,192H48c-8.8,0-16-7.2-16-16s7.2-16,16-16h416c8.8,0,16,7.2,16,16S472.8,192,464,192z"/>
<path d="M352,192c-5,0-9.8-2.3-12.8-6.4l-96-128c-5.3-7.1-3.9-17.1,3.2-22.4c7.1-5.3,17.1-3.9,22.4,3.2l79.4,105.9l37.1-86.6
	c3.5-8.1,12.9-11.9,21-8.4c8.1,3.5,11.9,12.9,8.4,21l-48,112c-2.2,5.3-7.1,8.9-12.8,9.6C353.3,192,352.6,192,352,192z"/>
<path d="M160,192c-0.6,0-1.3,0-1.9-0.1c-5.7-0.7-10.6-4.3-12.8-9.6l-48-112c-3.5-8.1,0.3-17.5,8.4-21c8.1-3.5,17.5,0.3,21,8.4
	l37.1,86.6l79.4-105.9c5.3-7.1,15.3-8.5,22.4-3.2c7.1,5.3,8.5,15.3,3.2,22.4l-96,128C169.8,189.7,165,192,160,192z"/>
<path d="M256,464c-6.6,0-12.8-4.1-15.1-10.7l-96-272c-2.9-8.3,1.4-17.5,9.8-20.4c8.3-2.9,17.5,1.4,20.4,9.8l96,272
	c2.9,8.3-1.4,17.5-9.8,20.4C259.6,463.7,257.8,464,256,464z"/>
<path d="M256,464c-1.8,0-3.6-0.3-5.3-0.9c-8.3-2.9-12.7-12.1-9.8-20.4l96-272c2.9-8.3,12.1-12.7,20.4-9.8
	c8.3,2.9,12.7,12.1,9.8,20.4l-96,272C268.8,459.9,262.6,464,256,464z"/>
</svg>
