<?xml version="1.0" encoding="utf-8"?>
<!-- Generator: Adobe Illustrator 25.4.1, SVG Export Plug-In . SVG Version: 6.00 Build 0)  -->
<svg version="1.1" id="Calque_1" xmlns="http://www.w3.org/2000/svg" xmlns:xlink="http://www.w3.org/1999/xlink" x="0px" y="0px"
	 viewBox="0 0 512 512" style="enable-background:new 0 0 512 512;" xml:space="preserve">
<path d="M256,479.9c-11.1,0-22.2-2.9-32.2-8.6l-152-88.5C57.1,374.3,48,358.4,48,341.4V170.6c0-17,9.2-32.9,23.8-41.4l152-88.5
	c19.8-11.6,44.5-11.6,64.3,0l152,88.5c14.7,8.6,23.8,24.4,23.8,41.4v170.8c0,0,0,0,0,0c0,17-9.1,32.9-23.8,41.4l-152,88.5
	C278.3,477.1,267.1,479.9,256,479.9z M256,64c-5.6,0-11.1,1.4-16.1,4.3l-152,88.5c-4.9,2.8-7.9,8.1-7.9,13.8v170.7
	c0,5.7,3,11,7.9,13.8l152,88.5c9.9,5.8,22.2,5.8,32.2,0l152-88.5c4.9-2.8,7.9-8.1,7.9-13.8V170.6c0-5.6-3.1-10.9-7.9-13.8l-152-88.5
	C267.1,65.5,261.5,64,256,64z M448,341.4L448,341.4L448,341.4z"/>
<path d="M256,280c-2.8,0-5.6-0.7-8.1-2.2l-187-110c-7.6-4.5-10.2-14.3-5.7-21.9s14.3-10.2,21.9-5.7L256,245.4l178.9-105.2
	c7.6-4.5,17.4-1.9,21.9,5.7s1.9,17.4-5.7,21.9l-187,110C261.6,279.3,258.8,280,256,280z"/>
<path d="M256,480c-8.8,0-16-7.2-16-16V264c0-8.8,7.2-16,16-16c8.8,0,16,7.2,16,16v200C272,472.8,264.8,480,256,480z"/>
<ellipse cx="256" cy="152" rx="24" ry="16"/>
<ellipse cx="208" cy="296" rx="16" ry="24"/>
<ellipse cx="112" cy="328" rx="16" ry="24"/>
<ellipse cx="304" cy="296" rx="16" ry="24"/>
<ellipse cx="400" cy="240" rx="16" ry="24"/>
<ellipse cx="304" cy="384" rx="16" ry="24"/>
<ellipse cx="400" cy="328" rx="16" ry="24"/>
</svg>
