<?xml version="1.0" encoding="utf-8"?>
<!-- Generator: Adobe Illustrator 25.4.1, SVG Export Plug-In . SVG Version: 6.00 Build 0)  -->
<svg version="1.1" id="Calque_1" xmlns="http://www.w3.org/2000/svg" xmlns:xlink="http://www.w3.org/1999/xlink" x="0px" y="0px"
	 viewBox="0 0 512 512" style="enable-background:new 0 0 512 512;" xml:space="preserve">
<path d="M293,496H107c-32.5,0-59-26.9-59-60V172c0.2-32.9,27.1-59.8,59.9-60l94.2,0c10.8,0,21.4,4.4,28.9,12.2l109.1,111
	c7.6,7.8,11.8,18.1,11.8,29V436C352,469.1,325.6,496,293,496z M108,144c-15.3,0.1-27.9,12.7-28,28.1L80,436c0,15.4,12.1,28,27,28
	h186c14.9,0,27-12.6,27-28V264.1c0,0,0,0,0,0c0-2.5-1-4.8-2.7-6.6l-109.1-111c-1.6-1.6-3.8-2.6-6.1-2.6H108z"/>
<path d="M336,280H228c-0.1,0-0.1,0-0.2,0c-11.6-0.1-22.6-4.8-30.8-13c-8.2-8.2-12.8-19.2-13-30.8c0-0.1,0-0.1,0-0.2V128
	c0-8.8,7.2-16,16-16s16,7.2,16,16v107.9c0.1,6.7,5.4,12,12.1,12.1H336c8.8,0,16,7.2,16,16C352,272.8,344.8,280,336,280z"/>
<path d="M405,400h-61v-32h61c14.9,0,27-12.6,27-28V168c0-2.4-0.9-4.7-2.6-6.4l-109.2-111c-1.6-1.6-3.9-2.6-6.2-2.6h-94
	c-15.3,0.1-27.9,12.7-28,28.1l0,51.9h-32V76c0.2-32.9,27.1-59.8,59.9-60l94.1,0c10.8,0,21.4,4.4,29,12.1l109.2,111
	c7.6,7.7,11.8,18,11.8,28.9v172C464,373.1,437.6,400,405,400z"/>
<path d="M448,184H340c-0.1,0-0.1,0-0.2,0c-11.6-0.1-22.6-4.8-30.8-13c-8.2-8.2-12.8-19.2-13-30.8c0-0.1,0-0.1,0-0.2V32
	c0-8.8,7.2-16,16-16s16,7.2,16,16v107.9c0.1,6.7,5.4,12,12.1,12.1H448c8.8,0,16,7.2,16,16S456.8,184,448,184z"/>
</svg>
