<?xml version="1.0" encoding="utf-8"?>
<!-- Generator: Adobe Illustrator 25.4.1, SVG Export Plug-In . SVG Version: 6.00 Build 0)  -->
<svg version="1.1" id="Calque_1" xmlns="http://www.w3.org/2000/svg" xmlns:xlink="http://www.w3.org/1999/xlink" x="0px" y="0px"
	 viewBox="0 0 512 512" style="enable-background:new 0 0 512 512;" xml:space="preserve">
<path d="M368,480H144c-35.3,0-64-28.7-64-64V96c0-35.3,28.7-64,64-64h98.8c12.8,0,24.9,5,33.9,14.1l141.3,141.3
	c9.1,9.1,14.1,21.1,14.1,33.9c0,0,0,0,0,0V416C432,451.3,403.3,480,368,480z M144,64c-17.6,0-32,14.4-32,32v320
	c0,17.6,14.4,32,32,32h224c17.6,0,32-14.4,32-32V221.3c0-4.3-1.7-8.3-4.7-11.3L254.1,68.7c-3-3-7-4.7-11.3-4.7H144z"/>
<path d="M408,224H288c-26.5,0-48-21.5-48-48V56c0-8.8,7.2-16,16-16c8.8,0,16,7.2,16,16v120c0,8.8,7.2,16,16,16h120
	c8.8,0,16,7.2,16,16S416.8,224,408,224z"/>
</svg>
