<?xml version="1.0" encoding="utf-8"?>
<!-- Generator: Adobe Illustrator 25.4.1, SVG Export Plug-In . SVG Version: 6.00 Build 0)  -->
<svg version="1.1" id="icons" xmlns="http://www.w3.org/2000/svg" xmlns:xlink="http://www.w3.org/1999/xlink" x="0px" y="0px"
	 viewBox="0 0 512 512" style="enable-background:new 0 0 512 512;" xml:space="preserve">
<path d="M288,320c-8.8,0-16-7.2-16-16v-18c0-7.7-7.2-14-16-14s-16,6.3-16,14v18c0,8.8-7.2,16-16,16s-16-7.2-16-16v-18
	c0-25.4,21.5-46,48-46c26.5,0,48,20.6,48,46v18C304,312.8,296.8,320,288,320z"/>
<path d="M304,416h-96c-17.7,0-32-14.3-32-32v-48c0-17.7,14.3-32,32-32h96c17.7,0,32,14.3,32,32v48C336,401.7,321.7,416,304,416z"/>
<path d="M368,480H144c-35.3,0-64-28.7-64-64V96c0-35.3,28.7-64,64-64h98.8c12.8,0,24.9,5,33.9,14.1l141.3,141.3
	c9.1,9.1,14.1,21.1,14.1,33.9c0,0,0,0,0,0V416C432,451.3,403.3,480,368,480z M144,64c-17.6,0-32,14.4-32,32v320
	c0,17.6,14.4,32,32,32h224c17.6,0,32-14.4,32-32V221.3c0-4.3-1.7-8.3-4.7-11.3L254.1,68.7c-3-3-7-4.7-11.3-4.7H144z"/>
<path d="M413.1,224H288c-26.5,0-48-21.5-48-48V50.9c0-8.8,7.2-16,16-16c8.8,0,16,7.2,16,16V176c0,8.8,7.2,16,16,16h125.1
	c8.8,0,16,7.2,16,16S422,224,413.1,224z"/>
</svg>
