<?xml version="1.0" encoding="utf-8"?>
<!-- Generator: Adobe Illustrator 25.4.1, SVG Export Plug-In . SVG Version: 6.00 Build 0)  -->
<svg version="1.1" id="Calque_1" xmlns="http://www.w3.org/2000/svg" xmlns:xlink="http://www.w3.org/1999/xlink" x="0px" y="0px"
	 viewBox="0 0 512 512" style="enable-background:new 0 0 512 512;" xml:space="preserve">
<path d="M400,496H192c-35.3,0-64-28.7-64-64V304c0-8.8,7.2-16,16-16s16,7.2,16,16v128c0,17.6,14.4,32,32,32h208
	c17.6,0,32-14.4,32-32V237.2c0-4.3-1.7-8.3-4.7-11.3L286.1,84.7c-3-3-7-4.7-11.3-4.7H208c-8.8,0-16-7.2-16-16s7.2-16,16-16h66.8
	c12.8,0,24.9,5,33.9,14.1l141.3,141.3c9.1,9.1,14.1,21.1,14.1,33.9V432C464,467.3,435.3,496,400,496z"/>
<path d="M440,240H320c-26.5,0-48-21.5-48-48V72c0-8.8,7.2-16,16-16s16,7.2,16,16v120c0,8.8,7.2,16,16,16h120c8.8,0,16,7.2,16,16
	S448.8,240,440,240z"/>
<path d="M136,320c-51,0-88-39.5-88-93.9V144c0-8.8,7.2-16,16-16s16,7.2,16,16v82.1c0,29.8,17.5,61.9,56,61.9s56-32.1,56-61.9V87.4
	c0-9.2-2.3-39.4-32-39.4c-23.6,0-32,20.7-32,40v144c0,6.6,5.8,8,8,8l0.4,0c4.3-0.1,7.7-3.6,7.6-7.8l0-0.2V80c0-8.8,7.2-16,16-16
	s16,7.2,16,16v151.9c0.2,21.8-17.3,39.8-39.2,40.1c-0.3,0-0.6,0-0.9,0c-19.6-0.1-39.9-15-39.9-40V88c0-42.4,26.3-72,64-72
	c19.6,0,36.7,7.9,48.2,22.2C218.6,51,224,68,224,87.4v138.8C224,280.5,187,320,136,320z"/>
</svg>
