<?xml version="1.0" encoding="utf-8"?>
<!-- Generator: Adobe Illustrator 25.4.1, SVG Export Plug-In . SVG Version: 6.00 Build 0)  -->
<svg version="1.1" id="Calque_1" xmlns="http://www.w3.org/2000/svg" xmlns:xlink="http://www.w3.org/1999/xlink" x="0px" y="0px"
	 viewBox="0 0 512 512" style="enable-background:new 0 0 512 512;" xml:space="preserve">
<path d="M256,480c-59.8,0-116.1-23.3-158.4-65.6C55.3,372.1,32,315.8,32,256S55.3,139.9,97.6,97.6C139.9,55.3,196.2,32,256,32
	s116.1,23.3,158.4,65.6C456.7,139.9,480,196.2,480,256s-23.3,116.1-65.6,158.4C372.1,456.7,315.8,480,256,480z M256,64
	C150.1,64,64,150.1,64,256s86.1,192,192,192s192-86.1,192-192S361.9,64,256,64z"/>
<path d="M445.6,172.1c-16.1,0.1-14.5,29.7-34.5,15.8c-7.4-5.2-12-12.7-21.3-15c-8.1-2-16.5,0.1-24.5,1.5c-9.1,1.6-20,2.3-26.9,9.2
	c-6.7,6.7-10.3,15.6-17.4,22.3c-13.8,13-19.6,27.2-10.7,45.6c8.6,17.7,26.6,27.3,46,26c19.1-1.3,38.9-12.3,38.3,15.4
	c-0.2,9.8,1.9,16.6,4.9,25.7c2.8,8.4,2.6,16.5,3.2,25.2c1.2,16.2,4.2,34.4,12.2,48.7l15-21.2c1.9-2.6,5.7-6.3,6.6-9.4
	c1.6-5.5-1.6-14.9-2-21s-0.2-12.3-1.1-18.5c-1.3-8.6-6.4-16.6-7.1-25.1c-1.3-15.8,1.6-28.4-10.6-41.6c-11.8-12.8-29-15.8-45.5-13.2
	c-8.3,1.3-41.7,6.6-28.3-12.3c2.6-3.7,7.3-6.8,10.3-10.3c2.6-3.1,4.8-8.8,7.9-11.2s17-5.2,21-3.9s8.2,7,11.6,9.6
	c6.4,4.8,13.9,8,21.8,9.4c13.7,2,42.2-5.9,42-23.5C456.5,191.7,448.6,180,445.6,172.1z"/>
<path d="M287.5,316.3c-5.3-22.4-35.8-29.9-52.3-42.1c-9.4-7-17.9-17.8-30.3-18.7c-5.7-0.4-10.5,0.8-16.2-0.6
	c-5.2-1.3-9.3-4.1-14.8-3.4c-10.4,1.4-16.9,12.4-28,10.9c-10.6-1.4-21.4-13.8-23.8-23.8c-3.1-12.9,7.1-17.1,18.1-18.3
	c4.6-0.5,9.7-1,14.1,0.7c5.8,2.1,8.5,7.8,13.7,10.7c9.7,5.3,11.7-3.2,10.2-11.8c-2.2-12.9-4.8-18.2,6.7-27.1
	c8-6.1,14.8-10.6,13.6-21.6c-0.8-6.5-4.3-9.4-1-15.9c2.5-4.9,9.4-9.3,13.9-12.3c11.6-7.6,49.7-7,34.1-28.2c-4.6-6.2-13-17.3-21-18.8
	c-10-1.9-14.4,9.3-21.4,14.2c-7.2,5.1-21.2,10.9-28.4,3c-9.7-10.6,6.4-14.1,10-21.5s-8.3-21.4-14.6-24.9l-29.8,33.4
	c-1.7,11.3,1.3,22.8,8.3,31.9c5.9,7.6,15.4,10.1,15.8,20.5c0.4,10-1.1,15.1-7.7,22.1c-2.8,3-4.8,7.3-7.7,10.1
	c-3.5,3.4-2.2,2.4-7.7,3.3c-10.4,1.8-19.2,4.4-29.2,7.2c-16.7,4.6-18.2-22.6-25.8-33.3l-25,20.2c-0.3,3.3,4.1,9.4,5.3,13
	c6.8,20.6,20.6,36.5,29.5,56.2c9.4,20.8,34.5,15.1,45.6,33.3c9.9,16.2-0.7,36.7,6.7,53.7c5.4,12.3,18,15,26.7,24
	c8.9,9.1,8.7,21.5,10.1,33.4c1.5,13.9,4,27.7,7.4,41.3c1.2,4.7,2.3,10.9,5.5,14.8c2.2,2.7,9.8,5,6.7,5.8c4.3,0.7,11.9,4.7,15.4,1.8
	c4.7-3.8,3.4-15.7,4.2-21c2.4-15.9,10.4-31.5,21.1-43.4c10.6-11.7,25.1-19.7,34.1-33C288.4,349,291.1,331.5,287.5,316.3z
	 M254.1,342.6c-6,10.7-19.4,17.9-27.9,26.4c-2.3,2.3-7.3,10.3-10.2,8.6c-2.1-1.2-2.8-11.6-3.6-14c-4-12-11.6-22.4-21.7-30
	c-3.1-2.4-10.9-5.5-12.7-8.7c-2-3.5-0.2-11.9-0.1-15.7c0.1-5.6-2.4-14.9-1.1-20c1.6-5.9-1.5-2.3,3.8-3.5c2.8-0.6,14.2,1.4,17.7,2.1
	c5.5,1.1,8.5,4.5,12.8,8c11.4,9.1,23.9,16.2,36.6,23.1C257.5,324.5,260.4,331.4,254.1,342.6L254.1,342.6z"/>
<path d="M184.5,67.1c4.7,4.6,9.2,10.1,16.3,10.6c6.7,0.4,13-3.2,18.8,1.4c6.5,5,11.1,11.3,19.8,12.9c8.3,1.5,17.1-3.3,19.2-11.9
	c2-8.1-2.3-16.9-2.6-25.1c0-1.1,0.6-6.2-0.2-7c-0.6-0.6-5.4,0.1-6.2,0.1c-5.4,0.2-10.8,0.5-16.2,1.1c-19.7,2.1-38.9,7.1-57.2,14.6
	C178.6,65.6,181.7,66.2,184.5,67.1z"/>
<path d="M356.4,123.3c8.5,0,17.1-3.8,14.4-13.6c-2.3-8.2-6.2-17.2-15.8-12.7c-6.1,2.8-14.7,10-15.4,17.1
	C338.8,122.1,350.7,123.3,356.4,123.3z"/>
<path d="M349.6,166.2c8.7,5.2,21.5,2.8,28.1-4.7c5.1-5.8,8.1-15.9,17.3-15.9c4,0,7.9,1.6,10.8,4.4c3.8,3.9,3,7.6,3.9,12.5
	c1.8,11.1,13.7,0.6,16.8-3.6c2-2.8,4.7-6.9,3.8-10.6c-0.8-3.4-4.8-7-6.6-10.1c-5.1-9-9.4-19.5-17.1-26.7c-7.4-7-16.5-6.2-23.5,1.1
	c-5.8,6-12.5,10.8-16.4,18c-2.8,5.1-5.9,7.6-11.5,8.9c-3.1,0.7-6.6,1-9.2,3.1C338.6,148.4,342.8,162.1,349.6,166.2z"/>
</svg>
