<?xml version="1.0" encoding="utf-8"?>
<!-- Generator: Adobe Illustrator 25.4.1, SVG Export Plug-In . SVG Version: 6.00 Build 0)  -->
<svg version="1.1" id="Calque_1" xmlns="http://www.w3.org/2000/svg" xmlns:xlink="http://www.w3.org/1999/xlink" x="0px" y="0px"
	 viewBox="0 0 512 512" style="enable-background:new 0 0 512 512;" xml:space="preserve">
<path d="M256,480c-52.6,0-96.7-17.5-127.7-50.7C96.7,395.4,80,346.1,80,286.5c0-56,21.5-118.6,58.9-171.6c36.7-52,80.5-83,117.1-83
	s80.4,31,117.1,83c37.5,53,58.9,115.5,58.9,171.6c0,59.5-16.7,108.9-48.3,142.7C352.7,462.5,308.6,480,256,480z M256,64
	c-51.6,0-144,112.2-144,222.5C112,389.2,164.5,448,256,448c91.5,0,144-58.8,144-161.5C400,176.2,307.6,64,256,64z"/>
</svg>
