<?xml version="1.0" encoding="utf-8"?>
<!-- Generator: Adobe Illustrator 25.4.1, SVG Export Plug-In . SVG Version: 6.00 Build 0)  -->
<svg version="1.1" id="Calque_1" xmlns="http://www.w3.org/2000/svg" xmlns:xlink="http://www.w3.org/1999/xlink" x="0px" y="0px"
	 viewBox="0 0 512 512" style="enable-background:new 0 0 512 512;" xml:space="preserve">
<path d="M256,304c-26.5,0-48-21.5-48-48c0-26.5,21.5-48,48-48c26.5,0,48,21.5,48,48C304,282.5,282.5,304,256,304z M256,240
	c-8.8,0-16,7.2-16,16s7.2,16,16,16s16-7.2,16-16S264.8,240,256,240z"/>
<path d="M256,464c-26.5,0-48-21.5-48-48s21.5-48,48-48c26.5,0,48,21.5,48,48S282.5,464,256,464z M256,400c-8.8,0-16,7.2-16,16
	s7.2,16,16,16s16-7.2,16-16S264.8,400,256,400z"/>
<path d="M256,144c-26.5,0-48-21.5-48-48s21.5-48,48-48c26.5,0,48,21.5,48,48S282.5,144,256,144z M256,80c-8.8,0-16,7.2-16,16
	s7.2,16,16,16s16-7.2,16-16S264.8,80,256,80z"/>
</svg>
