<?xml version="1.0" encoding="utf-8"?>
<!-- Generator: Adobe Illustrator 25.4.1, SVG Export Plug-In . SVG Version: 6.00 Build 0)  -->
<svg version="1.1" id="Calque_1" xmlns="http://www.w3.org/2000/svg" xmlns:xlink="http://www.w3.org/1999/xlink" x="0px" y="0px"
	 viewBox="0 0 512 512" style="enable-background:new 0 0 512 512;" xml:space="preserve">
<polygon points="448,448 304,448 304,416 416,416 416,304 448,304 "/>
<rect x="346.9" y="263.6" transform="matrix(0.707 -0.7072 0.7072 0.707 -150.3074 362.9631)" width="32" height="198.6"/>
<polygon points="96,208 64,208 64,64 208,64 208,96 96,96 "/>
<rect x="133.1" y="49.8" transform="matrix(0.707 -0.7072 0.7072 0.707 -61.7698 149.1312)" width="32" height="198.6"/>
<polygon points="448,208 416,208 416,96 304,96 304,64 448,64 "/>
<rect x="263.6" y="133.1" transform="matrix(0.707 -0.7072 0.7072 0.707 0.8747 300.3116)" width="198.6" height="32"/>
<polygon points="208,448 64,448 64,304 96,304 96,416 208,416 "/>
<rect x="49.8" y="346.9" transform="matrix(0.707 -0.7072 0.7072 0.707 -212.9552 211.7819)" width="198.6" height="32"/>
</svg>
