<?xml version="1.0" encoding="utf-8"?>
<!-- Generator: Adobe Illustrator 25.4.1, SVG Export Plug-In . SVG Version: 6.00 Build 0)  -->
<svg version="1.1" id="Calque_1" xmlns="http://www.w3.org/2000/svg" xmlns:xlink="http://www.w3.org/1999/xlink" x="0px" y="0px"
	 viewBox="0 0 512 512" style="enable-background:new 0 0 512 512;" xml:space="preserve">
<path d="M345.1,480H274c-9.9,0-18-8.1-18-18v-27.7c0-11-5.3-18.4-9.7-22.8c-7.8-7.6-19-11.8-30.9-11.5
	c-21.3,0.5-39.4,19.3-39.4,41.1V462c0,9.9-8.1,18-18,18H87.6C57,479.9,32.1,455,32,424.4V354c0-9.9,8.1-18,18-18h27.7
	c9.2,0,18.1-3.9,25.1-11c7.9-8,12.4-18.9,12.2-29.9c-0.3-21.2-17.7-39.1-38.1-39.1H50c-9.9,0-18-8.1-18-18v-70.4
	c0.1-30.6,25-55.5,55.6-55.6h63.3V97.5c0-0.4,0-0.8,0-1.1c0.6-36.1,30.5-65,66.7-64.4c35.5,0.6,64.4,30.4,64.4,66.3V112h63.2
	c30.2,0,54.9,24.6,54.9,54.9v63.2h13.7c36.6,0,66.3,29,66.3,64.6c0,36.6-29.4,66.4-65.5,66.4H400v64C400,455.4,375.4,480,345.1,480z
	 M64,368v56.4c0,13,10.7,23.6,23.7,23.6H144v-6.9c0-18.8,7.3-36.8,20.6-50.7c13.4-14,31.2-21.9,50-22.4c20.4-0.5,40.1,7,54,20.6
	c12.5,12.2,19.3,28.4,19.3,45.6V448h57.1c12.6,0,22.9-10.3,22.9-22.9v-78c0-9.9,8.1-18,18-18h28.5c18.5,0,33.5-15.4,33.5-34.4
	c0-18-15.4-32.6-34.3-32.6H386c-9.9,0-18-8.1-18-18v-77.2c0-12.6-10.3-22.9-22.9-22.9h-77.2c-9.9,0-18-8.1-18-18V98.3
	c0-18.6-14.8-34-32.9-34.3c-9-0.1-17.4,3.2-23.9,9.4c-6.4,6.2-10.1,14.6-10.2,23.5l0,0.6V126c0,9.9-8.1,18-18,18H87.6
	c-13,0-23.6,10.7-23.6,23.7V224h12.9c18.5,0,36,7.5,49.4,21.2c13.1,13.4,20.5,31,20.7,49.4c0.3,19.5-7.5,38.7-21.4,52.8
	C112.5,360.7,95.5,368,77.7,368H64z"/>
</svg>
