<?xml version="1.0" encoding="utf-8"?>
<!-- Generator: Adobe Illustrator 25.4.1, SVG Export Plug-In . SVG Version: 6.00 Build 0)  -->
<svg version="1.1" id="Calque_1" xmlns="http://www.w3.org/2000/svg" xmlns:xlink="http://www.w3.org/1999/xlink" x="0px" y="0px"
	 viewBox="0 0 512 512" style="enable-background:new 0 0 512 512;" xml:space="preserve">
<path d="M48,480c-4.2,0-8.3-1.7-11.4-4.7c-3.7-3.7-5.3-8.9-4.4-14c0.1-0.6,2.5-14.5,6.6-30.2c8-31.2,15.2-41,19.8-45.6l192.5-192.5
	c6.2-6.2,16.4-6.2,22.6,0c6.2,6.2,6.2,16.4,0,22.6L81.3,408c-3.3,3.5-8.4,18-12.6,35.4c17.3-4.2,31.8-9.3,35.3-12.7l192.5-192.5
	c6.2-6.2,16.4-6.2,22.6,0c6.2,6.2,6.2,16.4,0,22.6L126.6,453.3c-4.8,4.8-14.8,12.1-45.9,20c-15.7,4-29.5,6.3-30.1,6.4
	C49.8,479.9,48.9,480,48,480z"/>
<path d="M353.1,297.5c-12.3,0-24.6-4.7-34-14l-90.6-90.6c-18.7-18.7-18.7-49.2,0-67.9c18.7-18.7,49.2-18.7,67.9,0l90.6,90.6
	c18.7,18.7,18.7,49.2,0,67.9C377.7,292.8,365.4,297.5,353.1,297.5z M262.5,142.9c-4.1,0-8.2,1.6-11.3,4.7c-6.2,6.2-6.2,16.4,0,22.7
	l90.6,90.6c6.3,6.2,16.4,6.3,22.7,0c6.2-6.2,6.2-16.4,0-22.7l-90.6-90.6C270.7,144.5,266.6,142.9,262.5,142.9z"/>
<path d="M371,238.1c-6.6,0-12.8-4.1-15.1-10.7c-4-11.5-6.1-35.9,11.9-53.8c0.5-0.5,1-0.9,1.5-1.3l69.8-54c5.7-6,8.9-13.6,8.9-21.7
	c0-8.6-3.4-16.7-9.6-22.9c-6.2-6.2-14.8-9.7-23.5-9.6c-8,0.1-15.5,3.2-21.1,8.8l-54.1,69.9c-0.4,0.5-0.9,1-1.3,1.5
	c-19.1,19.1-43.4,16.2-54.7,11.5l12.3-29.5l-0.2-0.1c1.8,0.7,11.2,3.6,19.4-3.9l54-69.7c0.3-0.4,0.7-0.8,1.1-1.2
	c11.6-12.2,27.4-19,44.4-19.2c17.3-0.2,34.2,6.7,46.5,19c12.3,12.3,19,28.5,18.9,45.6c0,17-6.8,32.9-19,45c-0.5,0.5-0.9,0.9-1.5,1.3
	l-69.7,53.9c-7.5,8.3-3.7,19.9-3.7,20c2.9,8.3-1.5,17.5-9.8,20.4C374.5,237.8,372.7,238.1,371,238.1z"/>
<path d="M90.8,465.4c-10.6,0-21.8-3.3-31.4-12.8c-21.6-21.6-11.3-51.7-2.8-64.7l26.8,17.5l0.1-0.1c-0.1,0.2-10,16-1.4,24.6
	c8.6,8.6,24.4-1.3,24.6-1.4l-0.1,0.1l17.5,26.8C116.9,460.1,104.3,465.4,90.8,465.4z"/>
</svg>
