<?xml version="1.0" encoding="utf-8"?>
<!-- Generator: Adobe Illustrator 25.4.1, SVG Export Plug-In . SVG Version: 6.00 Build 0)  -->
<svg version="1.1" id="Calque_1" xmlns="http://www.w3.org/2000/svg" xmlns:xlink="http://www.w3.org/1999/xlink" x="0px" y="0px"
	 viewBox="0 0 512 512" style="enable-background:new 0 0 512 512;" xml:space="preserve">
<path d="M96,448c-35.2-0.1-63.9-28.8-64-64V272c0-1.1,0.1-2.2,0.3-3.3l32-151.9c3.2-16.6,10.5-29.7,21.6-38.9
	C97,68.7,111.2,64,128,64h256c33.7,0,57.5,19.8,63.7,52.9l32,151.8c0.2,1.1,0.3,2.2,0.3,3.3v112c-0.1,35.2-28.8,63.9-64,64H96z
	 M64,273.7V384c0.1,17.6,14.4,31.9,32,32h320c17.6-0.1,31.9-14.4,32-32V273.7l-31.7-150.4c0-0.1-0.1-0.3-0.1-0.4
	C412.9,104.6,402.6,96,384,96H128c-18.5,0-28.7,8.6-32.3,27c0,0.1,0,0.2-0.1,0.3L64,273.7z"/>
<path d="M192,288H48c-8.8,0-16-7.2-16-16s7.2-16,16-16h144c8.8,0,16,7.2,16,16S200.8,288,192,288z"/>
<path d="M464,288H320c-8.8,0-16-7.2-16-16s7.2-16,16-16h144c8.8,0,16,7.2,16,16S472.8,288,464,288z"/>
<path d="M256,352c-44.1,0-80-35.9-80-80c0-8.8,7.2-16,16-16s16,7.2,16,16c0,26.5,21.5,48,48,48c26.5,0,48-21.5,48-48
	c0-8.8,7.2-16,16-16s16,7.2,16,16C336,316.1,300.1,352,256,352z"/>
<path d="M368,160H144c-8.8,0-16-7.2-16-16s7.2-16,16-16h224c8.8,0,16,7.2,16,16S376.8,160,368,160z"/>
<path d="M384,224H128c-8.8,0-16-7.2-16-16s7.2-16,16-16h256c8.8,0,16,7.2,16,16S392.8,224,384,224z"/>
</svg>
