<?xml version="1.0" encoding="utf-8"?>
<!-- Generator: Adobe Illustrator 25.4.1, SVG Export Plug-In . SVG Version: 6.00 Build 0)  -->
<svg version="1.1" id="Calque_1" xmlns="http://www.w3.org/2000/svg" xmlns:xlink="http://www.w3.org/1999/xlink" x="0px" y="0px"
	 viewBox="0 0 512 512" style="enable-background:new 0 0 512 512;" xml:space="preserve">
<path d="M436,432H76c-24.3,0-44-19.7-44-44V124c0-24.3,19.7-44,44-44h360c24.3,0,44,19.7,44,44v264C480,412.3,460.3,432,436,432z
	 M76,112c-6.6,0-12,5.4-12,12v264c0,6.6,5.4,12,12,12h360c6.6,0,12-5.4,12-12V124c0-6.6-5.4-12-12-12H76z"/>
<path d="M436,432h-24c-24.3,0-44-19.7-44-44v-24c0-24.3,19.7-44,44-44h24c24.3,0,44,19.7,44,44v24C480,412.3,460.3,432,436,432z
	 M412,352c-6.6,0-12,5.4-12,12v24c0,6.6,5.4,12,12,12h24c6.6,0,12-5.4,12-12v-24c0-6.6-5.4-12-12-12H412z"/>
<path d="M436,352h-24c-24.3,0-44-19.7-44-44v-24c0-24.3,19.7-44,44-44h24c24.3,0,44,19.7,44,44v24C480,332.3,460.3,352,436,352z
	 M412,272c-6.6,0-12,5.4-12,12v24c0,6.6,5.4,12,12,12h24c6.6,0,12-5.4,12-12v-24c0-6.6-5.4-12-12-12H412z"/>
<path d="M436,272h-24c-24.3,0-44-19.7-44-44v-24c0-24.3,19.7-44,44-44h24c24.3,0,44,19.7,44,44v24C480,252.3,460.3,272,436,272z
	 M412,192c-6.6,0-12,5.4-12,12v24c0,6.6,5.4,12,12,12h24c6.6,0,12-5.4,12-12v-24c0-6.6-5.4-12-12-12H412z"/>
<path d="M436,192h-24c-24.3,0-44-19.7-44-44v-24c0-24.3,19.7-44,44-44h24c24.3,0,44,19.7,44,44v24C480,172.3,460.3,192,436,192z
	 M412,112c-6.6,0-12,5.4-12,12v24c0,6.6,5.4,12,12,12h24c6.6,0,12-5.4,12-12v-24c0-6.6-5.4-12-12-12H412z"/>
<path d="M100,432H76c-24.3,0-44-19.7-44-44v-24c0-24.3,19.7-44,44-44h24c24.3,0,44,19.7,44,44v24C144,412.3,124.3,432,100,432z
	 M76,352c-6.6,0-12,5.4-12,12v24c0,6.6,5.4,12,12,12h24c6.6,0,12-5.4,12-12v-24c0-6.6-5.4-12-12-12H76z"/>
<path d="M100,352H76c-24.3,0-44-19.7-44-44v-24c0-24.3,19.7-44,44-44h24c24.3,0,44,19.7,44,44v24C144,332.3,124.3,352,100,352z
	 M76,272c-6.6,0-12,5.4-12,12v24c0,6.6,5.4,12,12,12h24c6.6,0,12-5.4,12-12v-24c0-6.6-5.4-12-12-12H76z"/>
<path d="M100,272H76c-24.3,0-44-19.7-44-44v-24c0-24.3,19.7-44,44-44h24c24.3,0,44,19.7,44,44v24C144,252.3,124.3,272,100,272z
	 M76,192c-6.6,0-12,5.4-12,12v24c0,6.6,5.4,12,12,12h24c6.6,0,12-5.4,12-12v-24c0-6.6-5.4-12-12-12H76z"/>
<path d="M100,192H76c-24.3,0-44-19.7-44-44v-24c0-24.3,19.7-44,44-44h24c24.3,0,44,19.7,44,44v24C144,172.3,124.3,192,100,192z
	 M76,112c-6.6,0-12,5.4-12,12v24c0,6.6,5.4,12,12,12h24c6.6,0,12-5.4,12-12v-24c0-6.6-5.4-12-12-12H76z"/>
<path d="M356,272H156c-24.3,0-44-19.7-44-44V124c0-24.3,19.7-44,44-44h200c24.3,0,44,19.7,44,44v104C400,252.3,380.3,272,356,272z
	 M156,112c-6.6,0-12,5.4-12,12v104c0,6.6,5.4,12,12,12h200c6.6,0,12-5.4,12-12V124c0-6.6-5.4-12-12-12H156z"/>
<path d="M356,432H156c-24.3,0-44-19.7-44-44V284c0-24.3,19.7-44,44-44h200c24.3,0,44,19.7,44,44v104C400,412.3,380.3,432,356,432z
	 M156,272c-6.6,0-12,5.4-12,12v104c0,6.6,5.4,12,12,12h200c6.6,0,12-5.4,12-12V284c0-6.6-5.4-12-12-12H156z"/>
</svg>
