<?xml version="1.0" encoding="utf-8"?>
<!-- Generator: Adobe Illustrator 25.4.1, SVG Export Plug-In . SVG Version: 6.00 Build 0)  -->
<svg version="1.1" id="Calque_1" xmlns="http://www.w3.org/2000/svg" xmlns:xlink="http://www.w3.org/1999/xlink" x="0px" y="0px"
	 viewBox="0 0 512 512" style="enable-background:new 0 0 512 512;" xml:space="preserve">
<path d="M224,432c-4.5,0-8.9-1.9-11.9-5.3c-3.7-4.1-5-9.8-3.5-15.1l11.7-40.8c-41.1-14.4-76.2-43.3-100.4-63.4
	c-4.7,3.9-9.6,7.7-14.5,11.3c-39.6,28.9-86.1,32.7-88.1,32.9c-5.1,0.4-10-1.6-13.3-5.5c-3.3-3.8-4.6-9-3.5-13.9
	c0.4-2,10.1-44.9,35.3-76.4c-25.2-31.5-34.9-74.3-35.3-76.4c-1.1-4.9,0.2-10.1,3.5-13.9c3.3-3.8,8.2-5.9,13.3-5.5
	c2,0.1,48.5,4,88.1,32.9c5,3.6,9.9,7.5,14.7,11.5c24.2-20,59.1-48.9,100.2-63.3l-11.6-40.8c-1.5-5.3-0.2-11,3.5-15.1
	c3.7-4.1,9.2-6,14.6-5.1c40.3,6.8,79.8,34,98.3,48.3C396,132.9,441,159.8,466.4,182c31.3,27.3,45.6,57.5,45.6,74
	c0,33.5-55.8,119.5-187.4,127.5c-21.2,16.5-58.9,41.7-98,48.3C225.8,431.9,224.9,432,224,432z M119.5,270.4c3.6,0,7.1,1.2,10.1,3.6
	c3.1,2.5,6.5,5.3,10,8.3c25.1,20.8,62.9,52.3,104.1,62.2c4.2,1,7.9,3.7,10.1,7.5s2.8,8.3,1.6,12.5l-8.1,28.2
	c26.6-10.8,50.5-28.6,61.4-37.3c2.7-2.1,5.9-3.4,9.3-3.5c65.1-2.9,105.2-26.4,127.4-45.5c26.1-22.6,34.6-45,34.6-50.2
	c-0.1-5.2-8.8-27.5-34.9-50.1c-22.2-19.2-62.2-42.7-126.7-45.6c-3.4-0.2-6.6-1.4-9.3-3.5c-10.9-8.7-35-26.6-61.8-37.4l8.1,28.2
	c1.2,4.2,0.6,8.7-1.6,12.5c-2.2,3.8-5.8,6.5-10.1,7.5c-41,9.9-78.7,41.1-103.6,61.8c-3.7,3-7.1,5.9-10.3,8.5
	c-6.2,5-15.1,4.7-20.9-0.7c-7.1-6.5-14.6-12.7-22.4-18.4c-15.9-11.6-33.5-18.3-47.2-22.1c5.9,15.3,15.3,34.5,29.1,47.5
	c3.2,3,5,7.2,5,11.6s-1.8,8.6-5,11.6c-13.8,13-23.2,32.2-29.1,47.5c13.8-3.8,31.4-10.5,47.2-22c7.7-5.6,15.2-11.8,22.2-18.2
	C111.7,271.8,115.6,270.4,119.5,270.4z"/>
<circle cx="416" cy="240" r="16"/>
<path d="M378.4,372c-5.5,0-10.9-2.9-13.9-8c-38.7-66.6-38.7-149.4,0-216.1c4.4-7.6,14.2-10.2,21.9-5.8c7.6,4.4,10.2,14.2,5.8,21.9
	c-32.9,56.7-32.9,127.2,0,183.9c4.4,7.6,1.8,17.4-5.8,21.9C383.9,371.3,381.1,372,378.4,372z"/>
</svg>
