<?xml version="1.0" encoding="utf-8"?>
<!-- Generator: Adobe Illustrator 25.4.1, SVG Export Plug-In . SVG Version: 6.00 Build 0)  -->
<svg version="1.1" id="Calque_1" xmlns="http://www.w3.org/2000/svg" xmlns:xlink="http://www.w3.org/1999/xlink" x="0px" y="0px"
	 viewBox="0 0 512 512" style="enable-background:new 0 0 512 512;" xml:space="preserve">
<path d="M256,480c-88.2,0-160-71.8-160-160c0-45.7,26-85.6,51.2-124.2c30.4-46.7,59.2-90.7,45.3-143.7c-1.3-4.8-0.2-9.9,2.8-13.8
	S203,32,208,32c41.1,0,93.2,29.7,132.9,75.5c22.7,26.2,40.6,56.5,53.4,90c14.4,38,21.8,79.1,21.8,122.4C416,408.2,344.2,480,256,480
	z M227.5,66.9c5.1,56.4-25.8,103.9-53.5,146.4c-23.7,36.3-46,70.5-46,106.7c0,70.6,57.4,128,128,128c70.6,0,128-57.4,128-128
	c0-93.9-36.6-156-67.4-191.5C286.6,93.7,253.2,73.9,227.5,66.9z"/>
<path d="M256,464c-21.7,0-41.5-8.3-55.7-23.4c-15.9-17-24.3-42.1-24.3-72.6c0-32.2,10.8-55.5,20.3-76.2c8.4-18.3,15.1-32.7,12-48.8
	c-0.9-4.7,0.4-9.5,3.4-13.2c3-3.7,7.6-5.8,12.3-5.8c25.2,0,53.1,17.8,76.5,48.7c22.2,29.4,35.5,65,35.5,95.3
	c0,30.5-8.4,55.6-24.3,72.6C297.5,455.7,277.7,464,256,464z M240.5,260.7c-2,16-8.6,30.5-15.1,44.5c-8.5,18.5-17.3,37.6-17.3,62.8
	c0,40.1,17.9,64,48,64c30.1,0,48-23.9,48-64C304,325.5,269.7,275.9,240.5,260.7z"/>
</svg>
