<?xml version="1.0" encoding="utf-8"?>
<!-- Generator: Adobe Illustrator 25.4.1, SVG Export Plug-In . SVG Version: 6.00 Build 0)  -->
<svg version="1.1" id="Calque_1" xmlns="http://www.w3.org/2000/svg" xmlns:xlink="http://www.w3.org/1999/xlink" x="0px" y="0px"
	 viewBox="0 0 512 512" style="enable-background:new 0 0 512 512;" xml:space="preserve">
<path d="M105.7,480c-14.7,0-29.9-6.4-42.5-19L51,448.8C40.2,438,33.5,424.6,32.2,411c-1.4-15.1,3.9-29.6,15-40.7l188.8-188.7
	c7-7,13.3-19,13.9-26.1l0.2-2.4c1.8-26,4.4-61.5,33.9-91.1l11.9-12c9.4-9.4,19.1-15.2,29-17.2c12.9-2.7,25.6,1.3,35.5,11.2
	L468,151.5c9.9,9.9,13.9,22.5,11.2,35.5c-2.1,9.9-7.8,19.6-17.2,29L450,227.9c-29.3,29.3-69.4,32.3-93.4,34.1
	c-7.2,0.6-19.2,6.9-26.2,13.9L141.7,464.7C131.5,474.9,118.7,480,105.7,480z M332.9,64c-0.5,0-1,0.1-1.4,0.2
	c-3.5,0.7-8.2,3.8-12.8,8.5l-11.9,12c-21.1,21.1-23,47.5-24.6,70.7l-0.2,2.4c-1.3,17.3-12.9,36.2-23.2,46.4L69.9,393
	c-4.4,4.4-6.3,9.4-5.8,15.1c0.6,6.1,4,12.6,9.5,18.1l12.2,12.2c8.5,8.5,22.4,14.6,33.2,3.7l188.8-188.8c10.5-10.5,29-21.8,46.3-23.2
	c22.1-1.7,52.3-3.9,73.2-24.9l11.9-11.9c4.7-4.7,7.8-9.4,8.5-12.9c0.3-1.3,0.7-3.2-2.5-6.3L337.8,66.7C335.6,64.5,334,64,332.9,64z"
	/>
<circle cx="224.7" cy="287.3" r="20"/>
<path d="M431,239c-4.1,0-8.2-1.6-11.3-4.7l-142-142c-6.2-6.2-6.2-16.4,0-22.6c6.2-6.2,16.4-6.2,22.6,0l142,142
	c6.2,6.2,6.2,16.4,0,22.6C439.2,237.4,435.1,239,431,239z"/>
</svg>
