<?xml version="1.0" encoding="utf-8"?>
<!-- Generator: Adobe Illustrator 25.4.1, SVG Export Plug-In . SVG Version: 6.00 Build 0)  -->
<svg version="1.1" id="Calque_1" xmlns="http://www.w3.org/2000/svg" xmlns:xlink="http://www.w3.org/1999/xlink" x="0px" y="0px"
	 viewBox="0 0 512 512" style="enable-background:new 0 0 512 512;" xml:space="preserve">
<path d="M336,64H176c-8.8,0-16-7.2-16-16s7.2-16,16-16h160c8.8,0,16,7.2,16,16S344.8,64,336,64z"/>
<path d="M394,320H118c-8.8,0-16-7.2-16-16s7.2-16,16-16h276c8.8,0,16,7.2,16,16S402.8,320,394,320z"/>
<path d="M388.9,480H123.1c-27.7,0-52.3-14.5-65.7-38.8c-13.4-24.3-12.5-52.8,2.3-76.3l124.9-197.8c4.8-7.7,7.4-16.6,7.4-25.6V48
	c0-8.8,7.2-16,16-16s16,7.2,16,16v93.5c0,15.1-4.3,29.9-12.3,42.7L86.7,382c-8.5,13.5-9,29.8-1.3,43.7c7.7,13.9,21.7,22.2,37.6,22.2
	h265.8c15.9,0,30-8.3,37.6-22.2c7.7-13.9,7.2-30.3-1.3-43.7L300.3,184.2c-8.1-12.8-12.3-27.6-12.3-42.7V48c0-8.8,7.2-16,16-16
	s16,7.2,16,16v93.5c0,9.1,2.6,18,7.4,25.6l124.9,197.8c14.8,23.5,15.7,52,2.3,76.3C441.2,465.5,416.6,480,388.9,480z"/>
</svg>
