<?xml version="1.0" encoding="utf-8"?>
<!-- Generator: Adobe Illustrator 25.4.1, SVG Export Plug-In . SVG Version: 6.00 Build 0)  -->
<svg version="1.1" id="Calque_1" xmlns="http://www.w3.org/2000/svg" xmlns:xlink="http://www.w3.org/1999/xlink" x="0px" y="0px"
	 viewBox="0 0 512 512" style="enable-background:new 0 0 512 512;" xml:space="preserve">
<path d="M440,448H72c-30.9,0-56-25.1-56-56V120c0-30.9,25.1-56,56-56h75.9c11.1,0,21.8,3.3,31.1,9.4L206.8,92c4,2.6,8.6,4,13.3,4
	H440c30.9,0,56,25.1,56,56v240C496,422.9,470.9,448,440,448z M72,96c-13.2,0-24,10.8-24,24v272c0,13.2,10.8,24,24,24h368
	c13.2,0,24-10.8,24-24V152c0-13.2-10.8-24-24-24H220.1c-11.1,0-21.8-3.3-31.1-9.4L161.2,100c-4-2.6-8.6-4-13.3-4H72z"/>
<path d="M480,208H32c-8.8,0-16-7.2-16-16s7.2-16,16-16h448c8.8,0,16,7.2,16,16S488.8,208,480,208z"/>
</svg>
