<?xml version="1.0" encoding="utf-8"?>
<!-- Generator: Adobe Illustrator 25.4.1, SVG Export Plug-In . SVG Version: 6.00 Build 0)  -->
<svg version="1.1" id="icons" xmlns="http://www.w3.org/2000/svg" xmlns:xlink="http://www.w3.org/1999/xlink" x="0px" y="0px"
	 viewBox="0 0 512 512" style="enable-background:new 0 0 512 512;" xml:space="preserve">
<path d="M133.8,361.3c-22.6,0-41-8.2-54.8-24.4c-13.9-16.4-22.8-40.3-28.1-75.3c-7.8-51.6-0.1-95.1,21.7-122.5
	c12.8-16.1,29.6-25.4,48.6-27c16.2-1.3,40.5,5.3,64,44c14.7,24.2,25.9,56.4,30.7,88.3l0,0c5.8,38.5,1.5,66.9-13.2,86.7
	c-11.6,15.7-29.5,25.5-53.2,29C144,360.9,138.8,361.3,133.8,361.3z M124.8,144c-0.4,0-0.7,0-1,0c-10.1,0.8-18.8,5.8-26.1,15
	c-15.9,20-21.4,55.7-15.1,97.8c9.9,65.6,32,76.1,62.2,71.6c15.2-2.2,25.7-7.6,32.2-16.4c9.2-12.4,11.6-33.6,7.3-62.9
	c-4.1-27.5-14-56.1-26.4-76.5C146.8,154.6,134.6,144,124.8,144z"/>
<path d="M173.1,496c-13.2,0-26.6-4.2-38.7-12.4c-17.3-11.7-29.5-30.1-33.5-50.6c-2.8-14.7-1.1-26.3,5.2-35.6
	c10.3-15.1,28.9-18.6,48.5-22.2c2.1-0.4,4.2-0.8,6.3-1.2c4.5-0.9,9.1-2,13.6-3.1c16.8-4.1,34.1-8.4,48.5,1.7
	c9.6,6.8,15,18.4,16.6,35.3v0c1.8,19.6-2.4,39.1-11.8,55c-10.2,17.1-25.5,28.4-43,31.9C180.9,495.6,177,496,173.1,496z M201.9,398.4
	c-4.8,0-14.2,2.3-19.7,3.7c-4.9,1.2-9.9,2.5-15.3,3.5c-2.2,0.4-4.4,0.8-6.5,1.2c-11.7,2.2-25,4.6-27.8,8.7
	c-1.2,1.8-1.3,6.1-0.2,11.5c2.4,12.2,9.7,23.2,20,30.2c8.4,5.7,18,8,26.3,6.4c18.4-3.6,31.5-27.2,29.1-52.5l0,0
	c-0.9-10-3.3-12.2-3.3-12.2C203.9,398.5,203,398.4,201.9,398.4z"/>
<path d="M378.2,265.3c-5,0-10.2-0.4-15.6-1.2c-23.7-3.5-41.6-13.2-53.2-29c-14.7-19.8-19-48.1-13.2-86.7v0
	c4.8-31.9,15.9-64.1,30.6-88.2c23.3-38.6,47.7-45.3,64-44.1c18.9,1.4,35.7,10.6,48.5,26.6c21.9,27.4,29.6,71,21.9,122.8
	c-5.3,35-14.2,58.9-28.1,75.3C419.1,257.1,400.8,265.3,378.2,265.3z M327.8,153.2L327.8,153.2c-4.4,29.3-2,50.4,7.3,62.9
	c6.5,8.8,17,14.1,32.2,16.4c30.2,4.5,52.3-6,62.2-71.6c6.4-42.3,0.8-78.1-15.2-98.1c-7.2-9-15.9-13.9-25.8-14.7
	c-10.1-0.7-22.9,10-34.3,28.7C341.8,97.1,332,125.7,327.8,153.2z"/>
<path d="M338.9,400c-3.9,0-7.8-0.4-11.7-1.1c-17.6-3.4-32.8-14.8-43-31.9c-9.5-15.9-13.7-35.4-11.8-55v0c1.6-17,7-28.5,16.6-35.3
	c14.3-10.2,31.7-5.9,48.5-1.7c4.5,1.1,9.1,2.2,13.6,3.1c2.1,0.4,4.3,0.8,6.3,1.2c19.6,3.6,38.1,7,48.5,22.2c6.4,9.3,8.1,21,5.2,35.6
	c-4,20.5-16.2,38.9-33.5,50.6C365.6,395.8,352.2,400,338.9,400z M304.3,315c-2.4,25.3,10.7,48.8,29.1,52.5
	c8.3,1.6,17.9-0.7,26.3-6.4c10.3-7,17.6-18,20-30.2c1.1-5.4,1-9.7-0.2-11.5c-2.8-4.1-16.1-6.6-27.8-8.7c-2.1-0.4-4.3-0.8-6.5-1.2
	c-5.3-1-10.4-2.3-15.3-3.5c-6.9-1.7-19.6-4.8-22.3-3.2C307.5,302.8,305.2,305,304.3,315L304.3,315z"/>
</svg>
