<?xml version="1.0" encoding="utf-8"?>
<!-- Generator: Adobe Illustrator 25.4.1, SVG Export Plug-In . SVG Version: 6.00 Build 0)  -->
<svg version="1.1" id="Calque_1" xmlns="http://www.w3.org/2000/svg" xmlns:xlink="http://www.w3.org/1999/xlink" x="0px" y="0px"
	 viewBox="0 0 512 512" style="enable-background:new 0 0 512 512;" xml:space="preserve">
<path d="M256,464c-114.7,0-208-93.3-208-208S141.3,48,256,48s208,93.3,208,208S370.7,464,256,464z M256,80c-97,0-176,79-176,176
	s79,176,176,176s176-79,176-176S353,80,256,80z"/>
<path d="M312,336H200c-7.4,0-13.8-5-15.5-12.1l-20.1-81c-1.5-5.9,0.6-12.2,5.2-16.1l76.1-63.8c5.9-5,14.6-5,20.6,0l76.1,63.8
	c4.7,3.9,6.7,10.2,5.2,16.1l-20.1,81C325.8,331,319.4,336,312,336z M212.5,304h87l14.7-59.2L256,196l-58.2,48.8L212.5,304z"/>
<path d="M332.1,255c-6.2,0-12.2-3.7-14.7-9.8c-3.4-8.1,0.4-17.5,8.5-21l46.4-19.6l23.4-66.6c2.9-8.3,12.1-12.7,20.4-9.8
	c8.3,2.9,12.7,12.1,9.8,20.4l-25.8,73.3c-1.5,4.2-4.7,7.7-8.9,9.4l-52.9,22.4C336.3,254.6,334.2,255,332.1,255z"/>
<path d="M447,286c-3.7,0-7.4-1.3-10.4-3.9l-62-53.4c-6.7-5.8-7.5-15.9-1.7-22.6c5.8-6.7,15.9-7.5,22.6-1.7l62,53.4
	c6.7,5.8,7.5,15.9,1.7,22.6C456,284.1,451.5,286,447,286z"/>
<path d="M179.9,255c-2.1,0-4.2-0.4-6.2-1.3l-52.9-22.4c-4.1-1.8-7.4-5.2-8.9-9.4l-25.8-73.3c-2.9-8.3,1.4-17.5,9.8-20.4
	c8.3-2.9,17.5,1.4,20.4,9.8l23.4,66.6l46.4,19.6c8.1,3.4,11.9,12.8,8.5,21C192.1,251.3,186.1,255,179.9,255z"/>
<path d="M65,286c-4.5,0-9-1.9-12.1-5.6c-5.8-6.7-5-16.8,1.7-22.6l62-53.4c6.7-5.8,16.8-5,22.6,1.7c5.8,6.7,5,16.8-1.7,22.6l-62,53.4
	C72.4,284.7,68.7,286,65,286z"/>
<path d="M256,191.1c-8.8,0-16-7.2-16-16v-57.6c0-5.4,2.7-10.3,7.1-13.3l64-42.6c7.4-4.9,17.3-2.9,22.2,4.4
	c4.9,7.4,2.9,17.3-4.4,22.2L272,126.1v49C272,184,264.8,191.1,256,191.1z"/>
<path d="M256,133.6c-3,0-6.1-0.9-8.9-2.7l-64-42.6c-7.4-4.9-9.3-14.8-4.4-22.2c4.9-7.4,14.8-9.3,22.2-4.4l64,42.6
	c7.4,4.9,9.3,14.8,4.4,22.2C266.2,131.1,261.2,133.6,256,133.6z"/>
<path d="M312,455c-2,0-3.9-0.4-5.9-1.1c-8.2-3.2-12.3-12.5-9-20.8l25.2-63.8l-24.1-41.3c-4.5-7.6-1.9-17.4,5.8-21.9
	c7.6-4.5,17.4-1.9,21.9,5.8l28,48c2.5,4.2,2.9,9.4,1.1,13.9l-28,71C324.4,451.2,318.4,455,312,455z"/>
<path d="M410.7,384H342c-8.8,0-16-7.2-16-16s7.2-16,16-16h68.7c8.8,0,16,7.2,16,16S419.6,384,410.7,384z"/>
<path d="M200.4,455.5c-6.4,0-12.4-3.8-14.9-10.1l-28.4-71.5c-1.8-4.6-1.4-9.7,1.1-14l28-48c4.5-7.6,14.2-10.2,21.9-5.8
	c7.6,4.5,10.2,14.2,5.8,21.9l-24.1,41.3l25.5,64.3c3.3,8.2-0.8,17.5-9,20.8C204.3,455.1,202.3,455.5,200.4,455.5z"/>
<path d="M172,384h-70.4c-8.8,0-16-7.2-16-16s7.2-16,16-16H172c8.8,0,16,7.2,16,16S180.8,384,172,384z"/>
</svg>
