<?xml version="1.0" encoding="utf-8"?>
<!-- Generator: Adobe Illustrator 25.4.1, SVG Export Plug-In . SVG Version: 6.00 Build 0)  -->
<svg version="1.1" id="Calque_1" xmlns="http://www.w3.org/2000/svg" xmlns:xlink="http://www.w3.org/1999/xlink" x="0px" y="0px"
	 viewBox="0 0 512 512" style="enable-background:new 0 0 512 512;" xml:space="preserve">
<path d="M128,160c-35.3,0-64-28.7-64-64s28.7-64,64-64s64,28.7,64,64S163.3,160,128,160z M128,64c-17.6,0-32,14.4-32,32
	s14.4,32,32,32s32-14.4,32-32S145.6,64,128,64z"/>
<path d="M256,480c-35.3,0-64-28.7-64-64s28.7-64,64-64c35.3,0,64,28.7,64,64S291.3,480,256,480z M256,384c-17.6,0-32,14.4-32,32
	s14.4,32,32,32c17.6,0,32-14.4,32-32S273.6,384,256,384z"/>
<path d="M256,384c-8.8,0-16-7.2-16-16V256c0-8.8,7.2-16,16-16c8.8,0,16,7.2,16,16v112C272,376.8,264.8,384,256,384z"/>
<path d="M384,160c-35.3,0-64-28.7-64-64s28.7-64,64-64s64,28.7,64,64S419.3,160,384,160z M384,64c-17.6,0-32,14.4-32,32
	s14.4,32,32,32s32-14.4,32-32S401.6,64,384,64z"/>
<path d="M256,272c-34.7,0-69.6-11.4-95.8-31.2C128.7,216.8,112,183.4,112,144c0-8.8,7.2-16,16-16s16,7.2,16,16
	c0,62.4,57.7,96,112,96c8.8,0,16,7.2,16,16C272,264.8,264.8,272,256,272z"/>
<path d="M256,272c-8.8,0-16-7.2-16-16c0-8.8,7.2-16,16-16c54.3,0,112-33.6,112-96c0-8.8,7.2-16,16-16s16,7.2,16,16
	c0,39.4-16.7,72.8-48.2,96.8C325.6,260.6,290.7,272,256,272z"/>
</svg>
