<?xml version="1.0" encoding="utf-8"?>
<!-- Generator: Adobe Illustrator 25.4.1, SVG Export Plug-In . SVG Version: 6.00 Build 0)  -->
<svg version="1.1" id="Calque_1" xmlns="http://www.w3.org/2000/svg" xmlns:xlink="http://www.w3.org/1999/xlink" x="0px" y="0px"
	 viewBox="0 0 512 512" style="enable-background:new 0 0 512 512;" xml:space="preserve">
<path d="M288,248c-8.8,0-16-7.2-16-16c0-8.8-7.2-16-16-16s-16,7.2-16,16c0,8.8-7.2,16-16,16s-16-7.2-16-16c0-26.5,21.5-48,48-48
	c26.5,0,48,21.5,48,48C304,240.8,296.8,248,288,248z"/>
<path d="M464,216h-16c-8.8,0-16-7.2-16-16s7.2-16,16-16h16c8.8,0,16,7.2,16,16S472.8,216,464,216z"/>
<path d="M64,216H48c-8.8,0-16-7.2-16-16s7.2-16,16-16h16c8.8,0,16,7.2,16,16S72.8,216,64,216z"/>
<path d="M144,344c-24.2,0-58.5-3.7-77.7-35.8C53.3,286.6,48,255.2,48,200c0-4.2,1.7-8.3,4.7-11.3c3.5-3.5,24.1-20.7,91.3-20.7
	s87.9,17.2,91.3,20.7c3,3,4.7,7.1,4.7,11.3c0,55.2-5.3,86.6-18.3,108.2C202.5,340.3,168.2,344,144,344z M80.1,209.1
	c0.5,42.2,4.8,67.9,13.7,82.7C100,302.3,110.5,312,144,312s44-9.7,50.3-20.2c8.9-14.8,13.1-40.5,13.7-82.7
	c-8.3-3.5-27.2-9.1-63.9-9.1S88.3,205.6,80.1,209.1z"/>
<path d="M368,344c-24.2,0-58.5-3.7-77.7-35.8c-13-21.6-18.3-53-18.3-108.2c0-4.2,1.7-8.3,4.7-11.3c3.5-3.5,24.1-20.7,91.3-20.7
	s87.9,17.2,91.3,20.7c3,3,4.7,7.1,4.7,11.3c0,55.2-5.3,86.6-18.3,108.2C426.5,340.3,392.2,344,368,344z M304.1,209.1
	c0.5,42.2,4.8,67.9,13.7,82.7C324,302.3,334.5,312,368,312s44-9.7,50.3-20.2c8.9-14.8,13.1-40.5,13.7-82.7
	c-8.3-3.5-27.2-9.1-63.9-9.1S312.3,205.6,304.1,209.1z M437.4,211.9L437.4,211.9L437.4,211.9z"/>
</svg>
