<?xml version="1.0" encoding="utf-8"?>
<!-- Generator: Adobe Illustrator 25.4.1, SVG Export Plug-In . SVG Version: 6.00 Build 0)  -->
<svg version="1.1" id="Calque_1" xmlns="http://www.w3.org/2000/svg" xmlns:xlink="http://www.w3.org/1999/xlink" x="0px" y="0px"
	 viewBox="0 0 512 512" style="enable-background:new 0 0 512 512;" xml:space="preserve">
<path d="M256,486c-61.4,0-119.2-23.9-162.6-67.4C49.9,375.2,26,317.4,26,256S49.9,136.8,93.4,93.4C136.8,49.9,194.6,26,256,26
	s119.2,23.9,162.6,67.4C462.1,136.8,486,194.6,486,256s-23.9,119.2-67.4,162.6S317.4,486,256,486z M256,70C153.4,70,70,153.4,70,256
	s83.4,186,186,186s186-83.4,186-186S358.6,70,256,70z"/>
<path d="M256,486c-36.4,0-71.8-26.3-97.3-72.2c-24.1-43.3-37.3-99.4-37.3-157.8s13.3-114.4,37.3-157.8C184.2,52.3,219.6,26,256,26
	s71.8,26.3,97.3,72.2c24.1,43.3,37.3,99.4,37.3,157.8s-13.3,114.4-37.3,157.8C327.8,459.7,292.4,486,256,486z M256,70
	c-41.9,0-90.7,81.2-90.7,186s48.7,186,90.7,186s90.7-81.2,90.7-186S297.9,70,256,70z"/>
<path d="M256,186.7c-55.4,0-107.7-16.4-151.4-47.4c-9.9-7-12.2-20.8-5.2-30.7c7-9.9,20.8-12.2,30.7-5.2
	c36.2,25.7,79.7,39.3,125.9,39.3s89.7-13.6,125.9-39.3c9.9-7,23.6-4.7,30.7,5.2c7,9.9,4.7,23.6-5.2,30.7
	C363.7,170.3,311.4,186.7,256,186.7z"/>
<path d="M117.3,412.7c-6.9,0-13.7-3.2-18-9.3c-7-9.9-4.7-23.6,5.2-30.7c43.7-31,96-47.4,151.4-47.4c55.4,0,107.7,16.4,151.4,47.4
	c9.9,7,12.2,20.8,5.2,30.7s-20.8,12.2-30.7,5.2c-36.2-25.7-79.7-39.3-125.9-39.3c-46.2,0-89.7,13.6-125.9,39.3
	C126.2,411.4,121.8,412.7,117.3,412.7z"/>
<rect x="234" y="48" width="44" height="416"/>
<rect x="48" y="234" width="416" height="44"/>
</svg>
