<?xml version="1.0" encoding="utf-8"?>
<!-- Generator: Adobe Illustrator 25.4.1, SVG Export Plug-In . SVG Version: 6.00 Build 0)  -->
<svg version="1.1" id="Calque_1" xmlns="http://www.w3.org/2000/svg" xmlns:xlink="http://www.w3.org/1999/xlink" x="0px" y="0px"
	 viewBox="0 0 512 512" style="enable-background:new 0 0 512 512;" xml:space="preserve">
<path d="M256,480c-59.8,0-116.1-23.3-158.4-65.6C55.3,372.1,32,315.8,32,256S55.3,139.9,97.6,97.6C139.9,55.3,196.2,32,256,32
	s116.1,23.3,158.4,65.6C456.7,139.9,480,196.2,480,256s-23.3,116.1-65.6,158.4C372.1,456.7,315.8,480,256,480z M256,64
	C150.1,64,64,150.1,64,256s86.1,192,192,192s192-86.1,192-192S361.9,64,256,64z"/>
<path d="M256,480c-69.7,0-128.7-102.6-128.7-224c0-121.4,58.9-224,128.7-224s128.7,102.6,128.7,224C384.7,377.4,325.7,480,256,480z
	 M256,64c-22.2,0-45.5,19.2-64.1,52.7c-21,37.8-32.5,87.3-32.5,139.3c0,52.1,11.6,101.5,32.5,139.3c18.6,33.5,42,52.7,64.1,52.7
	s45.5-19.2,64.1-52.7c21-37.8,32.5-87.3,32.5-139.3s-11.6-101.5-32.5-139.3C301.5,83.2,278.2,64,256,64z"/>
<path d="M256,176.7c-54.1,0-105.3-16-147.9-46.3c-7.2-5.1-8.9-15.1-3.8-22.3c5.1-7.2,15.1-8.9,22.3-3.8
	c37.2,26.4,82,40.4,129.4,40.4c47.4,0,92.2-14,129.4-40.4c7.2-5.1,17.2-3.4,22.3,3.8c5.1,7.2,3.4,17.2-3.8,22.3
	C361.3,160.7,310.1,176.7,256,176.7z"/>
<path d="M394.7,410.7c-3.2,0-6.4-1-9.2-3c-37.2-26.4-82-40.4-129.4-40.4c-47.4,0-92.2,14-129.4,40.4c-7.2,5.1-17.2,3.4-22.3-3.8
	s-3.4-17.2,3.8-22.3c42.7-30.3,93.8-46.3,147.9-46.3c54.1,0,105.3,16,147.9,46.3c7.2,5.1,8.9,15.1,3.8,22.3
	C404.6,408.3,399.7,410.7,394.7,410.7z"/>
<rect x="240" y="48" width="32" height="416"/>
<rect x="48" y="240" width="416" height="32"/>
</svg>
