<?xml version="1.0" encoding="utf-8"?>
<!-- Generator: Adobe Illustrator 25.4.1, SVG Export Plug-In . SVG Version: 6.00 Build 0)  -->
<svg version="1.1" id="Calque_1" xmlns="http://www.w3.org/2000/svg" xmlns:xlink="http://www.w3.org/1999/xlink" x="0px" y="0px"
	 viewBox="0 0 512 512" style="enable-background:new 0 0 512 512;" xml:space="preserve">
<path d="M80,336c-8.8,0-16-7.2-16-16V144c0-26.5,21.5-48,48-48s48,21.5,48,48v112c0,8.8-7.2,16-16,16s-16-7.2-16-16V144
	c0-8.8-7.2-16-16-16s-16,7.2-16,16v176C96,328.8,88.8,336,80,336z"/>
<path d="M144,272c-8.8,0-16-7.2-16-16V80c0-26.5,21.5-48,48-48s48,21.5,48,48v160c0,8.8-7.2,16-16,16s-16-7.2-16-16V80
	c0-8.8-7.2-16-16-16s-16,7.2-16,16v176C160,264.8,152.8,272,144,272z"/>
<path d="M336,336c-8.8,0-16-7.2-16-16V96c0-8.8-7.2-16-16-16s-16,7.2-16,16v145c0,8.8-7.2,16-16,16s-16-7.2-16-16V96
	c0-26.5,21.5-48,48-48s48,21.5,48,48v224C352,328.8,344.8,336,336,336z"/>
<path d="M272,256c-8.8,0-16-7.2-16-16V48c0-8.8-7.2-16-16-16s-16,7.2-16,16v192c0,8.8-7.2,16-16,16s-16-7.2-16-16V48
	c0-26.5,21.5-48,48-48c26.5,0,48,21.5,48,48v192C288,248.8,280.8,256,272,256z"/>
<path d="M232,512c-49.4,0-91.2-17-120.8-49.1C80.3,429.3,64,379.9,64,320c0-8.8,7.2-16,16-16s16,7.2,16,16c0,101.7,49.6,160,136,160
	c84.8,0,112.9-39.3,129.1-77.9l52.6-143.6c4.4-11.8,2.8-19.9-4.7-24.2c-4.2-2.4-9.2-3-13.6-1.7c-2.6,0.8-6,2.5-8.3,6.4l-36.2,87.1
	c-3.4,8.2-12.8,12-20.9,8.6s-12-12.8-8.6-20.9l36.5-87.9c0.2-0.4,0.4-0.9,0.6-1.3c5.8-11.1,15.7-19.1,27.9-22.7
	c12.8-3.7,26.8-2.1,38.4,4.6c21.5,12.2,28.8,36.4,19,63l-52.7,144c-0.1,0.2-0.2,0.5-0.3,0.7c-12.9,30.7-29.9,53.2-52.1,69
	C311.4,502.6,276.5,512,232,512z"/>
</svg>
