<?xml version="1.0" encoding="utf-8"?>
<!-- Generator: Adobe Illustrator 25.4.1, SVG Export Plug-In . SVG Version: 6.00 Build 0)  -->
<svg version="1.1" id="Calque_1" xmlns="http://www.w3.org/2000/svg" xmlns:xlink="http://www.w3.org/1999/xlink" x="0px" y="0px"
	 viewBox="0 0 512 512" style="enable-background:new 0 0 512 512;" xml:space="preserve">
<g>
	<path d="M348,101.3c-9.8-10.8-22.4-20-37.7-27.5c-13.4-6.5-33.2-10.1-54.5-9.8c-30,0.4-55.2,8.9-74.9,25.1
		C153.7,111.4,140,136.6,140,164v20h40v-20c0-5.5,0-22.4,26.3-44c12.7-10.5,29.1-15.7,50-16c17.7-0.2,30.7,3,36.4,5.8
		c26.5,13,39.3,30.7,39.3,54.2c0,34.1-19.4,49.1-53.7,72.7C240.7,262.6,228,282.6,228,316v20h40v-20c0-15.5,1.5-24.7,33-46.3
		c33.3-22.9,71-48.8,71-105.7C372,140,363.9,118.9,348,101.3z"/>
	<path d="M272.5,368h-49c-1.9,0-3.5,1.6-3.5,3.5v49c0,1.9,1.6,3.5,3.5,3.5h49c1.9,0,3.5-1.6,3.5-3.5v-49
		C276,369.6,274.4,368,272.5,368z"/>
</g>
</svg>
