<?xml version="1.0" encoding="utf-8"?>
<!-- Generator: Adobe Illustrator 25.4.1, SVG Export Plug-In . SVG Version: 6.00 Build 0)  -->
<svg version="1.1" id="Calque_1" xmlns="http://www.w3.org/2000/svg" xmlns:xlink="http://www.w3.org/1999/xlink" x="0px" y="0px"
	 viewBox="0 0 512 512" style="enable-background:new 0 0 512 512;" xml:space="preserve">
<path d="M256,480c-59.8,0-116.1-23.3-158.4-65.6C55.3,372.1,32,315.8,32,256c0-59.8,23.3-116.1,65.6-158.4
	C139.9,55.3,196.2,32,256,32c59.8,0,116.1,23.3,158.4,65.6C456.7,139.9,480,196.2,480,256c0,59.8-23.3,116.1-65.6,158.4
	C372.1,456.7,315.8,480,256,480z M256,64C150.1,64,64,150.1,64,256s86.1,192,192,192s192-86.1,192-192S361.9,64,256,64z"/>
<path d="M256,352c-52.9,0-96-43.1-96-96s43.1-96,96-96s96,43.1,96,96S308.9,352,256,352z M256,192c-35.3,0-64,28.7-64,64
	c0,35.3,28.7,64,64,64c35.3,0,64-28.7,64-64C320,220.7,291.3,192,256,192z"/>
<path d="M216,202c-8.4,0-15.4-6.5-16-15l-8-132c-0.5-8.8,6.2-16.4,15-16.9c8.8-0.5,16.4,6.2,16.9,15l8,132c0.5,8.8-6.2,16.4-15,16.9
	C216.6,202,216.3,202,216,202z"/>
<path d="M296,202c-0.3,0-0.7,0-1,0c-8.8-0.5-15.5-8.1-15-16.9l8-132c0.5-8.8,8.1-15.5,16.9-15c8.8,0.5,15.5,8.1,15,16.9l-8,132
	C311.5,195.5,304.4,202,296,202z"/>
<path d="M208,474c-0.3,0-0.7,0-1,0c-8.8-0.5-15.5-8.1-15-16.9l8-132c0.5-8.8,8.1-15.5,16.9-15c8.8,0.5,15.5,8.1,15,16.9l-8,132
	C223.5,467.5,216.4,474,208,474z"/>
<path d="M304,474c-8.4,0-15.4-6.5-16-15l-8-132c-0.5-8.8,6.2-16.4,15-16.9c8.8-0.5,16.4,6.2,16.9,15l8,132c0.5,8.8-6.2,16.4-15,16.9
	C304.6,474,304.3,474,304,474z"/>
<path d="M326,232c-8.4,0-15.4-6.5-16-15c-0.5-8.8,6.2-16.4,15-16.9l132-8c8.8-0.5,16.4,6.2,16.9,15s-6.2,16.4-15,16.9l-132,8
	C326.6,232,326.3,232,326,232z"/>
<path d="M458,320c-0.3,0-0.7,0-1,0l-132-8c-8.8-0.5-15.5-8.1-15-16.9c0.5-8.8,8.1-15.5,16.9-15l132,8c8.8,0.5,15.5,8.1,15,16.9
	C473.5,313.5,466.4,320,458,320z"/>
<path d="M186,232c-0.3,0-0.7,0-1,0l-132-8c-8.8-0.5-15.5-8.1-15-16.9c0.5-8.8,8.1-15.5,16.9-15l132,8c8.8,0.5,15.5,8.1,15,16.9
	C201.5,225.5,194.4,232,186,232z"/>
<path d="M54,320c-8.4,0-15.4-6.5-16-15c-0.5-8.8,6.2-16.4,15-16.9l132-8c8.8-0.5,16.4,6.2,16.9,15c0.5,8.8-6.2,16.4-15,16.9l-132,8
	C54.6,320,54.3,320,54,320z"/>
</svg>
