<?xml version="1.0" encoding="utf-8"?>
<!-- Generator: Adobe Illustrator 25.4.1, SVG Export Plug-In . SVG Version: 6.00 Build 0)  -->
<svg version="1.1" id="Calque_1" xmlns="http://www.w3.org/2000/svg" xmlns:xlink="http://www.w3.org/1999/xlink" x="0px" y="0px"
	 viewBox="0 0 512 512" style="enable-background:new 0 0 512 512;" xml:space="preserve">
<path d="M416,480h-96c-8.8,0-16-7.2-16-16V328c0-4.4-3.6-8-8-8h-80c-4.4,0-8,3.6-8,8v136c0,8.8-7.2,16-16,16H96
	c-17.6,0-32-14.4-32-32V212c0-8.8,7.2-16,16-16s16,7.2,16,16v236h80V328c0-22.1,17.9-40,40-40h80c22.1,0,40,17.9,40,40v120h80V212
	c0-8.8,7.2-16,16-16s16,7.2,16,16v236C448,465.6,433.6,480,416,480z"/>
<path d="M32,272c-4.2,0-8.4-1.7-11.6-4.9c-6.1-6.4-5.9-16.5,0.5-22.6L233.8,40.6c5.4-5.5,13.5-8.6,22.2-8.6c0,0,0,0,0.1,0
	c8.7,0,16.7,3.2,22.1,8.6l212.9,203.8c6.4,6.1,6.6,16.2,0.5,22.6c-6.1,6.4-16.2,6.6-22.6,0.5L256.3,64c-0.2,0-0.4,0-0.6,0
	L43.1,267.6C40,270.5,36,272,32,272z M256.7,63C256.7,63,256.7,63,256.7,63C256.7,63,256.7,63,256.7,63z M255.3,63
	C255.3,63,255.3,63,255.3,63C255.3,63,255.3,63,255.3,63z"/>
<path d="M400,195c-8.8,0-16-7.2-16-16V80h-16v53c0,8.8-7.2,16-16,16s-16-7.2-16-16V64c0-8.8,7.2-16,16-16h48c8.8,0,16,7.2,16,16v115
	C416,187.8,408.8,195,400,195z"/>
</svg>
