<?xml version="1.0" encoding="utf-8"?>
<!-- Generator: Adobe Illustrator 25.4.1, SVG Export Plug-In . SVG Version: 6.00 Build 0)  -->
<svg version="1.1" id="Calque_1" xmlns="http://www.w3.org/2000/svg" xmlns:xlink="http://www.w3.org/1999/xlink" x="0px" y="0px"
	 viewBox="0 0 512 512" style="enable-background:new 0 0 512 512;" xml:space="preserve">
<path d="M256,496C256,496,256,496,256,496c-6.4,0-12.2-3.8-14.7-9.7l-62-145c-3.5-8.1,0.3-17.5,8.4-21s17.5,0.3,21,8.4L256,439.3
	l81.3-189.6c3.5-8.1,12.9-11.9,21-8.4c8.1,3.5,11.9,12.9,8.4,21l-96,224C268.2,492.2,262.4,496,256,496z"/>
<path d="M184,352c-22.1-0.1-40-18-40-40v-41.3c-36.8-6.6-64-38.8-64-78.8c0-41.5,31.8-75.7,72.3-79.6C156.2,58.6,201.2,16,256,16
	s99.8,42.6,103.7,96.4c40.5,3.9,72.3,38.1,72.3,79.6c0,44.1-35.9,80-80,80c-19.6,0-38.3-8-52.4-21.9C287.9,261.4,272.3,268,256,268
	c-11.6,0-23.1-3-32-6.8l0,50.8C223.9,334,206,351.9,184,352z M160,144c-26.5,0-48,21.5-48,48c0,26.9,20.2,48,46,48h2
	c8.8,0,16,7.2,16,16v56c0,4.4,3.6,8,8,8c4.3,0,7.9-3.6,8-8v-62c0-10.4,4.9-19.1,13.2-23.3c8.3-4.2,18.4-3.3,26.5,2.5
	c4,2.8,14.6,6.8,24.3,6.8c11.9,0,23.2-7.5,28.8-19c0.7-1.6,1.7-3.2,3-4.5c5.4-5.7,14.2-6.6,20.6-2.2c2.3,1.6,4.1,3.6,5.2,6
	c8,14.4,23,23.7,38.3,23.7c26.5,0,48-21.5,48-48s-21.5-48-48-48h-8c-8.8,0-16-7.2-16-16v-8c0-39.7-32.3-72-72-72s-72,32.3-72,72v8
	c0,8.8-7.2,16-16,16H160z"/>
</svg>
