<?xml version="1.0" encoding="utf-8"?>
<!-- Generator: Adobe Illustrator 25.4.1, SVG Export Plug-In . SVG Version: 6.00 Build 0)  -->
<svg version="1.1" id="icons" xmlns="http://www.w3.org/2000/svg" xmlns:xlink="http://www.w3.org/1999/xlink" x="0px" y="0px"
	 viewBox="0 0 512 512" style="enable-background:new 0 0 512 512;" xml:space="preserve">
<path d="M368,496H144c-35.3,0-64-28.7-64-64V80c0-35.3,28.7-64,64-64h224c35.3,0,64,28.7,64,64v352C432,467.3,403.3,496,368,496z
	 M144,48c-17.6,0-32,14.4-32,32v352c0,17.6,14.4,32,32,32h224c17.6,0,32-14.4,32-32V80c0-17.6-14.4-32-32-32H144z"/>
<path d="M304,96h-96c-8.8,0-16-7.2-16-16s7.2-16,16-16h96c8.8,0,16,7.2,16,16S312.8,96,304,96z"/>
<path d="M333.5,284.5c-7.6-8.1-18.3-12.7-29.5-12.5c-11.6,0-22.1,4.4-29.5,12.4s-11.2,19.1-10.3,31c1.7,23.5,19.6,42.6,39.9,42.6
	s38.1-19.1,39.9-42.5C344.8,303.7,341,292.7,333.5,284.5z"/>
<path d="M371.7,448H236.3c-3.6,0.1-7-1.5-9.3-4.2c-2.5-3-3.5-7-2.8-10.9c3.2-17.6,13.4-32.3,29.3-42.7c14.1-9.2,32.1-14.2,50.5-14.2
	s36.3,5.1,50.5,14.2c15.9,10.4,26,25.1,29.3,42.7c0.8,3.9-0.2,7.9-2.8,10.9C378.7,446.5,375.3,448.1,371.7,448z"/>
</svg>
