<?xml version="1.0" encoding="utf-8"?>
<!-- Generator: Adobe Illustrator 25.4.1, SVG Export Plug-In . SVG Version: 6.00 Build 0)  -->
<svg version="1.1" id="Calque_1" xmlns="http://www.w3.org/2000/svg" xmlns:xlink="http://www.w3.org/1999/xlink" x="0px" y="0px"
	 viewBox="0 0 512 512" style="enable-background:new 0 0 512 512;" xml:space="preserve">
<path d="M416,448H96c-35.3,0-64-28.7-64-64V128c0-35.3,28.7-64,64-64h320c35.3,0,64,28.7,64,64v256C480,419.3,451.3,448,416,448z
	 M96,96c-17.6,0-32,14.4-32,32v256c0,17.6,14.4,32,32,32h320c17.6,0,32-14.4,32-32V128c0-17.6-14.4-32-32-32H96z"/>
<path d="M336,224c-26.5,0-48-21.5-48-48s21.5-48,48-48s48,21.5,48,48S362.5,224,336,224z M336,160c-8.8,0-16,7.2-16,16s7.2,16,16,16
	s16-7.2,16-16S344.8,160,336,160z"/>
<path d="M48,368c-4.4,0-8.8-1.8-12-5.4c-5.9-6.6-5.3-16.7,1.3-22.6l121.5-108c19-16.8,47.9-16,65.8,1.9l90.7,90.5
	c6.3,6.2,6.3,16.4,0,22.6c-6.2,6.3-16.4,6.3-22.6,0L202,256.6c-6-6-15.6-6.3-21.9-0.7L58.6,364C55.6,366.7,51.8,368,48,368z"/>
<path d="M224,448c-4.1,0-8.2-1.6-11.3-4.7c-6.2-6.2-6.2-16.4,0-22.6L336,297.3c17.6-17.7,45.4-19,64.7-3l73.6,61.4
	c6.8,5.7,7.7,15.7,2,22.5c-5.7,6.8-15.7,7.7-22.5,2l-73.5-61.3c-6.4-5.3-15.7-4.9-21.5,1L235.3,443.3C232.2,446.4,228.1,448,224,448
	z"/>
</svg>
