<?xml version="1.0" encoding="utf-8"?>
<!-- Generator: Adobe Illustrator 25.4.1, SVG Export Plug-In . SVG Version: 6.00 Build 0)  -->
<svg version="1.1" id="Calque_1" xmlns="http://www.w3.org/2000/svg" xmlns:xlink="http://www.w3.org/1999/xlink" x="0px" y="0px"
	 viewBox="0 0 512 512" style="enable-background:new 0 0 512 512;" xml:space="preserve">
<path d="M80,416H64c-35.2-0.1-63.9-28.8-64-64V96c0.1-35.2,28.8-63.9,64-64h320c35.2,0.1,63.9,28.8,64,64v16h-32V96
	c-0.1-17.6-14.4-31.9-32-32H64c-17.6,0.1-31.9,14.4-32,32v256c0.1,17.6,14.4,31.9,32,32h16V416z"/>
<path d="M450,480H142c-34.2,0-62-27.8-62-62V174c0-34.2,27.8-62,62-62h308c34.2,0,62,27.8,62,62v244C512,452.2,484.2,480,450,480z
	 M142,144c-16.5,0-30,13.5-30,30v244c0,16.5,13.5,30,30,30h308c16.5,0,30-13.5,30-30V174c0-16.5-13.5-30-30-30H142z"/>
<path d="M372.9,266.2c-25.8,0-46.8-20.9-46.8-46.6c0-25.7,21-46.6,46.8-46.6s46.8,20.9,46.8,46.6
	C419.7,245.3,398.7,266.2,372.9,266.2z M372.9,205.1c-8.1,0-14.8,6.5-14.8,14.6s6.6,14.5,14.8,14.5c8.1,0,14.8-6.5,14.8-14.5
	S381.1,205.1,372.9,205.1z"/>
<path d="M96,403.6c-4.4,0-8.8-1.8-12-5.4c-5.8-6.6-5.2-16.7,1.4-22.6l116.8-103.1c18.4-16.2,46.5-15.4,64,1.8l87.2,86.4
	c6.3,6.2,6.3,16.4,0.1,22.6c-6.2,6.3-16.4,6.3-22.6,0.1l-87.2-86.4c-5.5-5.5-14.5-5.7-20.3-0.6L106.6,399.6
	C103.5,402.3,99.8,403.6,96,403.6z"/>
<path d="M265.2,480c-4.1,0-8.2-1.6-11.4-4.7c-6.2-6.3-6.2-16.4,0.1-22.6l118.6-117.7c17.2-17,44.2-18.2,62.9-2.9l70.8,58.5
	c6.8,5.6,7.8,15.7,2.1,22.5c-5.6,6.8-15.7,7.8-22.5,2.1l-70.7-58.5c-5.9-4.9-14.5-4.5-20,0.9L276.5,475.4
	C273.4,478.5,269.3,480,265.2,480z"/>
</svg>
