<?xml version="1.0" encoding="utf-8"?>
<!-- Generator: Adobe Illustrator 25.4.1, SVG Export Plug-In . SVG Version: 6.00 Build 0)  -->
<svg version="1.1" id="Calque_1" xmlns="http://www.w3.org/2000/svg" xmlns:xlink="http://www.w3.org/1999/xlink" x="0px" y="0px"
	 viewBox="0 0 512 512" style="enable-background:new 0 0 512 512;" xml:space="preserve">
<path d="M130,368c-62.9,0-114-50.2-114-112s51.1-112,114-112c86.9,0,138.2,100.6,140.3,104.8c4,7.9,0.7,17.5-7.2,21.5
	c-7.9,3.9-17.5,0.8-21.5-7.1C241.1,262,196.9,176,130,176c-45.2,0-82,35.9-82,80s36.8,80,82,80c27.8,0,57.7-15.6,82.1-42.7
	c5.9-6.6,16-7.1,22.6-1.2c6.6,5.9,7.1,16,1.2,22.6c-13.6,15.1-29.4,27.9-45.7,36.9C170.5,362.5,150.2,368,130,368z"/>
<path d="M382,368c-86.9,0-138.2-100.6-140.3-104.8c-4-7.9-0.7-17.5,7.2-21.5c7.9-3.9,17.5-0.8,21.5,7.1C270.9,250,315.1,336,382,336
	c45.2,0,82-35.9,82-80s-36.8-80-82-80c-27.8,0-57.7,15.6-82.1,42.7c-5.9,6.6-16,7.1-22.6,1.2c-6.6-5.9-7.1-16-1.2-22.6
	c13.6-15.1,29.4-27.9,45.7-36.9c19.7-10.9,39.9-16.4,60.2-16.4c62.9,0,114,50.2,114,112S444.9,368,382,368z"/>
</svg>
