<?xml version="1.0" encoding="utf-8"?>
<!-- Generator: Adobe Illustrator 25.4.1, SVG Export Plug-In . SVG Version: 6.00 Build 0)  -->
<svg version="1.1" id="Calque_1" xmlns="http://www.w3.org/2000/svg" xmlns:xlink="http://www.w3.org/1999/xlink" x="0px" y="0px"
	 viewBox="0 0 512 512" style="enable-background:new 0 0 512 512;" xml:space="preserve">
<path d="M256,480c-59.8,0-116.1-23.3-158.4-65.6C55.3,372.1,32,315.8,32,256c0-59.8,23.3-116.1,65.6-158.4S196.2,32,256,32
	c59.8,0,116.1,23.3,158.4,65.6C456.7,139.9,480,196.2,480,256c0,59.8-23.3,116.1-65.6,158.4C372.1,456.7,315.8,480,256,480z M256,64
	C150.1,64,64,150.1,64,256s86.1,192,192,192s192-86.1,192-192S361.9,64,256,64z"/>
<path d="M256,176v160c-44.2,0-80-35.8-80-80S211.8,176,256,176z"/>
<path d="M256,48v128c44.2,0,80,35.8,80,80s-35.8,80-80,80v128c114.9,0,208-93.1,208-208S370.9,48,256,48z"/>
</svg>
