<?xml version="1.0" encoding="utf-8"?>
<!-- Generator: Adobe Illustrator 25.4.1, SVG Export Plug-In . SVG Version: 6.00 Build 0)  -->
<svg version="1.1" id="Calque_1" xmlns="http://www.w3.org/2000/svg" xmlns:xlink="http://www.w3.org/1999/xlink" x="0px" y="0px"
	 viewBox="0 0 512 512" style="enable-background:new 0 0 512 512;" xml:space="preserve">
<path d="M336,128H48c-8.8,0-16-7.2-16-16s7.2-16,16-16h288c8.8,0,16,7.2,16,16S344.8,128,336,128z"/>
<path d="M192,128c-8.8,0-16-7.2-16-16V64c0-8.8,7.2-16,16-16s16,7.2,16,16v48C208,120.8,200.8,128,192,128z"/>
<path d="M464,464c-6.2,0-12.1-3.6-14.7-9.7L368,264.6l-81.3,189.7c-3.5,8.1-12.9,11.9-21,8.4c-8.1-3.5-11.9-12.9-8.4-21l96-224
	c2.5-5.9,8.3-9.7,14.7-9.7s12.2,3.8,14.7,9.7l96,224c3.5,8.1-0.3,17.5-8.4,21C468.2,463.6,466.1,464,464,464z"/>
<path d="M434.5,400h-133c-8.8,0-16-7.2-16-16s7.2-16,16-16h133c8.8,0,16,7.2,16,16S443.3,400,434.5,400z"/>
<path d="M80,400c-5.5,0-10.8-2.8-13.8-7.9c-4.5-7.6-2-17.4,5.6-21.9c0.6-0.3,59.4-35.6,114.7-103.3c55-67.3,79-158,79.2-158.9
	c2.2-8.5,10.9-13.7,19.5-11.5c8.6,2.2,13.7,10.9,11.5,19.5c-1,4-25.9,98.2-85.4,171.1C152.3,359.5,90.7,396.2,88.1,397.8
	C85.6,399.3,82.8,400,80,400z"/>
<path d="M256,352c-3.4,0-6.8-1.1-9.8-3.3c-1.5-1.2-37.1-28.8-74.9-77.9c-37.5-48.6-56.8-85.9-57.6-87.5c-4-7.9-0.9-17.5,6.9-21.5
	c7.9-4,17.5-0.9,21.5,6.9c0.2,0.4,18.9,36.4,54.4,82.5c35.1,45.6,68.8,71.8,69.1,72.1c7,5.4,8.3,15.5,2.9,22.4
	C265.5,349.9,260.8,352,256,352z"/>
</svg>
