<?xml version="1.0" encoding="utf-8"?>
<!-- Generator: Adobe Illustrator 25.4.1, SVG Export Plug-In . SVG Version: 6.00 Build 0)  -->
<svg version="1.1" id="Calque_1" xmlns="http://www.w3.org/2000/svg" xmlns:xlink="http://www.w3.org/1999/xlink" x="0px" y="0px"
	 viewBox="0 0 512 512" style="enable-background:new 0 0 512 512;" xml:space="preserve">
<path d="M280.2,463.6c-49.3,0-98.9-19.2-136.9-53.9C90,361.1,62.2,279.7,48.3,220C32.5,152.7,28.9,88.9,34.5,66.2
	c2.4-9.7,7.4-15.6,14.8-17.6c6.5-1.7,13.4,0.4,18.3,5.7c44.9,47.5,92,55.5,141.8,63.8c39.5,6.6,80.3,13.5,121.1,39.9l0,0
	c45.8,29.6,77,69.3,90.5,114.9c12.9,43.8,7.7,89-14.8,127.3c-19.1,32.5-54.9,54.9-98.3,61.5C298.8,462.9,289.5,463.6,280.2,463.6z
	 M64,94.8c0,23.7,3.2,64,14.2,112.8c18.1,80.6,48.9,144,86.6,178.5c38.1,34.8,89.8,51.2,138.3,43.8c34.3-5.2,61.1-21.5,75.5-46
	c38.7-65.9,11.1-149.6-65.5-199l0,0c-35.3-22.8-71.1-28.8-109.1-35.2C157.9,141.9,110.2,133.9,64,94.8z M44.4,76.2
	C44.4,76.2,44.4,76.2,44.4,76.2C44.4,76.2,44.4,76.2,44.4,76.2z"/>
<path d="M465,416c-0.8,0-1.6-0.1-2.5-0.2C346.8,398,254.1,351.4,162,264.6c-6.4-6.1-6.7-16.2-0.7-22.6c6.1-6.4,16.2-6.7,22.6-0.7
	c87.1,82,174.5,126.1,283.5,142.8c8.7,1.3,14.7,9.5,13.4,18.2C479.6,410.3,472.8,416,465,416z"/>
</svg>
