<?xml version="1.0" encoding="utf-8"?>
<!-- Generator: Adobe Illustrator 25.4.1, SVG Export Plug-In . SVG Version: 6.00 Build 0)  -->
<svg version="1.1" id="Calque_1" xmlns="http://www.w3.org/2000/svg" xmlns:xlink="http://www.w3.org/1999/xlink" x="0px" y="0px"
	 viewBox="0 0 512 512" style="enable-background:new 0 0 512 512;" xml:space="preserve">
<path d="M80,480H48c-17.6,0-32-14.4-32-32V112c0-17.6,14.4-32,32-32h32c17.6,0,32,14.4,32,32v336C112,465.6,97.6,480,80,480z
	 M48,112C48,112,48,112,48,112v336h32V112H48z"/>
<path d="M240,240H112c-8.8,0-16-7.2-16-16s7.2-16,16-16h128c8.8,0,16,7.2,16,16S248.8,240,240,240z"/>
<path d="M240,416H112c-8.8,0-16-7.2-16-16s7.2-16,16-16h128c8.8,0,16,7.2,16,16S248.8,416,240,416z"/>
<path d="M224,480h-96c-17.6,0-32-14.4-32-32V176c0-17.6,14.4-32,32-32h96c17.6,0,32,14.4,32,32v272C256,465.6,241.6,480,224,480z
	 M128,176C128,176,128,176,128,176v272h96V176H128z"/>
<path d="M336,480h-64c-17.6,0-32-14.4-32-32V64c0-17.6,14.4-32,32-32h64c17.6,0,32,14.4,32,32v384C368,465.6,353.6,480,336,480z
	 M272,64C272,64,272,64,272,64v384h64V64H272z"/>
<path d="M419.5,480c-18.4,0-34.3-14.2-36.4-33.2l-34.9-321.6c-1.1-10,1.8-19.8,8-27.5c6.1-7.5,14.6-12.2,24.1-13.2l40.4-4.2
	c19.8-2.1,37.8,12.7,40.1,33l34.9,321.6c1.1,10-1.8,19.8-8,27.5c-6.1,7.5-14.6,12.2-24.1,13.2l-40.4,4.2
	C422,479.9,420.7,480,419.5,480z M424.1,112l-40.4,4.2c-1.2,0.1-2.1,0.9-2.6,1.5c-0.5,0.6-1.3,2-1.1,4L415,443.3
	c0.3,2.7,2.6,4.9,4.9,4.7l40.4-4.2c1.2-0.1,2.1-0.9,2.6-1.5c0.5-0.6,1.3-2,1.1-4l-34.9-321.5C428.8,114,426.5,111.8,424.1,112
	L424.1,112z"/>
</svg>
