<?xml version="1.0" encoding="utf-8"?>
<!-- Generator: Adobe Illustrator 25.4.1, SVG Export Plug-In . SVG Version: 6.00 Build 0)  -->
<svg version="1.1" id="Calque_1" xmlns="http://www.w3.org/2000/svg" xmlns:xlink="http://www.w3.org/1999/xlink" x="0px" y="0px"
	 viewBox="0 0 512 512" style="enable-background:new 0 0 512 512;" xml:space="preserve">
<rect x="232" y="32" width="48" height="88"/>
<rect x="232" y="392" width="48" height="88"/>
<path d="M256,424c-92.6,0-168-75.4-168-168S163.4,88,256,88s168,75.4,168,168S348.6,424,256,424z M256,136c-66.2,0-120,53.8-120,120
	c0,66.2,53.8,120,120,120c66.2,0,120-53.8,120-120C376,189.8,322.2,136,256,136z"/>
<rect x="392" y="232" width="88" height="48"/>
<rect x="32" y="232" width="88" height="48"/>
</svg>
