<?xml version="1.0" encoding="utf-8"?>
<!-- Generator: Adobe Illustrator 25.4.1, SVG Export Plug-In . SVG Version: 6.00 Build 0)  -->
<svg version="1.1" id="icons" xmlns="http://www.w3.org/2000/svg" xmlns:xlink="http://www.w3.org/1999/xlink" x="0px" y="0px"
	 viewBox="0 0 512 512" style="enable-background:new 0 0 512 512;" xml:space="preserve">
<path d="M310.8,80c-2.7,0-5.5-0.7-8-2.2L256,50.5l-46.8,27.3c-7.6,4.5-17.4,1.9-21.9-5.8c-4.5-7.6-1.9-17.4,5.8-21.9l54.9-32
	c5-2.9,11.1-2.9,16.1,0l54.9,32c7.6,4.5,10.2,14.2,5.8,21.9C321.7,77.2,316.3,80,310.8,80z"/>
<path d="M256,128c-8.8,0-16-7.2-16-16V32c0-8.8,7.2-16,16-16c8.8,0,16,7.2,16,16v80C272,120.8,264.8,128,256,128z"/>
<path d="M256,496c-2.8,0-5.6-0.7-8.1-2.2l-54.9-32c-7.6-4.5-10.2-14.2-5.8-21.9c4.5-7.6,14.3-10.2,21.9-5.8l46.8,27.3l46.8-27.3
	c7.6-4.5,17.4-1.9,21.9,5.8c4.5,7.6,1.9,17.4-5.8,21.9l-54.9,32C261.6,495.3,258.8,496,256,496z"/>
<path d="M256,496c-8.8,0-16-7.2-16-16v-80c0-8.8,7.2-16,16-16c8.8,0,16,7.2,16,16v80C272,488.8,264.8,496,256,496z"/>
<path d="M64,223.5c-8.8,0-16-7.2-16-16V144c0-5.7,3-10.9,7.8-13.8L109,98.7c7.6-4.5,17.4-2,21.9,5.6c4.5,7.6,2,17.4-5.6,21.9
	L80,153.1v54.4C80,216.3,72.8,223.5,64,223.5z"/>
<path d="M131.3,200c-2.8,0-5.6-0.7-8.2-2.2l-67.3-40c-7.6-4.5-10.1-14.3-5.6-21.9c4.5-7.6,14.3-10.1,21.9-5.6l67.3,40
	c7.6,4.5,10.1,14.3,5.6,21.9C142.1,197.2,136.7,200,131.3,200z"/>
<path d="M394.9,415.5c-5.5,0-10.8-2.8-13.8-7.8c-4.5-7.6-2-17.4,5.6-21.9l45.3-26.9v-54.4c0-8.8,7.2-16,16-16s16,7.2,16,16V368
	c0,5.7-3,10.9-7.8,13.8L403,413.3C400.5,414.8,397.6,415.5,394.9,415.5z"/>
<path d="M448,384c-2.8,0-5.6-0.7-8.2-2.2l-67.3-40c-7.6-4.5-10.1-14.3-5.6-21.9s14.3-10.1,21.9-5.6l67.3,40
	c7.6,4.5,10.1,14.3,5.6,21.9C458.8,381.2,453.4,384,448,384z"/>
<path d="M117.1,416c-2.8,0-5.7-0.7-8.2-2.3l-53.1-32c-4.8-2.9-7.7-8.1-7.7-13.7v-63.5c0-8.8,7.2-16,16-16s16,7.2,16,16V359
	l45.4,27.3c7.6,4.6,10,14.4,5.5,22C127.9,413.2,122.6,416,117.1,416z"/>
<path d="M64,384c-5.4,0-10.7-2.8-13.7-7.8c-4.5-7.6-2.1-17.4,5.5-22l66.6-40c7.6-4.5,17.4-2.1,22,5.5c4.5,7.6,2.1,17.4-5.5,22
	l-66.6,40C69.7,383.3,66.8,384,64,384z"/>
<path d="M448,223.5c-8.8,0-16-7.2-16-16v-54.4l-45.3-26.9c-7.6-4.5-10.1-14.3-5.6-21.9c4.5-7.6,14.3-10.1,21.9-5.6l53.2,31.5
	c4.9,2.9,7.8,8.1,7.8,13.8v63.5C464,216.3,456.8,223.5,448,223.5z"/>
<path d="M380.7,200c-5.5,0-10.8-2.8-13.8-7.8c-4.5-7.6-2-17.4,5.6-21.9l67.3-40c7.6-4.5,17.4-2,21.9,5.6c4.5,7.6,2,17.4-5.6,21.9
	l-67.3,40C386.3,199.3,383.5,200,380.7,200z"/>
<path d="M256,336c-8.8,0-16-7.2-16-16v-73.2l62.8-36.6c7.6-4.5,17.4-1.9,21.9,5.8c4.5,7.6,1.9,17.4-5.8,21.9L272,265.2V320
	C272,328.8,264.8,336,256,336z"/>
<path d="M256,272c-2.7,0-5.5-0.7-8-2.2l-54.9-32c-7.6-4.5-10.2-14.2-5.8-21.9c4.5-7.6,14.3-10.2,21.9-5.8l54.9,32
	c7.6,4.5,10.2,14.2,5.8,21.9C266.8,269.2,261.5,272,256,272z"/>
</svg>
