<?xml version="1.0" encoding="utf-8"?>
<!-- Generator: Adobe Illustrator 25.4.1, SVG Export Plug-In . SVG Version: 6.00 Build 0)  -->
<svg version="1.1" id="Calque_1" xmlns="http://www.w3.org/2000/svg" xmlns:xlink="http://www.w3.org/1999/xlink" x="0px" y="0px"
	 viewBox="0 0 512 512" style="enable-background:new 0 0 512 512;" xml:space="preserve">
<rect x="176" y="399.6" width="32" height="80"/>
<rect x="67.1" y="388.4" transform="matrix(0.7071 -0.7071 0.7071 0.7071 -254.5999 194.2112)" width="80" height="32"/>
<rect x="32" y="303.6" width="80" height="32"/>
<path d="M422.2,89.8C366,33.5,274.8,33.5,218.6,89.7c0,0,0,0-0.1,0.1l-67.9,67.9l67.9,67.9l67.9-67.9c18.7-18.7,49.1-18.7,67.9,0
	c0.2,0.2,0.4,0.4,0.6,0.6c18.3,18.9,17.5,49.2-1.1,67.9l-67.3,67.3l67.9,67.9l66.9-66.9C477.5,238,478.5,146.2,422.2,89.8z"/>
<rect x="107.3" y="188.8" transform="matrix(0.7071 -0.7071 0.7071 0.7071 -126.6687 167.857)" width="64" height="96"/>
<rect x="243.1" y="324.6" transform="matrix(0.7071 -0.7071 0.7071 0.7071 -182.8942 303.6225)" width="64" height="96"/>
</svg>
