<?xml version="1.0" encoding="utf-8"?>
<!-- Generator: Adobe Illustrator 25.4.1, SVG Export Plug-In . SVG Version: 6.00 Build 0)  -->
<svg version="1.1" id="Calque_1" xmlns="http://www.w3.org/2000/svg" xmlns:xlink="http://www.w3.org/1999/xlink" x="0px" y="0px"
	 viewBox="0 0 512 512" style="enable-background:new 0 0 512 512;" xml:space="preserve">
<path d="M433.1,305.1l-22.6-22.6c49.9-49.9,49.9-131.1,0-181C386.3,77.3,354.2,64,320,64s-66.3,13.3-90.5,37.5l-22.6-22.6
	C237.1,48.6,277.3,32,320,32s82.9,16.6,113.1,46.9C495.5,141.2,495.5,242.7,433.1,305.1z"/>
<path d="M365.3,237.2l-22.8-22.4c6-6.1,9.3-14.2,9.2-22.7c-0.1-8.5-3.5-16.6-9.6-22.5c-12.4-12.2-32.5-12.2-44.9,0l-22.4-22.8
	c12-11.9,28-18.4,44.9-18.4c16.9,0,32.8,6.5,44.9,18.4c12.2,12,19,28,19.1,45.1C383.9,208.8,377.3,225,365.3,237.2z"/>
<path d="M192,480c-8.8,0-16-7.2-16-16v-48c0-8.8,7.2-16,16-16s16,7.2,16,16v48C208,472.8,200.8,480,192,480z"/>
<path d="M90.2,437.8c-4.1,0-8.2-1.6-11.3-4.7c-6.2-6.2-6.2-16.4,0-22.6l33.9-33.9c6.2-6.2,16.4-6.2,22.6,0c6.2,6.2,6.2,16.4,0,22.6
	l-33.9,33.9C98.4,436.3,94.3,437.8,90.2,437.8z"/>
<path d="M96,336H48c-8.8,0-16-7.2-16-16s7.2-16,16-16h48c8.8,0,16,7.2,16,16S104.8,336,96,336z"/>
<path d="M150.3,296.5c-12.3,0-24.6-4.7-33.9-14l-22.7-22.6C75,241.2,75,210.7,93.7,192c0,0,0.1-0.1,0.1-0.1L206.9,78.9l22.6,22.6
	L116.3,214.6c0,0,0,0-0.1,0.1c-6.2,6.2-6.2,16.4,0.1,22.6l22.7,22.6c6.2,6.2,16.4,6.2,22.6,0l113.1-113.1l22.6,22.6L184.2,282.5
	C174.9,291.9,162.6,296.5,150.3,296.5z"/>
<path d="M286.1,432.4c-12.8,0-24.8-4.9-33.8-13.9c0,0-0.1-0.1-0.1-0.1l-22.6-22.6c-9.1-9.1-14.1-21.1-14.1-33.9
	c0-12.8,5-24.8,14-33.9c0,0,0.1-0.1,0.1-0.1l113.1-113.1l22.6,22.6L252.1,350.4c0,0,0,0-0.1,0.1c-6.2,6.2-6.2,16.4,0.1,22.6
	l22.5,22.5c0,0,0.1,0.1,0.1,0.1c3,3,7,4.7,11.3,4.7c4.3,0,8.3-1.7,11.3-4.7l113.1-113.2l22.6,22.6L320,418.3
	C310.9,427.4,298.9,432.4,286.1,432.4C286.1,432.4,286.1,432.4,286.1,432.4z"/>
<rect x="157.5" y="155.9" transform="matrix(0.7072 -0.7071 0.7071 0.7072 -93.3665 182.4194)" width="32" height="96"/>
<rect x="293.3" y="291.7" transform="matrix(0.7071 -0.7072 0.7072 0.7071 -149.6052 318.2377)" width="32" height="96"/>
</svg>
