<?xml version="1.0" encoding="utf-8"?>
<!-- Generator: Adobe Illustrator 25.4.1, SVG Export Plug-In . SVG Version: 6.00 Build 0)  -->
<svg version="1.1" id="Calque_1" xmlns="http://www.w3.org/2000/svg" xmlns:xlink="http://www.w3.org/1999/xlink" x="0px" y="0px"
	 viewBox="0 0 512 512" style="enable-background:new 0 0 512 512;" xml:space="preserve">
<path d="M192,479.8c-8.8,0-16-7.2-16-16v-48c0-8.8,7.2-16,16-16s16,7.2,16,16v48C208,472.6,200.8,479.8,192,479.8z"/>
<path d="M90.2,437.6c-4.1,0-8.2-1.6-11.3-4.7c-6.2-6.2-6.2-16.4,0-22.6l33.9-33.9c6.2-6.2,16.4-6.2,22.6,0c6.2,6.2,6.2,16.4,0,22.6
	l-33.9,33.9C98.3,436,94.3,437.6,90.2,437.6z"/>
<path d="M96,335.8H48c-8.8,0-16-7.2-16-16s7.2-16,16-16h48c8.8,0,16,7.2,16,16S104.8,335.8,96,335.8z"/>
<path d="M267.6,312.3l-31.1,31.1c-6.2,6.2-6.3,16.4,0,22.6c0,0,0,0,0,0l45.3,45.2c6.2,6.2,16.4,6.2,22.6,0l31.1-31.1
	c1.6-1.6,1.6-4.1,0-5.7c0,0,0,0,0,0l-62.2-62.2C271.7,310.8,269.1,310.8,267.6,312.3C267.6,312.3,267.6,312.3,267.6,312.3z"/>
<path d="M131.8,176.6l-31.1,31.1c-6.2,6.2-6.2,16.4,0,22.6l45.2,45.3c6.2,6.2,16.4,6.3,22.6,0c0,0,0,0,0,0l31.1-31.1
	c1.6-1.6,1.6-4.1,0-5.7c0,0,0,0,0,0l-62.2-62.2C135.9,175,133.4,175,131.8,176.6C131.8,176.5,131.8,176.5,131.8,176.6z"/>
<path d="M428.9,83.3C372.6,27,281.5,27,225.2,83.2c0,0,0,0-0.1,0.1l-65.1,65.1c-1.6,1.6-1.6,4.1,0,5.7c0,0,0,0,0,0l62.2,62.2
	c1.6,1.6,4.1,1.6,5.7,0c0,0,0,0,0,0l65-65.1c18.7-18.7,49.1-18.7,67.9,0c0.2,0.2,0.4,0.4,0.6,0.6c18.3,18.9,17.5,49.2-1.1,67.9
	L295.9,284c-1.6,1.6-1.6,4.1,0,5.7c0,0,0,0,0,0l62.2,62.2c1.6,1.6,4.1,1.6,5.7,0c0,0,0,0,0,0l64.1-64.1
	C484.2,231.5,485.2,139.7,428.9,83.3z"/>
</svg>
