<?xml version="1.0" encoding="utf-8"?>
<!-- Generator: Adobe Illustrator 25.4.1, SVG Export Plug-In . SVG Version: 6.00 Build 0)  -->
<svg version="1.1" id="Calque_1" xmlns="http://www.w3.org/2000/svg" xmlns:xlink="http://www.w3.org/1999/xlink" x="0px" y="0px"
	 viewBox="0 0 512 512" style="enable-background:new 0 0 512 512;" xml:space="preserve">
<path d="M422.7,432H88c-30.9,0-56-25.1-56-56V136c0-30.9,25.1-56,56-56h232c8.8,0,16,7.2,16,16s-7.2,16-16,16H88
	c-13.2,0-24,10.8-24,24v240c0,13.2,10.8,24,24,24h334.7c13.2,0,24-10.8,24-24V239c0-8.8,7.2-16,16-16s16,7.2,16,16v137
	C478.7,406.9,453.6,432,422.7,432z"/>
<path d="M256,288c-3.5,0-6.9-1.1-9.8-3.4l-144-112c-7-5.4-8.2-15.5-2.8-22.5c5.4-7,15.5-8.2,22.5-2.8l134.3,104.5l77.2-58.3
	c7.1-5.3,17.1-3.9,22.4,3.1c5.3,7.1,3.9,17.1-3.1,22.4l-87,65.7C262.8,286.9,259.4,288,256,288z"/>
<circle cx="432" cy="128.1" r="48"/>
<path d="M432,192c-35.3,0-63.9-28.6-63.9-64s28.6-63.9,64-63.9s63.9,28.6,63.9,64C495.9,163.4,467.3,192,432,192z M432,96.1
	c-17.7,0-32,14.3-32,31.9c0,17.7,14.3,32,31.9,32c17.7,0,32-14.3,32-31.9c0,0,0,0,0,0C464,110.4,449.7,96.1,432,96.1z"/>
</svg>
