<?xml version="1.0" encoding="utf-8"?>
<!-- Generator: Adobe Illustrator 25.4.1, SVG Export Plug-In . SVG Version: 6.00 Build 0)  -->
<svg version="1.1" id="Calque_1" xmlns="http://www.w3.org/2000/svg" xmlns:xlink="http://www.w3.org/1999/xlink" x="0px" y="0px"
	 viewBox="0 0 512 512" style="enable-background:new 0 0 512 512;" xml:space="preserve">
<path d="M423.5,448h-335C57.4,448,32,422.9,32,392V207.4c0.1-21.5,12.1-40.7,31.4-50.1L238,71c11.2-5.5,24.7-5.5,35.9,0l174.7,86.2
	c19.3,9.4,31.3,28.6,31.4,50.1V392C480,422.9,454.7,448,423.5,448z M256,98.8c-1.3,0-2.6,0.3-3.8,0.9L77.5,186
	C69.2,190,64,198.2,64,207.4V392c0,13.2,11,24,24.5,24h335c13.5,0,24.5-10.8,24.5-24V207.4c0-9.1-5.2-17.4-13.5-21.4c0,0,0,0-0.1,0
	L259.8,99.7C258.6,99.1,257.3,98.8,256,98.8z"/>
<path d="M109.3,384c-4.8,0-9.5-2.1-12.6-6.2c-5.4-7-4.2-17,2.8-22.5l129.3-100.5c14.5-11.2,34.7-11.2,49.1,0l129.3,100.5
	c7,5.4,8.2,15.5,2.8,22.5c-5.4,7-15.5,8.2-22.5,2.8L258.2,280.1c-2.9-2.2-6.9-2.2-9.8,0L119.2,380.6
	C116.2,382.9,112.8,384,109.3,384z"/>
<path d="M309.3,311c-4.8,0-9.6-2.2-12.8-6.3c-5.3-7-3.9-17.1,3.1-22.4l136-103c7-5.3,17.1-4,22.4,3.1c5.3,7,3.9,17.1-3.1,22.4
	l-136,103C316.1,309.9,312.7,311,309.3,311z"/>
<path d="M200.3,313c-3.4,0-6.7-1.1-9.6-3.2l-139-105c-7.1-5.3-8.4-15.4-3.1-22.4c5.3-7.1,15.4-8.4,22.4-3.1l139,105
	c7.1,5.3,8.4,15.4,3.1,22.4C210,310.8,205.2,313,200.3,313z"/>
</svg>
