<?xml version="1.0" encoding="utf-8"?>
<!-- Generator: Adobe Illustrator 25.4.1, SVG Export Plug-In . SVG Version: 6.00 Build 0)  -->
<svg version="1.1" id="Calque_1" xmlns="http://www.w3.org/2000/svg" xmlns:xlink="http://www.w3.org/1999/xlink" x="0px" y="0px"
	 viewBox="0 0 512 512" style="enable-background:new 0 0 512 512;" xml:space="preserve">
<path d="M325.2,480c-7.5,0-15-1.7-21.8-5.2c-0.5-0.3-1-0.5-1.5-0.9l-111-72.4c-4.3-2-9.3-1.9-13.6,0.2L80.2,465
	c-0.4,0.3-0.8,0.5-1.2,0.7c-4.6,2.4-9.8,3.7-15,3.7c-17.6,0-32-14.4-32-32V141.6c0-11.6,6.2-22.1,16.2-27.8l112.4-75.4
	c0.5-0.3,0.9-0.6,1.4-0.9c13.7-7.2,30.1-7.4,43.9-0.5c0.5,0.3,1,0.5,1.5,0.8L321,110.6c4.3,1.9,9.2,1.8,13.4-0.2L431.8,47
	c0.4-0.3,0.8-0.5,1.2-0.7c4.6-2.4,9.8-3.7,15-3.7c8.5,0,16.6,3.3,22.6,9.4c6,6,9.4,14.1,9.4,22.6v295.7c0,11.7-6.3,22.3-16.4,27.9
	l-114.9,75.6c-0.5,0.3-0.9,0.6-1.4,0.8C340.4,478.2,332.8,480,325.2,480z M318.6,446.6c4.2,1.9,9.2,1.9,13.4-0.1l114.6-75.4
	c0.5-0.3,0.9-0.6,1.4-0.8l0-295.6l-96.8,63c-0.4,0.3-0.8,0.5-1.3,0.7c-13.6,7.2-30,7.4-43.9,0.5c-0.5-0.3-1-0.5-1.5-0.8L190.9,65.4
	c-4.3-1.9-9.2-1.8-13.4,0.2L65.4,140.8c-0.5,0.3-0.9,0.6-1.4,0.9l0,295.7l96.6-63c0.4-0.3,0.8-0.5,1.2-0.7
	c13.8-7.3,30.3-7.4,44.2-0.4c0.5,0.3,1,0.5,1.5,0.9L318.6,446.6z"/>
<path d="M328,480c-8.8,0-16-7.2-16-16V128c0-8.8,7.2-16,16-16s16,7.2,16,16v336C344,472.8,336.8,480,328,480z"/>
<path d="M184,400c-8.8,0-16-7.2-16-16V48c0-8.8,7.2-16,16-16s16,7.2,16,16v336C200,392.8,192.8,400,184,400z"/>
</svg>
