<?xml version="1.0" encoding="utf-8"?>
<!-- Generator: Adobe Illustrator 25.4.1, SVG Export Plug-In . SVG Version: 6.00 Build 0)  -->
<svg version="1.1" id="Calque_1" xmlns="http://www.w3.org/2000/svg" xmlns:xlink="http://www.w3.org/1999/xlink" x="0px" y="0px"
	 viewBox="0 0 512 512" style="enable-background:new 0 0 512 512;" xml:space="preserve">
<path d="M416.4,416c-8.4,0-16.1-3.5-21.1-9.9C392.5,402.5,311.6,304,240,304H80c-17.6,0-32-14.4-32-32v-96c0-17.6,14.4-32,32-32h160
	c72,0,153.2-99.1,155.4-101.8c7.3-9.3,19.8-12.6,31.7-8.5C439.6,38,448,49.4,448,62v324.4c0,12.6-8.3,23.6-21.1,27.9
	C423.4,415.4,419.9,416,416.4,416z M80,176v96h160c78,0,156.6,86.1,176,108.9V67.5C396.6,90.2,318,176,240,176H80z M407.9,52.2
	L407.9,52.2L407.9,52.2z"/>
<path d="M62.1,271.7c-1.2,0-2.4-0.2-3.7-0.7c-9.8-3.7-26.4-17.7-26.4-47s16.6-43.3,26.4-47c8.3-3.1,17.5,1.1,20.6,9.4
	c3,8-0.9,17-8.7,20.3c-1,0.6-6.3,4.2-6.3,17.3c0,8.6,2.3,13.1,4.2,15.4l1.4,1.6c4.8,5.5,8.5,15.8,4.3,21.9
	C70.6,267.7,67,271.7,62.1,271.7z M69.6,207C69.6,207,69.6,207,69.6,207C69.6,207,69.6,207,69.6,207z M69.7,207
	C69.6,207,69.6,207,69.7,207C69.6,207,69.6,207,69.7,207z"/>
<path d="M452.2,261.4l-8.4-30.9c0,0-0.2,0-0.4,0.1c4.6-1.6,4.6-5.4,4.6-6.7s0-5.1-4.6-6.7c0.3,0.1,0.4,0.1,0.4,0.1l8.4-30.9
	c9.6,2.6,27.8,13.8,27.8,37.4S461.8,258.8,452.2,261.4z"/>
<path d="M256,304c-8.8,0-16-7.2-16-16V160c0-8.8,7.2-16,16-16c8.8,0,16,7.2,16,16v128C272,296.8,264.8,304,256,304z"/>
<path d="M112,304c-8.8,0-16-7.2-16-16V160c0-8.8,7.2-16,16-16s16,7.2,16,16v128C128,296.8,120.8,304,112,304z"/>
<path d="M205,480C205,480,205,480,205,480h-53c-13.2,0-24-10.8-24-24V288c0-8.8,7.2-16,16-16s16,7.2,16,16v160h45
	c-2-6.4-4.9-13.5-8-21c-9.3-22.7-21-51-21-91c0-8.8,7.2-16,16-16h16v-16h-16c-8.8,0-16-7.2-16-16s7.2-16,16-16h16
	c17.6,0,32,14.4,32,32v16c0,17.4-13.9,31.6-31.2,32c2.5,25.5,10.5,45.1,17.8,62.8c3.4,8.2,6.6,15.9,9,23.7c1,3.1,1.4,6.3,1.4,9.5
	c0,8.5-3.3,16.6-9.4,22.6C221.6,476.7,213.5,480,205,480z"/>
</svg>
