<?xml version="1.0" encoding="utf-8"?>
<!-- Generator: Adobe Illustrator 25.4.1, SVG Export Plug-In . SVG Version: 6.00 Build 0)  -->
<svg version="1.1" id="Calque_1" xmlns="http://www.w3.org/2000/svg" xmlns:xlink="http://www.w3.org/1999/xlink" x="0px" y="0px"
	 viewBox="0 0 512 512" style="enable-background:new 0 0 512 512;" xml:space="preserve">
<path d="M320,464H192c-8.8,0-16-7.2-16-16s7.2-16,16-16h128c8.8,0,16,7.2,16,16S328.8,464,320,464z"/>
<path d="M256,384c-79.4,0-144-64.6-144-144v-32c0-8.8,7.2-16,16-16s16,7.2,16,16v32c0,61.8,50.2,112,112,112s112-50.2,112-112v-32
	c0-8.8,7.2-16,16-16s16,7.2,16,16v32C400,319.4,335.4,384,256,384z"/>
<path d="M256,464c-8.8,0-16-7.2-16-16v-80c0-8.8,7.2-16,16-16c8.8,0,16,7.2,16,16v80C272,456.8,264.8,464,256,464z"/>
<path d="M256,320c-21.2,0-41.3-8.6-56.5-24.1C184.3,280.5,176,260.3,176,239V127.3c0.2-43.8,35.9-79.3,79.7-79.3c0.1,0,0.2,0,0.4,0
	c44.8,0,80,35.2,80,80v111C336,283.7,300.1,320,256,320z M255.7,80c-12.6,0-24.5,4.9-33.5,13.8c-9.1,9-14.1,20.9-14.1,33.6V239
	c0,26.6,22,49,48,49c26.5,0,48-22,48-49V128c0-27.4-20.6-48-48-48C255.9,80,255.8,80,255.7,80z"/>
</svg>
