<?xml version="1.0" encoding="utf-8"?>
<!-- Generator: Adobe Illustrator 25.4.1, SVG Export Plug-In . SVG Version: 6.00 Build 0)  -->
<svg version="1.1" id="Calque_1" xmlns="http://www.w3.org/2000/svg" xmlns:xlink="http://www.w3.org/1999/xlink" x="0px" y="0px"
	 viewBox="0 0 512 512" style="enable-background:new 0 0 512 512;" xml:space="preserve">
<rect x="248" y="-21.6" transform="matrix(0.7071 -0.7071 0.7071 0.7071 -86.7249 254.6275)" width="32" height="507.2"/>
<path d="M368,192v48c0,8.6-1,17.1-2.9,25.5l25.6,25.5c6.2-16.3,9.4-33.6,9.4-51v-48H368z"/>
<path d="M272,432v-48.9c20-2.2,39.3-8.6,56.6-18.8L305,340.6c-55.7,27-122.8,3.7-149.8-52c-7.3-15.2-11.2-31.8-11.2-48.6v-48h-32v48
	c0,74,56.1,135.1,128,143.1V432h-64v32h160v-32H272z"/>
<path d="M336,236.4V128c0-44.9-35.1-80-80-80c-28.4-0.1-54.6,14.9-69,39.3"/>
<path d="M176,211.6V239c0,21.3,8.4,41.8,23.4,56.9c20.9,21.7,52.4,29.6,81,20.2L176,211.6z"/>
</svg>
