<?xml version="1.0" encoding="utf-8"?>
<!-- Generator: Adobe Illustrator 25.4.1, SVG Export Plug-In . SVG Version: 6.00 Build 0)  -->
<svg version="1.1" id="Calque_1" xmlns="http://www.w3.org/2000/svg" xmlns:xlink="http://www.w3.org/1999/xlink" x="0px" y="0px"
	 viewBox="0 0 512 512" style="enable-background:new 0 0 512 512;" xml:space="preserve">
<path d="M192,234c-8.8,0-16-7.2-16-16v-6c0-22.1,14.5-40.6,36.2-46.1l174.5-46.7c9.3-2.5,19-1.2,27.3,3.6
	c8.3,4.8,14.3,12.6,16.8,21.9c0.8,3,1.2,6.1,1.2,9.2v22c0,8.8-7.2,16-16,16s-16-7.2-16-16v-22c0-0.3,0-0.6-0.1-1
	c-0.4-1.3-1.2-2.1-1.9-2.4c-0.7-0.4-1.7-0.8-3-0.4l-174.6,46.7c-0.1,0-0.1,0-0.2,0.1c-7.4,1.9-12.2,7.8-12.2,15.1v6
	C208,226.8,200.8,234,192,234z"/>
<path d="M135.3,480.1c-11.4,0-22.5-3.6-32.1-10.5C88.5,459,80,442.4,80,424c0-21.9,12.9-40.4,32.8-47.1l51.9-18c0,0,0.1,0,0.1,0
	c6.7-2.3,11.1-8.1,11.1-14.8V118.1c-0.1-14.6,9.6-27.5,23.7-31.5c0.1,0,0.1,0,0.2-0.1l199.4-53.6c2.2-0.6,4.4-0.9,6.6-0.9
	c0,0,0.1,0,0.1,0c6.9,0,13.4,2.7,18.3,7.5c4.9,4.9,7.7,11.4,7.7,18.3v318c0,20.3-13.1,38.4-32.7,45.1l-21.8,7.9
	c-0.1,0-0.2,0.1-0.4,0.1c-17.2,5.8-35.3,3.1-49.9-7.4C312.5,411.2,304,394.5,304,376c-0.2-21.5,13.4-40.4,33.8-47.2l50.8-18.1
	c0.1,0,0.2-0.1,0.3-0.1c6.9-2.3,11.1-7.9,11.1-14.7V65.9l-191.7,51.5c-0.2,0.1-0.3,0.3-0.3,0.5c0,0,0,0.1,0,0.1v306
	c0,20.3-13.1,38.4-32.7,45.1l-21.8,7.9c-0.1,0-0.3,0.1-0.4,0.1C147.2,479.1,141.3,480.1,135.3,480.1z M175.2,389.1l-51.9,18
	c0,0-0.1,0-0.1,0c-7.1,2.4-11.1,8.5-11.1,16.8c0,8,3.6,15.1,9.9,19.7c6.1,4.4,13.7,5.6,20.8,3.2l21.8-7.9c0.1,0,0.2-0.1,0.4-0.1
	c6.9-2.3,11.1-8,11.1-14.8v-35.1C175.7,389,175.5,389,175.2,389.1z M399.2,340.9L348.4,359c-0.1,0-0.3,0.1-0.4,0.1
	c-7.2,2.4-12,9.1-12,16.7c0,0,0,0.1,0,0.1c0,8.1,3.6,15.3,9.9,19.8c6,4.3,13.6,5.5,20.8,3.1l21.8-7.9c0.1,0,0.2-0.1,0.4-0.1
	c6.9-2.3,11.1-8,11.1-14.8v-35.3C399.8,340.7,399.5,340.8,399.2,340.9z"/>
</svg>
