<?xml version="1.0" encoding="utf-8"?>
<!-- Generator: Adobe Illustrator 25.4.1, SVG Export Plug-In . SVG Version: 6.00 Build 0)  -->
<svg version="1.1" id="Calque_1" xmlns="http://www.w3.org/2000/svg" xmlns:xlink="http://www.w3.org/1999/xlink" x="0px" y="0px"
	 viewBox="0 0 512 512" style="enable-background:new 0 0 512 512;" xml:space="preserve">
<path d="M410.5,400H101.6c-15,0-28.2-8.1-34.3-21.1c-5.9-12.5-4.1-26.9,4.6-37.6c1.7-2,3.3-4,4.9-5.9c22-26.6,35.3-42.7,35.4-118
	c0-68.4,27.4-112.9,83.8-136.1c0.2-0.1,0.6-0.4,0.8-0.6c8.6-29,32.4-48.6,59.2-48.6c26.8,0,50.6,19.5,59.3,48.5
	c0.2,0.3,0.6,0.6,0.8,0.7c24.2,9.9,42.5,23.4,56.1,41.1c18.4,24.1,27.7,56,27.7,95c0,75.4,13.3,91.4,35.3,118
	c1.6,1.9,3.2,3.9,4.9,5.9c0,0,0,0,0,0c8.8,10.7,10.5,25.2,4.6,37.7C438.5,391.9,425.4,400,410.5,400z M256,64
	c-14.6,0-24.9,13-28.6,25.9c-2.7,9.1-10,17.1-19.2,20.9c-29.8,12.3-63.9,35.5-63.9,106.6c-0.1,86.9-18.9,109.6-42.7,138.4
	c-1.6,1.9-3.1,3.8-4.8,5.8c-0.4,0.4-1.4,1.7-0.5,3.7c0.5,1,1.9,2.8,5.4,2.8h308.9c3.5,0,4.8-1.7,5.3-2.8c0.9-2-0.1-3.3-0.5-3.7
	c-1.6-2-3.2-3.9-4.8-5.8c-23.8-28.8-42.7-51.5-42.7-138.4c0-71.1-34.2-94.3-64-106.6c-9.1-3.8-16.5-11.7-19.2-20.8
	C280.9,77,270.6,64,256,64z M315.2,80.4L315.2,80.4L315.2,80.4z"/>
<path d="M256,480c-44.1,0-80-35.9-80-80v-16c0-8.8,7.2-16,16-16s16,7.2,16,16v16c0,26.5,21.5,48,48,48c26.5,0,48-21.5,48-48v-16
	c0-8.8,7.2-16,16-16s16,7.2,16,16v16C336,444.1,300.1,480,256,480z"/>
</svg>
