<?xml version="1.0" encoding="utf-8"?>
<!-- Generator: Adobe Illustrator 25.4.1, SVG Export Plug-In . SVG Version: 6.00 Build 0)  -->
<svg version="1.1" id="Calque_1" xmlns="http://www.w3.org/2000/svg" xmlns:xlink="http://www.w3.org/1999/xlink" x="0px" y="0px"
	 viewBox="0 0 512 512" style="enable-background:new 0 0 512 512;" xml:space="preserve">
<path d="M256,464c-114.7,0-208-93.3-208-208S141.3,48,256,48s208,93.3,208,208S370.7,464,256,464z M256,80c-97,0-176,79-176,176
	s79,176,176,176s176-79,176-176S353,80,256,80z"/>
<path d="M256,336c-44.1,0-80-35.9-80-80s35.9-80,80-80s80,35.9,80,80S300.1,336,256,336z M256,208c-26.5,0-48,21.5-48,48
	c0,26.5,21.5,48,48,48c26.5,0,48-21.5,48-48C304,229.5,282.5,208,256,208z"/>
<path d="M224,208c-5.9,0-11.6-3.3-14.3-8.9l-53-107c-3.9-7.9-0.7-17.5,7.2-21.4c7.9-3.9,17.5-0.7,21.4,7.2l53,107
	c3.9,7.9,0.7,17.5-7.2,21.4C228.8,207.5,226.4,208,224,208z"/>
<path d="M288,208c-2.4,0-4.8-0.5-7.1-1.7c-7.9-3.9-11.2-13.5-7.2-21.4l53-107c3.9-7.9,13.5-11.2,21.4-7.2
	c7.9,3.9,11.2,13.5,7.2,21.4l-53,107C299.5,204.7,293.9,208,288,208z"/>
<path d="M447,271.9C447,271.9,446.9,271.9,447,271.9l-119.4-0.1c-8.8,0-16-7.2-16-16c0-8.8,7.2-16,16-16c0,0,0,0,0,0l119.4,0.1
	c8.8,0,16,7.2,16,16C463,264.8,455.8,271.9,447,271.9z"/>
<path d="M371.4,424.2c-4.8,0-9.6-2.2-12.8-6.3l-72.2-95.1c-5.3-7-4-17.1,3.1-22.4s17.1-4,22.4,3.1l72.2,95.1c5.3,7,4,17.1-3.1,22.4
	C378.1,423.1,374.7,424.2,371.4,424.2z"/>
<path d="M65,271.9c-8.8,0-16-7.2-16-16c0-8.8,7.1-16,16-16l119.4-0.1c0,0,0,0,0,0c8.8,0,16,7.2,16,16c0,8.8-7.1,16-16,16L65,271.9
	C65.1,271.9,65,271.9,65,271.9z"/>
<path d="M140.6,424.2c-3.4,0-6.8-1.1-9.7-3.3c-7-5.3-8.4-15.4-3.1-22.4l72.2-95.1c5.3-7,15.4-8.4,22.4-3.1c7,5.3,8.4,15.4,3.1,22.4
	l-72.2,95.1C150.3,422,145.5,424.2,140.6,424.2z"/>
</svg>
