<?xml version="1.0" encoding="utf-8"?>
<!-- Generator: Adobe Illustrator 25.4.1, SVG Export Plug-In . SVG Version: 6.00 Build 0)  -->
<svg version="1.1" id="Calque_1" xmlns="http://www.w3.org/2000/svg" xmlns:xlink="http://www.w3.org/1999/xlink" x="0px" y="0px"
	 viewBox="0 0 512 512" style="enable-background:new 0 0 512 512;" xml:space="preserve">
<path d="M304.6,479.9c-3,0-6-0.6-8.8-1.7c-6.3-2.5-11.3-7.6-13.7-14l-67.3-165.8c-0.1-0.3-0.2-0.6-0.4-1c-0.3-0.1-0.6-0.2-0.9-0.3
	L47.8,230c-12.2-4.4-18.7-17.8-14.6-30.1c2.3-6.8,7.4-12.2,14.2-14.8c0,0,0,0,0.1,0l400-151.4c12.3-4.7,26.2,1.5,30.9,13.9
	c2.1,5.5,2.1,11.6,0,17.1L327,464.5c0,0.1-0.1,0.2-0.1,0.2c-2.4,6-6.9,10.6-12.8,13.2C311.1,479.3,307.9,479.9,304.6,479.9z
	 M312.2,453.3C312.2,453.3,312.2,453.3,312.2,453.3C312.2,453.3,312.2,453.3,312.2,453.3z M244.6,286.8L304.4,434L442.2,69.8
	L77.9,207.7l147.2,59.7C234.2,270.6,241.4,277.8,244.6,286.8z M58.5,199.8C58.5,199.8,58.5,199.8,58.5,199.8
	C58.5,199.8,58.5,199.8,58.5,199.8z M458.8,63.5L458.8,63.5C458.8,63.5,458.8,63.5,458.8,63.5z M448.5,53.2
	C448.5,53.2,448.5,53.2,448.5,53.2L448.5,53.2z"/>
<path d="M227,301c-4.1,0-8.2-1.6-11.3-4.7c-6.2-6.2-6.2-16.4,0-22.6l233-233c6.2-6.2,16.4-6.2,22.6,0c6.2,6.2,6.2,16.4,0,22.6
	l-233,233C235.2,299.4,231.1,301,227,301z"/>
</svg>
