<?xml version="1.0" encoding="utf-8"?>
<!-- Generator: Adobe Illustrator 25.4.1, SVG Export Plug-In . SVG Version: 6.00 Build 0)  -->
<svg version="1.1" id="Calque_1" xmlns="http://www.w3.org/2000/svg" xmlns:xlink="http://www.w3.org/1999/xlink" x="0px" y="0px"
	 viewBox="0 0 512 512" style="enable-background:new 0 0 512 512;" xml:space="preserve">
<path d="M340,480H106c-29.5,0-54.9-7.8-73.5-22.6C11.2,440.4,0,415.4,0,384.8c0-26.7,10.1-49.8,29.1-66.9
	c15.2-13.7,36.2-23.2,59-26.8c0,0,0,0,0.1,0c0,0,0.1,0,0.1-0.1c12.9-78.3,70.7-131,143.8-131c30.2,0,58.5,9.4,81.7,27.2
	c19.9,15.3,36,36.8,45.4,60.7c29.4,4.8,54.7,17.1,73.2,35.5c20.8,20.7,31.7,48.3,31.7,79.8c0,32.9-13.1,62.9-37,84.5
	C404.1,468.5,373.2,480,340,480z M93.1,322.7C78.7,325,32,336.2,32,384.8c0,57,51.8,63.2,74,63.2h234c52.4,0,92-36.5,92-84.8
	c0-65.9-59.8-80.8-78.2-83.8c-11.1-1.8-20.5-9.4-24.5-19.8c-12.7-32.7-45-67.6-97.3-67.6c-56.9,0-102,41.9-112.2,104.2
	C117.5,309.9,106.8,320.5,93.1,322.7z"/>
<path d="M384.8,287.4c-4.8,0-9.5-2.1-12.7-6.2c-5.4-7-4.1-17,2.9-22.4c27.9-21.6,33.1-61.8,11.6-89.8
	c-21.6-27.9-61.8-33.1-89.8-11.6c-9.3,7.2-16.5,16.8-20.7,27.8c-3.2,8.3-12.4,12.4-20.7,9.2c-8.3-3.2-12.4-12.4-9.2-20.7
	c6.3-16.5,17-30.9,31-41.6c41.9-32.3,102.3-24.5,134.6,17.4c32.3,41.9,24.5,102.3-17.4,134.6C391.7,286.3,388.2,287.4,384.8,287.4z"
	/>
<path d="M496,224h-32c-8.8,0-16-7.2-16-16s7.2-16,16-16h32c8.8,0,16,7.2,16,16S504.8,224,496,224z"/>
<path d="M336,96c-8.8,0-16-7.2-16-16V48c0-8.8,7.2-16,16-16s16,7.2,16,16v32C352,88.8,344.8,96,336,96z"/>
<path d="M245.5,133.5c-4.1,0-8.2-1.6-11.3-4.7l-22.6-22.6c-6.2-6.2-6.2-16.4,0-22.6c6.2-6.2,16.4-6.2,22.6,0l22.6,22.6
	c6.2,6.2,6.2,16.4,0,22.6C253.7,131.9,249.6,133.5,245.5,133.5z"/>
<path d="M426.5,133.5c-4.1,0-8.2-1.6-11.3-4.7c-6.2-6.2-6.2-16.4,0-22.6l22.6-22.6c6.2-6.2,16.4-6.2,22.6,0c6.2,6.2,6.2,16.4,0,22.6
	l-22.6,22.6C434.7,131.9,430.6,133.5,426.5,133.5z"/>
</svg>
