<?xml version="1.0" encoding="utf-8"?>
<!-- Generator: Adobe Illustrator 25.4.1, SVG Export Plug-In . SVG Version: 6.00 Build 0)  -->
<svg version="1.1" id="Calque_1" xmlns="http://www.w3.org/2000/svg" xmlns:xlink="http://www.w3.org/1999/xlink" x="0px" y="0px"
	 viewBox="0 0 512 512" style="enable-background:new 0 0 512 512;" xml:space="preserve">
<path d="M192,432h-16c-8.8,0-16-7.2-16-16V96c0-8.8,7.2-16,16-16h16c8.8,0,16,7.2,16,16v320C208,424.8,200.8,432,192,432z"/>
<path d="M336,432h-16c-8.8,0-16-7.2-16-16V96c0-8.8,7.2-16,16-16h16c8.8,0,16,7.2,16,16v320C352,424.8,344.8,432,336,432z"/>
</svg>
