<?xml version="1.0" encoding="utf-8"?>
<!-- Generator: Adobe Illustrator 25.4.1, SVG Export Plug-In . SVG Version: 6.00 Build 0)  -->
<svg version="1.1" id="Calque_1" xmlns="http://www.w3.org/2000/svg" xmlns:xlink="http://www.w3.org/1999/xlink" x="0px" y="0px"
	 viewBox="0 0 512 512" style="enable-background:new 0 0 512 512;" xml:space="preserve">
<path d="M336,256c-20.6,0-40.4-9.2-56-25.8c-15.1-16.2-24.4-37.9-26-61c-1.7-24.6,5.8-47.3,21.1-63.8C290.4,89,312,80,336,80
	c23.8,0,45.4,9.1,60.7,25.5c15.5,16.6,23,39.2,21.2,63.6c-1.7,23.1-10.9,44.8-26,61C376.4,246.8,356.6,256,336,256z M336,112
	c-15,0-28.3,5.4-37.4,15.2c-9.4,10.1-13.7,23.8-12.6,39.7c1.1,15.8,7.3,30.6,17.5,41.5c9.4,10.1,21,15.6,32.5,15.6
	c11.6,0,23.1-5.6,32.5-15.6c10.2-10.9,16.4-25.6,17.5-41.5c0,0,0,0,0,0c1.1-15.4-3.4-29.5-12.8-39.5C364.1,117.4,350.8,112,336,112z
	"/>
<path d="M467.8,432H204.2c-8.7,0-16.7-3.9-22-10.7c-5.5-7.1-7.5-16.7-5.3-25.8c8.4-33.8,29.3-61.8,60.3-81.1
	c27.5-17.1,62.6-26.5,98.7-26.5c36.8,0,71,9,98.7,26.1c31.1,19.1,52,47.3,60.4,81.5c2.2,9.1,0.2,18.7-5.3,25.8
	C484.5,428.1,476.5,432,467.8,432z M208.9,400h254.3c-16.5-59-78.4-80-127.2-80C287.4,320,225.6,341,208.9,400z"/>
<path d="M147,260c-35.2,0-66.1-32.7-69-72.9c-1.5-20.6,4.9-39.6,17.9-53.6c12.9-13.8,31-21.4,51-21.4c19.9,0,38,7.7,50.9,21.6
	c13.1,14.1,19.5,33.1,18,53.5l0,0C213.1,227.3,182.1,260,147,260z M147,144c-11,0-20.8,4-27.6,11.3c-7,7.5-10.3,17.7-9.4,29.5
	c1.7,23.4,18.6,43.2,37,43.2c18.4,0,35.4-19.8,37-43.2l0,0c0.8-11.5-2.6-21.9-9.5-29.4C167.7,148,157.9,144,147,144z"/>
<path d="M154,400H41.7c-7.9,0-15.2-3.6-20.1-9.7c-5-6.4-6.8-15.2-4.8-23.4c6.9-27.9,24.1-50.9,49.6-66.7
	c22.5-13.9,51.1-21.6,80.5-21.6c25.2,0,46.7,4.2,65.7,12.9c8,3.7,11.6,13.2,7.9,21.2c-3.7,8-13.2,11.6-21.2,7.9
	c-14.7-6.7-31.8-10-52.3-10c-36.5,0-82.6,15.2-97.2,57.5H154c8.8,0,16,7.2,16,16S162.8,400,154,400z"/>
</svg>
