<?xml version="1.0" encoding="utf-8"?>
<!-- Generator: Adobe Illustrator 25.4.1, SVG Export Plug-In . SVG Version: 6.00 Build 0)  -->
<svg version="1.1" id="Calque_1" xmlns="http://www.w3.org/2000/svg" xmlns:xlink="http://www.w3.org/1999/xlink" x="0px" y="0px"
	 viewBox="0 0 512 512" style="enable-background:new 0 0 512 512;" xml:space="preserve">
<path d="M336,512H176c-35.3,0-64-28.7-64-64V64c0-35.3,28.7-64,64-64h160c35.3,0,64,28.7,64,64v384C400,483.3,371.3,512,336,512z
	 M176,32c-17.6,0-32,14.4-32,32v384c0,17.6,14.4,32,32,32h160c17.6,0,32-14.4,32-32V64c0-17.6-14.4-32-32-32H176z"/>
<path d="M288,56h-64c-14.9,0-27.4-10.2-31-24h-17c-8.8,0-16-7.2-16-16s7.2-16,16-16h24c13.2,0,24,10.8,24,24h64
	c0-13.2,10.8-24,24-24h24c8.8,0,16,7.2,16,16s-7.2,16-16,16h-17C315.4,45.8,302.9,56,288,56z M200,32L200,32L200,32z"/>
</svg>
