<?xml version="1.0" encoding="utf-8"?>
<!-- Generator: Adobe Illustrator 25.4.1, SVG Export Plug-In . SVG Version: 6.00 Build 0)  -->
<svg version="1.1" id="Calque_1" xmlns="http://www.w3.org/2000/svg" xmlns:xlink="http://www.w3.org/1999/xlink" x="0px" y="0px"
	 viewBox="0 0 512 512" style="enable-background:new 0 0 512 512;" xml:space="preserve">
<path d="M448,400H64c-35.3,0-64-28.7-64-64V176c0-35.3,28.7-64,64-64h384c35.3,0,64,28.7,64,64v160C512,371.3,483.3,400,448,400z
	 M64,144c-17.6,0-32,14.4-32,32v160c0,17.6,14.4,32,32,32h384c17.6,0,32-14.4,32-32V176c0-17.6-14.4-32-32-32H64z"/>
<path d="M16,352c-8.8,0-16-7.2-16-16v-24c0-13.2,10.8-24,24-24v-64c-13.2,0-24-10.8-24-24v-24c0-8.8,7.2-16,16-16s16,7.2,16,16v17
	c13.8,3.6,24,16.1,24,31v64c0,14.9-10.2,27.4-24,31v17C32,344.8,24.8,352,16,352z"/>
</svg>
