<?xml version="1.0" encoding="utf-8"?>
<!-- Generator: Adobe Illustrator 25.4.1, SVG Export Plug-In . SVG Version: 6.00 Build 0)  -->
<svg version="1.1" id="Calque_1" xmlns="http://www.w3.org/2000/svg" xmlns:xlink="http://www.w3.org/1999/xlink" x="0px" y="0px"
	 viewBox="0 0 512 512" style="enable-background:new 0 0 512 512;" xml:space="preserve">
<path d="M327.9,496H184.1c-13.2,0-24-10.8-24-24v-71.6c0-67.2-21.1-147.6-33.7-195.6c-4.5-17.2-8.1-30.8-9.7-39.9l0,0
	c-6-32.5-5-46.4-3.7-65.6c0.1-2.1,0.3-4.3,0.4-6.6l2.9-46.6c1.1-16.8,15.1-30,31.9-30h215.6c16.9,0,30.9,13.2,31.9,30l2.9,46.6
	c0.1,2.3,0.3,4.5,0.4,6.7c1.3,19.2,2.2,33.2-3.7,65.7c-1.6,8.6-5,21-9.4,36.6c-12.7,45.5-34,121.7-34,198.8V472
	C351.9,485.2,341.1,496,327.9,496z M192.1,464h127.7v-63.6c0-81.5,22-160.3,35.2-207.4c4.2-14.8,7.4-26.6,8.8-33.8
	c5.2-28.6,4.5-39.6,3.3-57.7c-0.1-2.2-0.3-4.4-0.4-6.8L363.8,48l-215.5,0l-2.9,46.6c-0.1,2.4-0.3,4.6-0.4,6.8
	c-1.2,18.2-2,29.2,3.3,57.7c0,0,0,0,0,0c1.5,7.9,4.9,21,9.2,37.5c13,49.5,34.7,132.3,34.7,203.7V464z"/>
<path d="M376.8,112H135.2c-8.8,0-16-7.2-16-16s7.2-16,16-16h241.6c8.8,0,16,7.2,16,16S385.6,112,376.8,112z"/>
</svg>
