<?xml version="1.0" encoding="utf-8"?>
<!-- Generator: Adobe Illustrator 25.4.1, SVG Export Plug-In . SVG Version: 6.00 Build 0)  -->
<svg version="1.1" id="icons" xmlns="http://www.w3.org/2000/svg" xmlns:xlink="http://www.w3.org/1999/xlink" x="0px" y="0px"
	 viewBox="0 0 512 512" style="enable-background:new 0 0 512 512;" xml:space="preserve">
<path d="M256,496c-7.7,0-15.5-1.9-22.5-5.6L41.3,387.9c-1.5-0.8-3.1-1.7-4.5-2.7c-21.8-14.9-27.4-44.7-12.5-66.4L216.5,36.9
	c0,0,0,0,0,0c3.4-5,7.6-9.2,12.6-12.6c10.5-7.2,23.3-9.9,35.8-7.5c12.5,2.4,23.4,9.5,30.6,20l192.2,281.9c1,1.4,1.9,3,2.7,4.5
	c12.4,23.3,3.5,52.3-19.7,64.6L278.4,490.4C271.4,494.1,263.7,496,256,496z M242.9,54.9L50.7,336.8c-2.4,3.5-3.3,7.7-2.5,11.8
	c0.8,4.1,3.1,7.7,6.6,10.1c0.5,0.3,1,0.6,1.5,0.9l192.2,102.5c4.7,2.5,10.2,2.5,14.9,0l192.2-102.5c7.7-4.1,10.6-13.7,6.5-21.4
	c-0.3-0.5-0.6-1-0.9-1.5L269,54.9c-4.9-7.2-14.8-9.1-22-4.1C245.5,51.9,244.1,53.3,242.9,54.9L242.9,54.9z"/>
<path d="M256,496c-8.8,0-16-7.2-16-16V32c0-8.8,7.2-16,16-16c8.8,0,16,7.2,16,16v448C272,488.8,264.8,496,256,496z"/>
</svg>
