<?xml version="1.0" encoding="utf-8"?>
<!-- Generator: Adobe Illustrator 25.4.1, SVG Export Plug-In . SVG Version: 6.00 Build 0)  -->
<svg version="1.1" id="Calque_1" xmlns="http://www.w3.org/2000/svg" xmlns:xlink="http://www.w3.org/1999/xlink" x="0px" y="0px"
	 viewBox="0 0 512 512" style="enable-background:new 0 0 512 512;" xml:space="preserve">
<path d="M416,272H96c-8.8,0-16-7.2-16-16c0-8.8,7.2-16,16-16h320c8.8,0,16,7.2,16,16C432,264.8,424.8,272,416,272z"/>
<path d="M416,192H96c-8.8,0-16-7.2-16-16s7.2-16,16-16h320c8.8,0,16,7.2,16,16S424.8,192,416,192z"/>
<path d="M416,352H96c-8.8,0-16-7.2-16-16s7.2-16,16-16h320c8.8,0,16,7.2,16,16S424.8,352,416,352z"/>
</svg>
