<?xml version="1.0" encoding="utf-8"?>
<!-- Generator: Adobe Illustrator 25.4.1, SVG Export Plug-In . SVG Version: 6.00 Build 0)  -->
<svg version="1.1" id="Calque_1" xmlns="http://www.w3.org/2000/svg" xmlns:xlink="http://www.w3.org/1999/xlink" x="0px" y="0px"
	 viewBox="0 0 512 512" style="enable-background:new 0 0 512 512;" xml:space="preserve">
<path d="M112,368c-4.1,0-8.2-1.6-11.3-4.7l-64-64c-6.2-6.2-6.2-16.4,0-22.6l64-64c6.2-6.2,16.4-6.2,22.6,0c6.2,6.2,6.2,16.4,0,22.6
	L70.6,288l52.7,52.7c6.2,6.2,6.2,16.4,0,22.6C120.2,366.4,116.1,368,112,368z"/>
<path d="M358,304H64c-8.8,0-16-7.2-16-16s7.2-16,16-16h294c49.6,0,90-41.3,90-92v-20c0-8.8,7.2-16,16-16s16,7.2,16,16v20
	c0,32.7-12.6,63.7-35.5,87.2C421.4,290.9,390.6,304,358,304z"/>
</svg>
