<?xml version="1.0" encoding="utf-8"?>
<!-- Generator: Adobe Illustrator 25.4.1, SVG Export Plug-In . SVG Version: 6.00 Build 0)  -->
<svg version="1.1" id="Calque_1" xmlns="http://www.w3.org/2000/svg" xmlns:xlink="http://www.w3.org/1999/xlink" x="0px" y="0px"
	 viewBox="0 0 512 512" style="enable-background:new 0 0 512 512;" xml:space="preserve">
<path d="M112,304c-4.1,0-8.2-1.6-11.3-4.7l-64-64c-6.2-6.2-6.2-16.4,0-22.6l64-64c6.2-6.2,16.4-6.2,22.6,0c6.2,6.2,6.2,16.4,0,22.6
	L70.6,224l52.7,52.7c6.2,6.2,6.2,16.4,0,22.6C120.2,302.4,116.1,304,112,304z"/>
<path d="M464,368c-8.8,0-16-7.2-16-16v-20c0-50.7-40.4-92-90-92H64c-8.8,0-16-7.2-16-16s7.2-16,16-16h294
	c32.6,0,63.4,13.1,86.5,36.8c22.9,23.5,35.5,54.5,35.5,87.2v20C480,360.8,472.8,368,464,368z"/>
</svg>
