<?xml version="1.0" encoding="utf-8"?>
<!-- Generator: Adobe Illustrator 25.4.1, SVG Export Plug-In . SVG Version: 6.00 Build 0)  -->
<svg version="1.1" id="Calque_1" xmlns="http://www.w3.org/2000/svg" xmlns:xlink="http://www.w3.org/1999/xlink" x="0px" y="0px"
	 viewBox="0 0 512 512" style="enable-background:new 0 0 512 512;" xml:space="preserve">
<path d="M400,480H112c-4.3,0-8.5-1.7-11.5-4.8c-3-3.1-4.6-7.3-4.5-11.6l6.8-241.9c0.1-4.2-3-7.8-7.1-8.2l-48.9-5.5
	c-7-0.8-12.6-6-13.9-12.9l-16.6-88c-1.5-7.8,3-15.5,10.4-18.1l154.9-54.2c5.1-1.8,10.4-2.7,15.9-2.7c1.8,0,3.6,0.3,5.3,0.9
	c0.2,0.1,21,7.1,53.3,7.1s53.1-7,53.3-7.1c1.7-0.6,3.4-0.9,5.2-0.9c5.4,0,10.8,0.9,15.9,2.7l154.9,54.2c7.5,2.6,11.9,10.3,10.4,18.1
	l-16.6,88c-1.3,6.9-7,12.1-13.9,12.9l-48.9,5.5c-4.1,0.5-7.2,4.1-7.1,8.2l6.8,241.9c0.1,4.3-1.5,8.5-4.5,11.6
	C408.5,478.3,404.3,480,400,480z M128.5,448h255.1l-6.3-225.5c-0.6-20.6,15-38.6,35.5-40.9l37.2-4.2l11.9-62.9L319.8,64.9
	c-1.1-0.4-2.2-0.6-3.3-0.8c-8,2.4-30,7.9-60.6,7.9c-30.6,0-52.6-5.5-60.6-7.9c-1.1,0.1-2.2,0.4-3.2,0.8L50.3,114.6l11.9,62.9
	l37.1,4.2c20.5,2.3,36.1,20.3,35.5,41L128.5,448z"/>
<path d="M256.2,128.1c-8.3,0-16.6-1.1-24.8-3.3c-33.2-8.8-59.3-34.9-68.1-68.1c-2.3-8.5,2.8-17.3,11.3-19.6
	c8.5-2.3,17.3,2.8,19.6,11.3c5.9,22.1,23.3,39.5,45.4,45.4c16.5,4.4,33.8,2.1,48.6-6.5c14.8-8.6,25.4-22.4,29.8-38.9
	c2.3-8.5,11-13.6,19.6-11.3c8.5,2.3,13.6,11,11.3,19.6c-6.6,24.8-22.4,45.5-44.6,58.4C289.3,123.7,272.8,128.1,256.2,128.1z"/>
</svg>
