<?xml version="1.0" encoding="utf-8"?>
<!-- Generator: Adobe Illustrator 25.4.1, SVG Export Plug-In . SVG Version: 6.00 Build 0)  -->
<svg version="1.1" id="icons" xmlns="http://www.w3.org/2000/svg" xmlns:xlink="http://www.w3.org/1999/xlink" x="0px" y="0px"
	 viewBox="0 0 512 512" style="enable-background:new 0 0 512 512;" xml:space="preserve">
<path d="M208,512c-3.5,0-6.9-0.7-10.1-2.2c-6.1-2.7-10.8-7.6-13.2-13.9l-42.4-110.2L32,343.3c-6.6-2.5-11.8-7.8-14.4-14.4
	c-4.9-12.9,1.5-27.4,14.4-32.3l110.2-42.4L184.7,144c2.5-6.6,7.8-11.8,14.4-14.4c6.2-2.4,13-2.2,19.1,0.5
	c6.1,2.7,10.8,7.6,13.2,13.9l42.4,110.2L384,296.7c6.6,2.5,11.8,7.8,14.4,14.4c5,12.9-1.5,27.4-14.4,32.3l-110.2,42.4L231.3,496
	c-2.5,6.6-7.8,11.8-14.4,14.4C214.1,511.5,211,512,208,512z M60.5,320l96.2,37c6.6,2.5,11.8,7.8,14.4,14.4l37,96.2l37-96.2
	c2.5-6.6,7.8-11.8,14.4-14.4l96.2-37l-96.2-37c-6.6-2.5-11.8-7.8-14.4-14.4l-37-96.2l-37,96.2c-2.5,6.6-7.8,11.8-14.4,14.4L60.5,320
	z M274.8,257.2L274.8,257.2L274.8,257.2C274.9,257.2,274.9,257.2,274.8,257.2z"/>
<path d="M88,176c-6.6,0-12.6-4.1-14.9-10.3l-17.4-45.4l-45.4-17.4C4.1,100.6,0,94.6,0,88s4.1-12.6,10.3-14.9l45.4-17.4l17.4-45.4
	C75.4,4.1,81.4,0,88,0s12.6,4.1,14.9,10.3l17.4,45.4l45.4,17.4c6.2,2.4,10.3,8.3,10.3,14.9s-4.1,12.6-10.3,14.9l-45.4,17.4
	l-17.4,45.4C100.6,171.9,94.6,176,88,176z M60.6,88l13.2,5.1c4.2,1.6,7.6,5,9.2,9.2l5.1,13.2l5.1-13.2c1.6-4.2,5-7.6,9.2-9.2
	l13.2-5.1l-13.2-5.1c-4.2-1.6-7.6-5-9.2-9.2L88,60.6l-5.1,13.2c-1.6,4.2-5,7.6-9.2,9.2L60.6,88z"/>
<path d="M400,256c-6.6,0-12.6-4.1-14.9-10.3l-24.1-62.7l-62.7-24.1c-6.2-2.4-10.3-8.3-10.3-14.9s4.1-12.6,10.3-14.9l62.7-24.1
	l24.1-62.7c2.4-6.2,8.3-10.3,14.9-10.3s12.6,4.1,14.9,10.3l24.1,62.7l62.7,24.1c6.2,2.4,10.3,8.3,10.3,14.9s-4.1,12.6-10.3,14.9
	l-62.7,24.1l-24.1,62.7C412.6,251.9,406.6,256,400,256z M348.6,144l30.5,11.7c4.2,1.6,7.6,5,9.2,9.2l11.7,30.5l11.7-30.5
	c1.6-4.2,5-7.6,9.2-9.2l30.5-11.7l-30.5-11.7c-4.2-1.6-7.6-5-9.2-9.2L400,92.6l-11.7,30.5c-1.6,4.2-5,7.6-9.2,9.2L348.6,144z"/>
</svg>
