<?xml version="1.0" encoding="utf-8"?>
<!-- Generator: Adobe Illustrator 25.4.1, SVG Export Plug-In . SVG Version: 6.00 Build 0)  -->
<svg version="1.1" id="Calque_1" xmlns="http://www.w3.org/2000/svg" xmlns:xlink="http://www.w3.org/1999/xlink" x="0px" y="0px"
	 viewBox="0 0 512 512" style="enable-background:new 0 0 512 512;" xml:space="preserve">
<path d="M448,464c-8.8,0-16-7.2-16-16V240c0-8.8,7.2-16,16-16s16,7.2,16,16v208C464,456.8,456.8,464,448,464z"/>
<path d="M64,464c-8.8,0-16-7.2-16-16V240c0-8.8,7.2-16,16-16s16,7.2,16,16v208C80,456.8,72.8,464,64,464z"/>
<path d="M428.5,258h-2c-23,0-43.5-10-56.9-25.6C356.3,248,335.8,258,312.8,258c-19.1,0-37.2-7.2-51.2-20.3c-1.9-1.8-3.7-3.7-5.4-5.6
	c-13.3,15.8-34,26-57.1,26c-19.1,0-37.2-7.2-51.2-20.3c-2-1.9-3.9-3.9-5.7-6c-1.8,2.1-3.7,4.1-5.7,6c-13.9,13.1-32.1,20.3-51.2,20.3
	h-2c-0.2,0-0.3,0-0.5,0c-23.8-0.7-45.3-12.8-57.4-32.3c-11.4-18.3-12.8-39.9-3.9-59.3l43.3-94.5C76.1,47.6,101.4,32,129.5,32h252.9
	c28.1,0,53.4,15.6,64.5,39.8l43.3,94.5c8.9,19.4,7.5,41-3.8,59.3c-12.1,19.5-33.5,31.6-57.4,32.3C428.8,258,428.7,258,428.5,258z
	 M369.7,173.8c8.8,0,16,7.2,16,16c0,20,18.3,36.2,40.8,36.2h1.7c13-0.5,24.6-6.9,31-17.2c5.6-9,6.3-19.6,2-29.1l-43.3-94.5
	C412,72.3,398.1,64,382.5,64H129.5c-15.6,0-29.5,8.3-35.4,21.1l-43.3,94.5c-4.4,9.5-3.6,20.1,2,29.2c6.4,10.3,18,16.7,31,17.2h1.7
	c23.4,0,40.8-19.1,40.8-36.2c0-8.8,7.2-16,16-16s16,7.2,16,16c0,17.1,17.5,36.2,40.9,36.2c22.5,0,40.8-16.3,40.8-36.2
	c0-8.8,7.2-16,16-16c8.8,0,16,7.2,16,16c0,17.1,17.5,36.2,40.8,36.2c22.5,0,40.9-16.3,40.9-36.2
	C353.7,180.9,360.9,173.8,369.7,173.8z"/>
<path d="M480,480H32c-8.8,0-16-7.2-16-16s7.2-16,16-16h448c8.8,0,16,7.2,16,16S488.8,480,480,480z"/>
<path d="M240,416H112c-8.8,0-16-7.2-16-16v-88c0-22.1,17.9-40,40-40h80c22.1,0,40,17.9,40,40v88C256,408.8,248.8,416,240,416z
	 M128,384h96v-72c0-4.4-3.6-8-8-8h-80c-4.4,0-8,3.6-8,8V384z"/>
<path d="M400,480c-8.8,0-16-7.2-16-16V312c0-4.4-3.6-8-8-8h-64c-4.4,0-8,3.6-8,8v152c0,8.8-7.2,16-16,16s-16-7.2-16-16V312
	c0-22.1,17.9-40,40-40h64c22.1,0,40,17.9,40,40v152C416,472.8,408.8,480,400,480z"/>
</svg>
