<?xml version="1.0" encoding="utf-8"?>
<!-- Generator: Adobe Illustrator 25.4.1, SVG Export Plug-In . SVG Version: 6.00 Build 0)  -->
<svg version="1.1" id="Calque_1" xmlns="http://www.w3.org/2000/svg" xmlns:xlink="http://www.w3.org/1999/xlink" x="0px" y="0px"
	 viewBox="0 0 512 512" style="enable-background:new 0 0 512 512;" xml:space="preserve">
<path d="M352,400H160c-35.3,0-64-28.7-64-64V80c0-35.3,28.7-64,64-64h192c35.3,0,64,28.7,64,64v256C416,371.3,387.3,400,352,400z
	 M160,48c-17.6,0-32,14.4-32,32v256c0,17.6,14.4,32,32,32h192c17.6,0,32-14.4,32-32V80c0-17.6-14.4-32-32-32H160z"/>
<path d="M304,96h-96c-8.8,0-16-7.2-16-16s7.2-16,16-16h96c8.8,0,16,7.2,16,16S312.8,96,304,96z"/>
<path d="M368,240H144c-26.5,0-48-21.5-48-48v-32c0-26.5,21.5-48,48-48h224c26.5,0,48,21.5,48,48v32C416,218.5,394.5,240,368,240z
	 M144,144c-8.8,0-16,7.2-16,16v32c0,8.8,7.2,16,16,16h224c8.8,0,16-7.2,16-16v-32c0-8.8-7.2-16-16-16H144z"/>
<path d="M176,352c-17.6,0-32-14.4-32-32s14.4-32,32-32s32,14.4,32,32S193.6,352,176,352z M176,320C176,320,176,320,176,320L176,320z
	"/>
<path d="M336,352c-17.6,0-32-14.4-32-32s14.4-32,32-32s32,14.4,32,32S353.6,352,336,352z M336,320C336,320,336,320,336,320L336,320z
	"/>
<path d="M368,480H144c-8.8,0-16-7.2-16-16s7.2-16,16-16h224c8.8,0,16,7.2,16,16S376.8,480,368,480z"/>
<path d="M384,496c-4.1,0-8.2-1.6-11.3-4.7l-48-48c-6.2-6.2-6.2-16.4,0-22.6c6.2-6.2,16.4-6.2,22.6,0l48,48c6.2,6.2,6.2,16.4,0,22.6
	C392.2,494.4,388.1,496,384,496z"/>
<path d="M128,496c-4.1,0-8.2-1.6-11.3-4.7c-6.2-6.2-6.2-16.4,0-22.6l48-48c6.2-6.2,16.4-6.2,22.6,0c6.2,6.2,6.2,16.4,0,22.6l-48,48
	C136.2,494.4,132.1,496,128,496z"/>
</svg>
