<?xml version="1.0" encoding="utf-8"?>
<!-- Generator: Adobe Illustrator 25.4.1, SVG Export Plug-In . SVG Version: 6.00 Build 0)  -->
<svg version="1.1" id="Calque_1" xmlns="http://www.w3.org/2000/svg" xmlns:xlink="http://www.w3.org/1999/xlink" x="0px" y="0px"
	 viewBox="0 0 512 512" style="enable-background:new 0 0 512 512;" xml:space="preserve">
<path d="M60.8,355.5c-13.8,0-27.3-7.2-34.7-20l-4.7-8.1c-5.4-9.3-6.8-20-4-30.4c2.8-10.3,9.4-18.9,18.6-24.3c0,0,0,0,0.1,0
	l86.9-50.1c7.4-4.3,16-5.4,24.2-3.2c8.3,2.2,15.2,7.5,19.5,14.9c0,0,0.1,0.1,0.1,0.1l12.7,21.9c8.8,15.3,3.6,34.9-11.7,43.7
	l-86.9,50.1C74.5,353.8,67.6,355.5,60.8,355.5z M52,300.5C52,300.5,52,300.5,52,300.5c-2.5,1.5-3.4,3.7-3.8,4.9
	c-0.3,1.2-0.6,3.6,0.8,6.1l4.7,8.1c0,0,0,0,0,0c2.2,3.8,7.2,5.2,11,2.9l86.8-50.1l-12.7-22c0,0,0,0,0,0L52,300.5z"/>
<path d="M191.5,301.8c-3.5,0-6.9-0.5-10.4-1.4c-10.3-2.7-19-9.4-24.3-18.6c0,0-0.1-0.1-0.1-0.1L133.3,241c-5.3-9.3-6.8-20.1-4-30.4
	c2.8-10.3,9.4-18.9,18.6-24.3l124.5-71.8c7.4-4.3,16-5.4,24.2-3.2c8.3,2.2,15.2,7.5,19.5,14.9c0,0,0.1,0.1,0.1,0.1l31.5,54.5
	c8.8,15.3,3.6,34.9-11.7,43.7l-124.5,71.8C205.3,299.9,198.5,301.8,191.5,301.8z M184.6,265.8c1.4,2.5,3.6,3.4,4.8,3.7
	c1.2,0.3,3.6,0.6,6.1-0.8L320,196.9l-31.6-54.6c0,0,0,0,0,0l-124.5,71.8c-2.5,1.4-3.4,3.7-3.7,4.9c-0.3,1.2-0.6,3.6,0.8,6.1
	L184.6,265.8C184.5,265.7,184.6,265.8,184.6,265.8z"/>
<path d="M362.8,230.2c-13.8,0-27.3-7.2-34.7-20c0,0,0,0,0,0l-46.5-80.4c-11-19.1-4.4-43.6,14.7-54.6l93.3-53.8
	c19.1-11,43.6-4.4,54.7,14.6l46.5,80.4c5.3,9.3,6.8,20,4,30.4c-2.8,10.3-9.3,18.9-18.5,24.2c0,0-0.1,0.1-0.1,0.1l-93.3,53.8
	C376.4,228.5,369.5,230.2,362.8,230.2z M355.7,194.2c2.2,3.8,7.2,5.2,11,2.9l93.2-53.7c0,0,0.1,0,0.1-0.1c2.5-1.4,3.4-3.7,3.7-4.9
	c0.3-1.2,0.6-3.6-0.8-6.1L416.4,52c-2.2-3.8-7.2-5.1-11-2.9l-93.3,53.8c-3.8,2.2-5.1,7.1-2.9,10.9L355.7,194.2z"/>
<path d="M127.6,496c-2.2,0-4.5-0.5-6.7-1.5c-8-3.7-11.5-13.2-7.8-21.2l96.1-208c3.7-8,13.2-11.5,21.2-7.8c8,3.7,11.5,13.2,7.8,21.2
	l-96.1,208C139.4,492.6,133.6,496,127.6,496z"/>
<path d="M368.6,464c-5.9,0-11.5-3.2-14.3-8.8l-96.8-192c-4-7.9-0.8-17.5,7.1-21.5c7.9-4,17.5-0.8,21.5,7.1l96.8,192
	c4,7.9,0.8,17.5-7.1,21.5C373.4,463.5,371,464,368.6,464z"/>
</svg>
