<?xml version="1.0" encoding="utf-8"?>
<!-- Generator: Adobe Illustrator 25.4.1, SVG Export Plug-In . SVG Version: 6.00 Build 0)  -->
<svg version="1.1" id="Calque_1" xmlns="http://www.w3.org/2000/svg" xmlns:xlink="http://www.w3.org/1999/xlink" x="0px" y="0px"
	 viewBox="0 0 512 512" style="enable-background:new 0 0 512 512;" xml:space="preserve">
<path d="M256,480c-59.8,0-116.1-23.3-158.4-65.6C55.3,372.1,32,315.8,32,256c0-59.8,23.3-116.1,65.6-158.4
	C139.9,55.3,196.2,32,256,32c59.8,0,116.1,23.3,158.4,65.6C456.7,139.9,480,196.2,480,256c0,59.8-23.3,116.1-65.6,158.4
	C372.1,456.7,315.8,480,256,480z M256,64C150.1,64,64,150.1,64,256s86.1,192,192,192s192-86.1,192-192S361.9,64,256,64z"/>
<path d="M448,288c-59.8,0-116.1-23.3-158.4-65.6C247.3,180.1,224,123.8,224,64c0-5.7,0.2-9.3,0.6-15.2c0.7-8.8,8.3-15.4,17.2-14.8
	c8.8,0.7,15.4,8.3,14.8,17.2c-0.4,5-0.6,7.9-0.6,12.8c0,105.9,86.1,192,192,192c4.6,0,7.3-0.2,12.3-0.5c8.8-0.6,16.5,6,17.1,14.8
	c0.6,8.8-6,16.5-14.8,17.1C457.6,287.8,453.9,288,448,288z"/>
<path d="M271.4,478c-0.4,0-0.8,0-1.1,0c-8.8-0.6-15.5-8.3-14.8-17.1c0.2-2.2,0.6-8.9,0.6-12.9c0-105.9-86.1-192-192-192
	c-3.8,0-11,0.4-13.4,0.5c-8.8,0.5-16.4-6.2-16.9-15c-0.5-8.8,6.2-16.4,15-16.9c0.4,0,9.7-0.6,15.3-0.6c59.8,0,116.1,23.3,158.4,65.6
	C264.7,331.9,288,388.2,288,448c0,5.9-0.6,14.8-0.7,15.1C286.8,471.6,279.7,478,271.4,478z"/>
</svg>
