<?xml version="1.0" encoding="utf-8"?>
<!-- Generator: Adobe Illustrator 25.4.1, SVG Export Plug-In . SVG Version: 6.00 Build 0)  -->
<svg version="1.1" id="Calque_1" xmlns="http://www.w3.org/2000/svg" xmlns:xlink="http://www.w3.org/1999/xlink" x="0px" y="0px"
	 viewBox="0 0 512 512" style="enable-background:new 0 0 512 512;" xml:space="preserve">
<path d="M272,431.5c-6.5,0-12.6-4-15-10.4L152,141.1L47,421.1c-3.1,8.3-12.3,12.5-20.6,9.4c-8.3-3.1-12.5-12.3-9.4-20.6l120-320
	c2.3-6.2,8.3-10.4,15-10.4s12.6,4.1,15,10.4l120,320c3.1,8.3-1.1,17.5-9.4,20.6C275.8,431.2,273.9,431.5,272,431.5z"/>
<path d="M230,319.5H74c-8.8,0-16-7.2-16-16s7.2-16,16-16h156c8.8,0,16,7.2,16,16S238.8,319.5,230,319.5z"/>
<path d="M480,431.5c-8.8,0-16-7.2-16-16v-144c0-38.3-25.7-64-64-64c-26.1,0-49.4,15-59.3,38.3c-3.5,8.1-12.9,11.9-21,8.5
	c-8.1-3.5-11.9-12.8-8.5-21c14.9-35.1,49.7-57.7,88.7-57.7c26.7,0,51,9.4,68.5,26.6c17.8,17.4,27.5,42.1,27.5,69.4v144
	C496,424.3,488.8,431.5,480,431.5z"/>
<path d="M380,432.5c-44,0-76-31.1-76-74c0-22.9,9.8-42,28.5-55.2c17.3-12.2,38.7-16.9,53.7-18.7c32-3.8,69.5-5.1,93.9-5.1
	c8.8,0,16,7.2,16,16v15c0,41.5-11.8,73.3-35,94.5C441.2,423,413.2,432.5,380,432.5z M464,311.7c-22.1,0.5-49.8,1.9-74.1,4.7
	c-24.6,2.9-53.9,12.6-53.9,42.1c0,29,22.1,42,44,42C435.4,400.5,463.6,370.6,464,311.7z"/>
</svg>
