<?xml version="1.0" encoding="utf-8"?>
<!-- Generator: Adobe Illustrator 25.4.1, SVG Export Plug-In . SVG Version: 6.00 Build 0)  -->
<svg version="1.1" id="Calque_1" xmlns="http://www.w3.org/2000/svg" xmlns:xlink="http://www.w3.org/1999/xlink" x="0px" y="0px"
	 viewBox="0 0 512 512" style="enable-background:new 0 0 512 512;" xml:space="preserve">
<path d="M195.5,496c-5.1,0-10.2-1.9-14.1-5.8L137.3,446c-7.3-7.2-7.8-19.1-1.1-27c10-11.6,10-28.4,0-40c-11-12.8-30.4-14.3-43.3-3.3
	c-7.9,6.7-19.8,6.2-27-1.1l-44.1-44.1c-7.8-7.8-7.8-20.4,0-28.1l180.4-180.4c4.3-4.3,9.7-7.6,15.5-9.6c2.3-0.8,4.1-2.6,4.8-4.8
	c1.9-5.8,5.3-11.2,9.6-15.5l70.3-70.3c7.8-7.8,20.4-7.8,28.1,0L374.7,66c7.3,7.2,7.8,19.1,1.1,27c-10.4,12.1-9.7,30.4,1.5,41.7
	c11.3,11.2,29.6,11.9,41.7,1.5c7.9-6.8,19.8-6.3,27.1,1.1l44.1,44.1c7.8,7.8,7.8,20.4,0,28.1l-70.3,70.3c-4.3,4.3-9.7,7.6-15.5,9.6
	c-2.3,0.8-4.1,2.6-4.8,4.8c-1.9,5.8-5.3,11.2-9.6,15.5L209.5,490.2C205.7,494,200.6,496,195.5,496z M167.1,430.6l28.4,28.4
	l171.8-171.8c0.8-0.8,1.5-1.9,1.8-3c3.9-11.8,13.3-21.2,25.1-25.1c1.1-0.4,2.2-1,3-1.8l61.8-61.8l-28.3-28.3
	c-10.2,6-21.9,8.9-33.9,8.5c-15.8-0.6-30.7-7.1-42-18.2l0,0c-11.2-11.2-17.7-26.1-18.3-41.9c-0.5-12,2.5-23.7,8.5-34L316.5,53
	l-61.8,61.8c-0.8,0.8-1.5,1.9-1.8,3c-3.9,11.8-13.3,21.2-25.1,25.1c-1.1,0.4-2.2,1-3,1.9L53,316.5l28.4,28.3
	c25.6-14.9,59.1-10,79.1,13.3c9.8,11.4,15.1,25.9,15.1,40.8C175.6,410.2,172.7,421.1,167.1,430.6z M159.9,423.4L159.9,423.4
	C159.9,423.4,159.9,423.4,159.9,423.4z M88.5,352L88.5,352C88.6,352.1,88.5,352,88.5,352z M423.4,159.9
	C423.4,159.9,423.5,159.9,423.4,159.9L423.4,159.9z M352.1,88.6C352.1,88.6,352.1,88.7,352.1,88.6L352.1,88.6z"/>
<path d="M250.5,156.4c-4.1,0-8.2-1.6-11.3-4.7l-16.5-16.5c-6.2-6.2-6.2-16.4,0-22.6c6.2-6.2,16.4-6.2,22.6,0l16.5,16.5
	c6.2,6.2,6.2,16.4,0,22.6C258.7,154.9,254.6,156.4,250.5,156.4z"/>
<path d="M294.5,200.5c-4.1,0-8.2-1.6-11.3-4.7l-11-11c-6.3-6.2-6.3-16.4,0-22.6c6.2-6.3,16.4-6.3,22.6,0l11,11
	c6.3,6.2,6.3,16.4,0,22.6C302.7,198.9,298.6,200.5,294.5,200.5z"/>
<path d="M338.5,244.5c-4.1,0-8.2-1.6-11.3-4.7l-11-11c-6.2-6.3-6.2-16.4,0-22.6c6.3-6.2,16.4-6.2,22.6,0l11,11
	c6.2,6.3,6.2,16.4,0,22.6C346.7,242.9,342.6,244.5,338.5,244.5z"/>
<path d="M388.1,294c-4.1,0-8.2-1.6-11.3-4.7l-16.5-16.5c-6.2-6.2-6.2-16.4,0-22.6c6.2-6.2,16.4-6.2,22.6,0l16.5,16.5
	c6.2,6.2,6.2,16.4,0,22.6C396.3,292.4,392.2,294,388.1,294z"/>
</svg>
