<?xml version="1.0" encoding="utf-8"?>
<!-- Generator: Adobe Illustrator 25.4.1, SVG Export Plug-In . SVG Version: 6.00 Build 0)  -->
<svg version="1.1" id="Calque_1" xmlns="http://www.w3.org/2000/svg" xmlns:xlink="http://www.w3.org/1999/xlink" x="0px" y="0px"
	 viewBox="0 0 512 512" style="enable-background:new 0 0 512 512;" xml:space="preserve">
<path d="M368,400c-79.4,0-144-64.6-144-144c0-79.4,64.6-144,144-144s144,64.6,144,144C512,335.4,447.4,400,368,400z M368,144
	c-61.8,0-112,50.2-112,112s50.2,112,112,112s112-50.2,112-112S429.8,144,368,144z"/>
<path d="M368,400H144C64.6,400,0,335.4,0,256c0-79.4,64.6-144,144-144h224c79.4,0,144,64.6,144,144C512,335.4,447.4,400,368,400z
	 M144,144c-61.8,0-112,50.2-112,112s50.2,112,112,112h224c61.8,0,112-50.2,112-112s-50.2-112-112-112H144z"/>
</svg>
