<?xml version="1.0" encoding="utf-8"?>
<!-- Generator: Adobe Illustrator 25.4.1, SVG Export Plug-In . SVG Version: 6.00 Build 0)  -->
<svg version="1.1" id="icons" xmlns="http://www.w3.org/2000/svg" xmlns:xlink="http://www.w3.org/1999/xlink" x="0px" y="0px"
	 viewBox="0 0 512 512" style="enable-background:new 0 0 512 512;" xml:space="preserve">
<path d="M208,370h-64c-62.9,0-114-51.1-114-114c0-62.9,51.1-114,114-114h64c9.9,0,18,8.1,18,18s-8.1,18-18,18h-64c-43,0-78,35-78,78
	c0,43,35,78,78,78h64c9.9,0,18,8.1,18,18S217.9,370,208,370z"/>
<path d="M368,370h-64c-9.9,0-18-8.1-18-18s8.1-18,18-18h64c43,0,78-35,78-78c0-43-35-78-78-78h-64c-9.9,0-18-8.1-18-18s8.1-18,18-18
	h64c62.9,0,114,51.1,114,114C482,318.9,430.9,370,368,370z"/>
</svg>
