<?xml version="1.0" encoding="utf-8"?>
<!-- Generator: Adobe Illustrator 25.4.1, SVG Export Plug-In . SVG Version: 6.00 Build 0)  -->
<svg version="1.1" id="Calque_1" xmlns="http://www.w3.org/2000/svg" xmlns:xlink="http://www.w3.org/1999/xlink" x="0px" y="0px"
	 viewBox="0 0 512 512" style="enable-background:new 0 0 512 512;" xml:space="preserve">
<path d="M336,179.5c0-37.3-30.2-67.5-67.5-67.5l0,0h-79.2c-2.2,0-4,1.8-4,4c0,1.1,0.4,2.1,1.2,2.8l142.7,142.7
	c1.6,1.6,4.1,1.6,5.7,0c0.7-0.7,1.2-1.8,1.2-2.8V179.5z"/>
<path d="M16,180v152c0,37.6,30.4,68,68,68h184c15.6,0,30.7-5.4,42.8-15.2c1.7-1.4,2-3.9,0.7-5.6c-0.1-0.1-0.2-0.3-0.3-0.4L54.4,122
	c-1.3-1.3-3.3-1.6-4.9-0.6C28.8,133.6,16,155.9,16,180z"/>
<path d="M464,384.4c-4.5,0-8.9-0.9-13-2.8c-1-0.4-1.9-0.9-2.7-1.5l-82.7-58.2l0,0c-8.5-6-13.6-15.8-13.6-26.2v-79.4
	c0-10.4,5.1-20.2,13.6-26.2l82.7-58.2c0.9-0.6,1.8-1.1,2.7-1.5c16.1-7.2,35.1,0.1,42.2,16.2c1.8,4.1,2.8,8.5,2.8,13v192.8
	C496,370.1,481.7,384.4,464,384.4L464,384.4z"/>
<path d="M416,432c-4.1,0-8.2-1.6-11.3-4.7l-336-336c-6.2-6.2-6.2-16.4,0-22.6c6.2-6.2,16.4-6.2,22.6,0l336,336
	c6.2,6.2,6.2,16.4,0,22.6C424.2,430.4,420.1,432,416,432z"/>
</svg>
