<?xml version="1.0" encoding="utf-8"?>
<!-- Generator: Adobe Illustrator 25.4.1, SVG Export Plug-In . SVG Version: 6.00 Build 0)  -->
<svg version="1.1" id="Calque_1" xmlns="http://www.w3.org/2000/svg" xmlns:xlink="http://www.w3.org/1999/xlink" x="0px" y="0px"
	 viewBox="0 0 512 512" style="enable-background:new 0 0 512 512;" xml:space="preserve">
<path d="M464,384.4c-4.4,0-8.8-0.9-13-2.8c-1-0.4-1.9-0.9-2.7-1.5l-82.7-58.2v0c-8.5-6-13.6-15.8-13.6-26.2v-79.4
	c0-10.4,5.1-20.2,13.6-26.2l82.7-58.2c0.9-0.6,1.8-1.1,2.7-1.5c4.1-1.8,8.5-2.8,13-2.8c17.6,0,32,14.4,32,32v192.8
	c0,4.5-0.9,8.9-2.8,13c-3.5,7.8-9.8,13.8-17.8,16.9C471.8,383.7,467.9,384.4,464,384.4z M384,295.7l80,56.3V160l-80,56.3V295.7
	L384,295.7z"/>
<path d="M268.1,400C268,400,268,400,268.1,400H84c-37.4-0.1-67.9-30.6-68-68V180c0-19.9,8.7-38.7,23.8-51.6c6.7-5.7,16.8-5,22.6,1.8
	s5,16.8-1.8,22.6c-8,6.8-12.6,16.8-12.6,27.3v152c0.1,19.8,16.2,35.9,36,36h184c0,0,0,0,0,0c5.2,0,10.5-1.2,15.2-3.4
	c8-3.8,17.5-0.3,21.3,7.7c3.8,8,0.3,17.5-7.7,21.3C287.9,397.8,277.9,400,268.1,400z"/>
<path d="M320,264c-8.8,0-16-7.2-16-16v-68.5c-0.1-19.5-16-35.5-35.6-35.5H208c-8.8,0-16-7.2-16-16s7.2-16,16-16h60.5
	c37.1,0.1,67.4,30.4,67.5,67.5V248C336,256.8,328.8,264,320,264z"/>
<path d="M416,432c-4.1,0-8.2-1.6-11.3-4.7l-336-336c-6.2-6.2-6.2-16.4,0-22.6c6.2-6.2,16.4-6.2,22.6,0l336,336
	c6.2,6.2,6.2,16.4,0,22.6C424.2,430.4,420.1,432,416,432z"/>
</svg>
