<?xml version="1.0" encoding="utf-8"?>
<!-- Generator: Adobe Illustrator 25.4.1, SVG Export Plug-In . SVG Version: 6.00 Build 0)  -->
<svg version="1.1" id="Calque_1" xmlns="http://www.w3.org/2000/svg" xmlns:xlink="http://www.w3.org/1999/xlink" x="0px" y="0px"
	 viewBox="0 0 512 512" style="enable-background:new 0 0 512 512;" xml:space="preserve">
<rect x="224" y="-8.9" transform="matrix(0.7071 -0.7071 0.7071 0.7071 -110.7249 244.6864)" width="32" height="529.8"/>
<path d="M352,256c0-24.6-5.8-47.9-17.8-71.3l-7.2-14.3L298.5,185l7.3,14.2c9.6,18.8,14.2,37.4,14.2,56.8c0,3.9-0.2,7.8-0.6,11.7
	l27.3,27.3C350.2,282.3,352,269.2,352,256z"/>
<path d="M416,256c0-51.2-13.1-83.9-34.2-120.1l-8.1-13.8l-27.6,16.1l8.1,13.8C373.1,184.4,384,211.8,384,256
	c0,25.9-3.9,46.2-11,65.3l24.5,24.5C409.2,319.7,416,292.4,416,256z"/>
<path d="M480,256c0-74.3-20.2-121.1-50.5-168.6l-8.6-13.5l-27,17.2l8.6,13.5C429.8,147.4,448,189.5,448,256
	c0,48.8-9.4,84-24.8,115.5l23.7,23.7C470.2,351.4,480,309,480,256z"/>
<polygon points="256,72 182.4,130.8 256,204.4 "/>
<polygon points="32,176.1 32,335.9 125.7,335.9 256,440 256,339.6 92.5,176.1 "/>
</svg>
