<?xml version="1.0" encoding="utf-8"?>
<!-- Generator: Adobe Illustrator 25.4.1, SVG Export Plug-In . SVG Version: 6.00 Build 0)  -->
<svg version="1.1" id="Calque_1" xmlns="http://www.w3.org/2000/svg" xmlns:xlink="http://www.w3.org/1999/xlink" x="0px" y="0px"
	 viewBox="0 0 512 512" style="enable-background:new 0 0 512 512;" xml:space="preserve">
<path d="M314.2,498.3c-5.9,0-11.6-3.3-14.4-8.9l-56-113.3L199.9,320c-0.4-0.5-0.8-1.1-1.2-1.7c-8.1-13.7-12.4-29.3-12.4-45.2V144
	c0-8.8,7.2-16,16-16h15.7c0,0,0,0,0,0c31,0,56.2,25.2,56.2,56.2v181.4l54.2,109.6c3.9,7.9,0.7,17.5-7.2,21.4
	C319,497.8,316.6,498.3,314.2,498.3z M225.8,301.2l16.5,21.1V184.2c0-13.3-10.7-24-23.9-24.2v113.1C218.4,283,221,292.7,225.8,301.2
	z"/>
<path d="M127.9,309c-8.8,0-16-7.2-16-16v-74.5c0-2.5,0.6-4.9,1.7-7.2c0.4-0.8,10.1-20.1,24.8-39.7c21.7-29,43.3-43.7,64-43.7
	c8.8,0,16,7.2,16,16s-7.2,16-16,16c-17.8,0-44.6,36.1-58.5,62.4V293C143.9,301.9,136.7,309,127.9,309z"/>
<path d="M370.1,290.4c-3,0-6.1-0.9-8.8-2.6l-66.1-43.4c-7.4-4.9-9.4-14.8-4.6-22.2c4.9-7.4,14.8-9.4,22.2-4.6l66.1,43.4
	c7.4,4.9,9.4,14.8,4.6,22.2C380.4,287.9,375.3,290.4,370.1,290.4z"/>
<path d="M170.5,494.4c-3.1,0-6.2-0.9-9-2.8c-7.3-5-9.2-14.9-4.2-22.2l53.5-78.4c5-7.3,14.9-9.2,22.2-4.2c7.3,5,9.2,14.9,4.2,22.2
	l-53.5,78.4C180.6,491.9,175.6,494.4,170.5,494.4z"/>
<path d="M258.3,122.7c-29.4,0-53.3-23.9-53.3-53.3s23.9-53.3,53.3-53.3c29.4,0,53.3,23.9,53.3,53.3S287.7,122.7,258.3,122.7z
	 M258.3,48.2c-11.7,0-21.3,9.5-21.3,21.3c0,11.7,9.5,21.3,21.3,21.3c11.7,0,21.3-9.5,21.3-21.3C279.6,57.8,270,48.2,258.3,48.2z"/>
</svg>
