<?xml version="1.0" encoding="utf-8"?>
<!-- Generator: Adobe Illustrator 25.4.1, SVG Export Plug-In . SVG Version: 6.00 Build 0)  -->
<svg version="1.1" id="Calque_1" xmlns="http://www.w3.org/2000/svg" xmlns:xlink="http://www.w3.org/1999/xlink" x="0px" y="0px"
	 viewBox="0 0 512 512" style="enable-background:new 0 0 512 512;" xml:space="preserve">
<g>
	<path d="M312.5,479.9l-56.4-114l-44.6-57c-6.6-11.2-10.1-23.9-10.1-36.9V143.6H217c22.1,0,40,17.9,40,40v182.2"/>
	<path d="M312.6,495.9c-5.9,0-11.6-3.3-14.4-8.9l-55.7-112.5l-43.6-55.7c-0.4-0.5-0.8-1.1-1.2-1.7c-8.1-13.6-12.3-29.2-12.3-45.1
		V143.6c0-8.8,7.2-16,16-16H217c30.9,0,56,25.1,56,56v180.3l53.9,108.9c3.9,7.9,0.7,17.5-7.2,21.4
		C317.4,495.4,314.9,495.9,312.6,495.9z M224.8,299.9l16.2,20.7v-137c0-13.1-10.5-23.8-23.5-24V272
		C217.4,281.8,220,291.4,224.8,299.9z"/>
</g>
<path d="M127.4,307.8c-8.8,0-16-7.2-16-16v-74.1c0-2.5,0.6-4.9,1.7-7.1c0.4-0.8,10.1-20,24.6-39.5c21.6-28.8,43.1-43.4,63.7-43.4
	c8.8,0,16,7.2,16,16s-7.2,16-16,16c-17.7,0-44.3,35.8-58.1,61.9v70.2C143.4,300.6,136.2,307.8,127.4,307.8z"/>
<path d="M368.1,291.8c-3.7,0-7.2-1.1-10.3-3.1L297.7,250c-6-3.9-9.7-10.6-9.7-17.8v-23.7c0-3.1,2.5-5.7,5.6-5.7c1.1,0,2.1,0.3,3,0.9
	l81.6,54.1c8.5,5.7,10.8,17.2,5.1,25.7C380,288.7,374.2,291.8,368.1,291.8L368.1,291.8z"/>
<path d="M171.9,493.5c-5.8,0-11.3-2.7-14.8-7.4c-6.1-8.2-4-17.2,3.7-25.9l59.9-74.7c3.3-2.5,7.9-1.8,10.4,1.5
	c0.1,0.2,0.3,0.4,0.4,0.6c1.6,2.5,3.4,5.6,5.2,9.1c5.2,10,6,16.1-1.7,25.7c-8,10-52,67.4-52,67.4
	C180.4,492.8,175.8,493.5,171.9,493.5z"/>
<g>
	<circle cx="257" cy="69.6" r="37"/>
	<path d="M257,114.6c-24.8,0-45-20.2-45-45s20.2-45,45-45s45,20.2,45,45S281.8,114.6,257,114.6z M257,40.5c-16,0-29,13-29,29
		s13,29,29,29s29-13,29-29S273,40.5,257,40.5z"/>
</g>
</svg>
