<?xml version="1.0" encoding="utf-8"?>
<!-- Generator: Adobe Illustrator 25.4.1, SVG Export Plug-In . SVG Version: 6.00 Build 0)  -->
<svg version="1.1" id="Calque_1" xmlns="http://www.w3.org/2000/svg" xmlns:xlink="http://www.w3.org/1999/xlink" x="0px" y="0px"
	 viewBox="0 0 512 512" style="enable-background:new 0 0 512 512;" xml:space="preserve">
<g>
	<path d="M315.1,481.4l-56.9-115.1l-45-57.6c-6.6-11.3-10.2-24.1-10.2-37.2V142h15.7c22.2,0,40.3,18.1,40.3,40.3v162.5"/>
	<path d="M307.8,502.8l-63.3-128l-44-56.3c-0.4-0.5-0.8-1.1-1.2-1.7c-8.1-13.7-12.4-29.4-12.4-45.3V142c0-8.8,7.2-16,16-16h15.7
		c31,0.1,56.3,25.3,56.3,56.3v178.5h-1.7l63.2,127.8L307.8,502.8z M226.4,299.7l16.6,21.2V182.3c0-13.3-10.8-24.1-24-24.3v113.5
		C219,281.4,221.6,291.1,226.4,299.7z"/>
</g>
<path d="M144.2,307.5h-32v-90.8c0-4.2,1.7-8.3,4.7-11.3l76.2-76.4l22.7,22.6l-71.6,71.7V307.5z"/>
<polygon points="376.4,295.7 292.4,239.4 292.4,194.7 397.1,267.6 "/>
<polygon points="175.1,498.6 153.7,471.7 234,390.1 249.6,422.2 "/>
<g>
	<circle cx="259" cy="67.2" r="37.4"/>
	<path d="M259,112.6c-25,0-45.4-20.4-45.4-45.4S234,21.8,259,21.8c25,0,45.4,20.4,45.4,45.4S284,112.6,259,112.6z M259,37.8
		c-16.2,0-29.4,13.2-29.4,29.4s13.2,29.4,29.4,29.4c16.2,0,29.4-13.2,29.4-29.4S275.2,37.8,259,37.8z"/>
</g>
</svg>
