<?xml version="1.0" encoding="utf-8"?>
<!-- Generator: Adobe Illustrator 25.4.1, SVG Export Plug-In . SVG Version: 6.00 Build 0)  -->
<svg version="1.1" id="Calque_1" xmlns="http://www.w3.org/2000/svg" xmlns:xlink="http://www.w3.org/1999/xlink" x="0px" y="0px"
	 viewBox="0 0 512 512" style="enable-background:new 0 0 512 512;" xml:space="preserve">
<path d="M334.4,349.6l-15.7-14c-35.6-31.6-89.3-31.6-124.9,0l-15.7,14l-27.9-31.4l15.7-14c51.5-45.8,129.2-45.8,180.7,0l15.7,14
	L334.4,349.6z"/>
<path d="M394.7,288.7l-15.3-14.3c-69-64.6-177.2-64.6-246.2,0l-15.3,14.3L89.1,258l15.3-14.3c41.3-38.6,95.2-59.9,151.8-59.9
	s110.5,21.3,151.8,59.9l15.3,14.3L394.7,288.7z"/>
<path d="M449.7,221.2l-15.7-14c-101.3-90.4-254.2-90.4-355.5,0l-15.7,14l-28-31.3l15.7-14c117.3-104.6,294.1-104.6,411.4,0l15.7,14
	L449.7,221.2z"/>
<path d="M300.7,384L256,433l-44.3-49c19.5-24.6,55.1-28.7,79.7-9.2C294.8,377.5,297.9,380.6,300.7,384L300.7,384z"/>
</svg>
