<?xml version="1.0" encoding="utf-8"?>
<!-- Generator: Adobe Illustrator 25.4.1, SVG Export Plug-In . SVG Version: 6.00 Build 0)  -->
<svg version="1.1" id="Calque_1" xmlns="http://www.w3.org/2000/svg" xmlns:xlink="http://www.w3.org/1999/xlink" x="0px" y="0px"
	 viewBox="0 0 512 512" style="enable-background:new 0 0 512 512;" xml:space="preserve">
<path d="M256,288c-53,0-93.9-16.3-121.6-48.4C87.8,185.7,96,106.3,97.4,94.9V80c0-8.8,7.2-16,16-16h285.1c8.8,0,16,7.2,16,16v14.9
	c1.5,11.4,9.6,90.7-36.9,144.7C349.9,271.7,309,288,256,288z M129.4,96c0,0.8-0.1,1.6-0.2,2.3c-0.1,0.7-10.2,74.7,29.4,120.5
	c21.4,24.7,54.1,37.2,97.3,37.2s75.9-12.5,97.3-37.2C393,173.1,382.8,99,382.7,98.3c-0.1-0.8-0.2-1.5-0.2-2.3H129.4z"/>
<rect x="240" y="272" width="32" height="160"/>
<path d="M352,448H160c-8.8,0-16-7.2-16-16s7.2-16,16-16h192c8.8,0,16,7.2,16,16S360.8,448,352,448z"/>
<rect x="112" y="144" width="288" height="32"/>
</svg>
