<svg id="Calque_1" data-name="Calque 1" xmlns="http://www.w3.org/2000/svg" viewBox="0 0 160 72"><defs><style>.cls-1{fill:#ccc;}.cls-2{fill:#fff;}.cls-3{fill:#aaa;}.cls-4{fill:#555;}</style></defs><rect class="cls-1" x="1" y="1" width="94" height="70"/><path class="cls-2" d="M94,2V70H2V2H94m2-2H0V72H96V0Z"/><rect class="cls-1" x="97" y="1" width="62" height="34"/><path class="cls-2" d="M158,2V34H98V2h60m2-2H96V36h64V0Z"/><rect class="cls-1" x="97" y="37" width="62" height="34"/><path class="cls-2" d="M158,38V70H98V38h60m2-2H96V72h64V36Z"/><circle class="cls-3" cx="48" cy="36" r="8"/><path class="cls-4" d="M49.33,32.72v6.54H47.56V34.35h0l-1.43.86V33.7l1.61-1Z"/><circle class="cls-3" cx="128" cy="18" r="8"/><path class="cls-4" d="M125.49,21.26V20l2.44-2c.17-.14.3-.26.42-.38a1.29,1.29,0,0,0,.27-.37.93.93,0,0,0,.09-.42.83.83,0,0,0-.1-.43.74.74,0,0,0-.3-.28,1,1,0,0,0-.43-.09.89.89,0,0,0-.44.1.68.68,0,0,0-.29.29,1,1,0,0,0-.1.46h-1.69a2.29,2.29,0,0,1,.31-1.19,2,2,0,0,1,.88-.76,3.07,3.07,0,0,1,1.33-.27,3.37,3.37,0,0,1,1.36.25,2.1,2.1,0,0,1,.89.7,1.85,1.85,0,0,1,.32,1.07,2,2,0,0,1-.16.75,2.92,2.92,0,0,1-.56.82,12,12,0,0,1-1.16,1.08l-.61.51v0h2.56v1.41Z"/><circle class="cls-3" cx="128" cy="54" r="8"/><path class="cls-4" d="M127.92,57.35a3.49,3.49,0,0,1-1.37-.26,2.34,2.34,0,0,1-.94-.74,1.77,1.77,0,0,1-.35-1.08h1.79a.52.52,0,0,0,.12.34.74.74,0,0,0,.31.23,1.25,1.25,0,0,0,.45.08,1,1,0,0,0,.44-.09.68.68,0,0,0,.29-.24.64.64,0,0,0,.11-.36.55.55,0,0,0-.12-.35.91.91,0,0,0-.35-.24,1.36,1.36,0,0,0-.51-.09h-.66V53.33h.66a1.13,1.13,0,0,0,.47-.09.8.8,0,0,0,.32-.24.61.61,0,0,0,.11-.35.64.64,0,0,0-.09-.34.75.75,0,0,0-.27-.23.87.87,0,0,0-.4-.08,1.18,1.18,0,0,0-.43.08.73.73,0,0,0-.3.24.63.63,0,0,0-.11.35h-1.7a1.78,1.78,0,0,1,.33-1.06,2.32,2.32,0,0,1,.9-.72,3.19,3.19,0,0,1,1.31-.26,3.06,3.06,0,0,1,1.29.25,2,2,0,0,1,.87.67,1.63,1.63,0,0,1,.31,1,1.16,1.16,0,0,1-.37.91,1.68,1.68,0,0,1-1,.41v0a1.92,1.92,0,0,1,1.19.49,1.27,1.27,0,0,1,.39,1,1.53,1.53,0,0,1-.34,1,2.26,2.26,0,0,1-1,.7A3.67,3.67,0,0,1,127.92,57.35Z"/></svg>