<?xml version="1.0" encoding="utf-8"?>
<!-- Generator: Adobe Illustrator 25.4.1, SVG Export Plug-In . SVG Version: 6.00 Build 0)  -->
<svg version="1.1" id="Calque_1" xmlns="http://www.w3.org/2000/svg" xmlns:xlink="http://www.w3.org/1999/xlink" x="0px" y="0px"
	 viewBox="0 0 275 64" style="enable-background:new 0 0 275 64;" xml:space="preserve">
<g>
	<path d="M0,0h7.1L35,56.5h0.2L60.8,1.4H67l25.3,55.1h0.2L120.3,0h6.7L95.5,64h-6.7l-25-54.2h-0.2L38.3,64h-6.8L0,0z"/>
	<path d="M137.7,0h37.9c18.3,0,27.7,7.5,27.7,21.2c0,13.5-9.1,20.9-27.2,20.9H144V64h-6.3V0z M175.3,37c14.5,0,21.8-5.1,21.8-15.7
		c0-10.2-6.8-15.7-22.3-15.7H144V37H175.3z"/>
	<path d="M211,59.3l55.3-53.6V5.6h-54.6V0H275v5l-55,53.3v0.1h54.2V64H211V59.3z"/>
</g>
</svg>
