<svg id="Calque_1" data-name="Calque 1" xmlns="http://www.w3.org/2000/svg" viewBox="0 0 160 72"><defs><style>.cls-1{fill:#ccc;}.cls-2{fill:#fff;}.cls-3{fill:#aaa;}.cls-4{fill:#555;}</style></defs><rect class="cls-1" x="1" y="1" width="94" height="70"/><path class="cls-2" d="M94,2V70H2V2H94m2-2H0V72H96V0Z"/><rect class="cls-1" x="97" y="1" width="62" height="70"/><path class="cls-2" d="M158,2V70H98V2h60m2-2H96V72h64V0Z"/><circle class="cls-3" cx="48" cy="36" r="8"/><path class="cls-4" d="M49.33,32.72v6.54H47.56V34.35h0l-1.43.86V33.7l1.61-1Z"/><circle class="cls-3" cx="128" cy="36" r="8"/><path class="cls-4" d="M125.49,39.26V38l2.44-2c.17-.14.3-.26.42-.38a1.29,1.29,0,0,0,.27-.37.93.93,0,0,0,.09-.42.83.83,0,0,0-.1-.43.74.74,0,0,0-.3-.28,1,1,0,0,0-.43-.09.89.89,0,0,0-.44.1.68.68,0,0,0-.29.29,1,1,0,0,0-.1.46h-1.69a2.29,2.29,0,0,1,.31-1.19,2,2,0,0,1,.88-.76,3.07,3.07,0,0,1,1.33-.27,3.37,3.37,0,0,1,1.36.25,2.1,2.1,0,0,1,.89.7,1.85,1.85,0,0,1,.32,1.07,2,2,0,0,1-.16.75,2.92,2.92,0,0,1-.56.82,12,12,0,0,1-1.16,1.08l-.61.51v0h2.56v1.41Z"/></svg>